<svg width="70" height="70" viewBox="0 0 70 70" fill="none" xmlns="http://www.w3.org/2000/svg">
<g filter="url(#filter0_b_530_15473)">
<rect x="0.548828" y="0.140625" width="68.9751" height="68.9751" rx="34.4875" fill="white" fill-opacity="0.2"/>
<rect x="0.880439" y="0.472236" width="68.3119" height="68.3119" rx="34.1559" stroke="white" stroke-opacity="0.2" stroke-width="0.663222"/>
<rect x="11.1602" y="10.7539" width="47.752" height="47.752" rx="23.876" fill="white"/>
<rect x="11.4918" y="11.0855" width="47.0888" height="47.0888" rx="23.5444" stroke="white" stroke-opacity="0.1" stroke-width="0.663222"/>
<g opacity="0.6">
<path fill-rule="evenodd" clip-rule="evenodd" d="M31.4231 24.6523H38.6516C39.3954 24.6523 40.0114 24.6523 40.516 24.6921C41.0416 24.7335 41.5255 24.8223 41.9872 25.0432C42.7066 25.3874 43.3063 25.9393 43.709 26.6275C43.9675 27.0693 44.0962 27.5441 44.1812 28.0645C44.2627 28.5641 44.3138 29.1779 44.3756 29.9192L45.0808 38.3817C45.1528 39.2453 45.212 39.9555 45.2114 40.5347C45.2108 41.1342 45.1485 41.6896 44.9175 42.2169C44.561 43.0303 43.9433 43.7016 43.1622 44.1245C42.656 44.3985 42.1076 44.5067 41.5103 44.5571C40.9332 44.6057 40.2205 44.6057 39.3539 44.6057H30.7208C29.8542 44.6057 29.1415 44.6057 28.5644 44.5571C27.9671 44.5067 27.4187 44.3985 26.9124 44.1245C26.1314 43.7016 25.5137 43.0303 25.1572 42.2169C24.9261 41.6896 24.8639 41.1342 24.8633 40.5347C24.8627 39.9555 24.9219 39.2453 24.9939 38.3817L25.6991 29.9192C25.7609 29.1779 25.812 28.5641 25.8935 28.0645C25.9784 27.5441 26.1071 27.0693 26.3656 26.6275C26.7684 25.9393 27.3681 25.3874 28.0875 25.0432C28.5491 24.8223 29.0331 24.7335 29.5587 24.6921C30.0633 24.6523 30.6793 24.6523 31.4231 24.6523ZM32.0443 30.6384C32.0443 30.0874 31.5976 29.6407 31.0466 29.6407C30.4956 29.6407 30.049 30.0874 30.049 30.6384C30.049 31.9613 30.5745 33.2301 31.51 34.1656C32.4455 35.1011 33.7143 35.6267 35.0373 35.6267C36.3603 35.6267 37.6291 35.1011 38.5646 34.1656C39.5001 33.2301 40.0257 31.9613 40.0257 30.6384C40.0257 30.0874 39.579 29.6407 39.028 29.6407C38.477 29.6407 38.0303 30.0874 38.0303 30.6384C38.0303 31.4321 37.715 32.1934 37.1537 32.7547C36.5924 33.316 35.8311 33.6314 35.0373 33.6314C34.2435 33.6314 33.4822 33.316 32.9209 32.7547C32.3596 32.1934 32.0443 31.4321 32.0443 30.6384Z" fill="black"/>
</g>
</g>
<defs>
<filter id="filter0_b_530_15473" x="-6.08339" y="-6.49159" width="82.239" height="82.241" filterUnits="userSpaceOnUse" color-interpolation-filters="sRGB">
<feFlood flood-opacity="0" result="BackgroundImageFix"/>
<feGaussianBlur in="BackgroundImageFix" stdDeviation="3.31611"/>
<feComposite in2="SourceAlpha" operator="in" result="effect1_backgroundBlur_530_15473"/>
<feBlend mode="normal" in="SourceGraphic" in2="effect1_backgroundBlur_530_15473" result="shape"/>
</filter>
</defs>
</svg>
