<svg width="62" height="62" viewBox="0 0 62 62" fill="none" xmlns="http://www.w3.org/2000/svg">
<g filter="url(#filter0_b_530_15467)">
<rect x="0.384766" y="0.273438" width="60.9885" height="60.9885" rx="30.4943" fill="white" fill-opacity="0.2"/>
<rect x="0.67798" y="0.566651" width="60.4021" height="60.4021" rx="30.201" stroke="white" stroke-opacity="0.2" stroke-width="0.586428"/>
<rect x="9.76758" y="9.65625" width="42.2228" height="42.2228" rx="21.1114" fill="white"/>
<rect x="10.0608" y="9.94946" width="41.6364" height="41.6364" rx="20.8182" stroke="white" stroke-opacity="0.1" stroke-width="0.586428"/>
<g opacity="0.6">
<path d="M22.8958 23.5885H23.7998L24.1576 26.0931L25.0006 32.2891C25.0507 32.6568 25.0941 32.9764 25.1507 33.2392C25.2107 33.5185 25.2966 33.7921 25.461 34.0508C25.7084 34.4404 26.0632 34.7501 26.4825 34.9428C26.7611 35.0708 27.0438 35.119 27.3286 35.1409C27.5966 35.1614 27.9191 35.1614 28.2902 35.1614H35.176C35.5289 35.1614 35.8364 35.1614 36.0929 35.1423C36.3661 35.1219 36.637 35.0769 36.9062 34.9584C37.3128 34.7794 37.6615 34.4908 37.9134 34.1249C38.0802 33.8826 38.1751 33.6249 38.2462 33.3604C38.3131 33.112 38.3706 32.8099 38.4366 32.4633L39.5021 26.8694C39.5234 26.7581 39.5479 26.6295 39.5594 26.5162C39.5724 26.3887 39.5799 26.1949 39.5051 25.9833C39.4106 25.7157 39.2242 25.4905 38.9791 25.3476C38.7851 25.2346 38.5934 25.2057 38.4657 25.1945C38.3522 25.1846 38.2214 25.1847 38.108 25.1847L25.6404 25.1847L25.3582 23.2093C25.3464 23.1269 25.3321 23.0264 25.3125 22.9379C25.2894 22.8337 25.2479 22.6898 25.1535 22.5428C25.0295 22.3495 24.8525 22.196 24.6436 22.1005C24.4847 22.0279 24.3364 22.0072 24.23 21.999C24.1396 21.9921 24.038 21.9922 23.9548 21.9922L22.8958 21.9922C22.455 21.9922 22.0977 22.3495 22.0977 22.7903C22.0977 23.2311 22.455 23.5885 22.8958 23.5885Z" fill="black"/>
<path d="M26.8865 37.9549C26.8865 37.0733 27.6011 36.3586 28.4827 36.3586C29.3643 36.3586 30.079 37.0733 30.079 37.9549C30.079 38.8365 29.3643 39.5512 28.4827 39.5512C27.6011 39.5512 26.8865 38.8365 26.8865 37.9549Z" fill="black"/>
<path d="M33.2715 37.9549C33.2715 37.0733 33.9862 36.3586 34.8678 36.3586C35.7494 36.3586 36.4641 37.0733 36.4641 37.9549C36.4641 38.8365 35.7494 39.5512 34.8678 39.5512C33.9862 39.5512 33.2715 38.8365 33.2715 37.9549Z" fill="black"/>
</g>
</g>
<defs>
<filter id="filter0_b_530_15467" x="-5.47951" y="-5.59084" width="72.7168" height="72.7168" filterUnits="userSpaceOnUse" color-interpolation-filters="sRGB">
<feFlood flood-opacity="0" result="BackgroundImageFix"/>
<feGaussianBlur in="BackgroundImageFix" stdDeviation="2.93214"/>
<feComposite in2="SourceAlpha" operator="in" result="effect1_backgroundBlur_530_15467"/>
<feBlend mode="normal" in="SourceGraphic" in2="effect1_backgroundBlur_530_15467" result="shape"/>
</filter>
</defs>
</svg>
