<svg width="148" height="148" viewBox="0 0 148 148" fill="none" xmlns="http://www.w3.org/2000/svg">
<rect width="147.581" height="147.581" rx="73.7905" fill="url(#paint0_radial_530_15448)" fill-opacity="0.14"/>
<rect x="0.487147" y="0.487147" width="146.607" height="146.607" rx="73.3033" stroke="white" stroke-opacity="0.1" stroke-width="0.974293"/>
<g filter="url(#filter0_dd_530_15448)">
<path opacity="0.57" fill-rule="evenodd" clip-rule="evenodd" d="M60.9238 94.2511C65.13 99.0063 71.5639 101.207 77.8832 99.3883C84.1984 97.5746 88.7475 92.2144 90.1748 85.8411C86.2147 87.914 81.3096 89.8691 75.8928 91.4237C70.4754 92.9828 65.3165 93.9192 60.9238 94.2511Z" fill="url(#paint1_linear_530_15448)"/>
<path fill-rule="evenodd" clip-rule="evenodd" d="M56.7941 86.3241C57.2303 88.2785 58.0349 90.0517 59.0052 91.6469C63.4269 91.3245 68.6324 90.3837 74.1047 88.8107C80.6023 86.9424 86.3667 84.5008 90.6408 81.9737C90.6786 80.255 90.4921 78.5001 90.0559 76.7592C86.6719 63.2076 65.3246 44.4326 53.7614 45.8143L46.2093 60.0431C44.8838 62.5392 47.9138 60.5392 50.9128 58.5385C53.0601 57.1068 55.1916 55.675 55.6971 55.893C64.4988 59.6706 54.1087 74.3677 56.7941 86.3241Z" fill="white"/>
<path fill-rule="evenodd" clip-rule="evenodd" d="M71.576 74.1313C66.5529 75.5726 61.9359 77.2863 58.0396 79.0823C58.5307 81.714 58.4415 84.7644 56.7941 86.3241C56.7941 86.3241 55.8071 84.7238 55.4091 80.3595C49.0176 83.6462 45.2013 87.0558 45.807 89.4834C46.832 93.5747 60.0217 93.334 75.274 88.9513C90.5263 84.5648 102.06 77.6911 101.039 73.5998C100.446 71.2222 95.7489 70.3036 88.9255 70.813C90.0305 74.3588 90.0559 76.7592 90.0559 76.7592C88.3111 75.6955 87.1376 73.3356 86.4854 71.0493C82.0637 71.5542 76.9468 72.5856 71.576 74.1313Z" fill="white"/>
<path d="M86.3952 93.6989C86.6165 93.4258 86.8314 93.1452 87.0374 92.8595C87.0386 92.8582 87.0392 92.8576 87.0403 92.8563C86.8332 93.1439 86.6177 93.4246 86.3952 93.6989Z" fill="#E8E8E8"/>
<path d="M85.8281 85.2969C85.8618 85.2829 85.896 85.269 85.9296 85.2551V85.2544C85.896 85.269 85.8618 85.2829 85.8281 85.2969Z" fill="#D1D1D1"/>
<path d="M46.209 60.043L47.0603 58.4338C47.062 58.4326 47.0636 58.4313 47.0652 58.43L46.209 60.043Z" fill="#D1D1D1"/>
<path d="M88.6496 72.8242C86.978 69.153 84.2959 65.2948 81.0707 61.6781C84.2959 65.2942 86.9786 69.153 88.6496 72.8242ZM81.0524 61.6578C81.0518 61.6565 81.0494 61.654 81.0488 61.6534C81.05 61.6546 81.0512 61.6565 81.0524 61.6578Z" fill="white"/>
<path d="M100.492 75.9375C101.011 75.1038 101.21 74.3252 101.046 73.6264C101.212 74.3246 101.013 75.1032 100.492 75.9375ZM89.6754 73.7531C89.5101 72.9074 89.2687 71.9166 88.9258 70.8117C89.2699 71.9159 89.509 72.9086 89.676 73.7531C89.6754 73.7531 89.6754 73.7531 89.6754 73.7531Z" fill="white"/>
<path d="M46.3344 70.543L46.3328 70.5417L46.1972 69.9785L46.3344 70.543Z" fill="white"/>
<path d="M99.0905 89.2958C99.0905 89.2952 99.0905 89.2952 99.0905 89.2952L99.1796 88.464L99.0905 89.2958Z" fill="white"/>
</g>
<defs>
<filter id="filter0_dd_530_15448" x="13.3003" y="21.4093" width="120.247" height="119.169" filterUnits="userSpaceOnUse" color-interpolation-filters="sRGB">
<feFlood flood-opacity="0" result="BackgroundImageFix"/>
<feColorMatrix in="SourceAlpha" type="matrix" values="0 0 0 0 0 0 0 0 0 0 0 0 0 0 0 0 0 0 127 0" result="hardAlpha"/>
<feOffset dy="10.1387"/>
<feGaussianBlur stdDeviation="4.05548"/>
<feComposite in2="hardAlpha" operator="out"/>
<feColorMatrix type="matrix" values="0 0 0 0 0 0 0 0 0 0 0 0 0 0 0 0 0 0 0.25 0"/>
<feBlend mode="normal" in2="BackgroundImageFix" result="effect1_dropShadow_530_15448"/>
<feColorMatrix in="SourceAlpha" type="matrix" values="0 0 0 0 0 0 0 0 0 0 0 0 0 0 0 0 0 0 127 0" result="hardAlpha"/>
<feOffset dy="8.11097"/>
<feGaussianBlur stdDeviation="16.2219"/>
<feComposite in2="hardAlpha" operator="out"/>
<feColorMatrix type="matrix" values="0 0 0 0 1 0 0 0 0 1 0 0 0 0 1 0 0 0 0.2 0"/>
<feBlend mode="normal" in2="effect1_dropShadow_530_15448" result="effect2_dropShadow_530_15448"/>
<feBlend mode="normal" in="SourceGraphic" in2="effect2_dropShadow_530_15448" result="shape"/>
</filter>
<radialGradient id="paint0_radial_530_15448" cx="0" cy="0" r="1" gradientUnits="userSpaceOnUse" gradientTransform="translate(73.7905 73.7905) rotate(90) scale(73.7905)">
<stop stop-color="white"/>
<stop offset="1" stop-color="white" stop-opacity="0.2"/>
</radialGradient>
<linearGradient id="paint1_linear_530_15448" x1="72.3114" y1="90.2964" x2="75.9782" y2="99.859" gradientUnits="userSpaceOnUse">
<stop stop-color="white"/>
<stop offset="1" stop-color="#FFFFCC" stop-opacity="0.121569"/>
</linearGradient>
</defs>
</svg>
