<svg width="117" height="48" viewBox="0 0 117 48" fill="none" xmlns="http://www.w3.org/2000/svg">
<g clip-path="url(#clip0_395_6287)">
<path d="M37.6464 21.4076C37.6464 19.346 35.5848 17.1469 32.1488 17.1469C28.3004 17.1469 23.9023 20.0332 23.2151 25.8057C22.5279 31.5782 26.1014 34.1896 29.8123 34.1896C33.5232 34.1896 35.3099 32.8152 37.2341 30.891C35.5848 28.8294 33.3857 29.7915 32.9734 29.9289C32.5611 30.2038 31.8739 30.4787 30.7744 30.4787C29.4 30.4787 27.8881 29.7915 27.8881 27.1801C36.9592 26.218 37.6464 23.4692 37.6464 21.4076ZM33.2483 21.6825C33.2483 22.3697 32.9734 23.4692 28.4379 24.019C29.4 20.5829 31.1867 20.3081 32.0113 20.3081C32.836 20.4455 33.2483 20.9953 33.2483 21.6825ZM17.9924 22.2322C17.9924 22.2322 16.0682 28.2796 15.9308 28.8294C15.9308 28.2796 14.4189 17.4218 14.4189 17.4218C11.1203 17.4218 9.33361 19.7583 8.50897 22.2322C8.50897 22.2322 6.17247 28.2796 6.03503 28.8294C5.89759 28.4171 5.62271 22.3697 5.62271 22.3697C5.34783 19.346 2.59902 17.4218 0.399963 17.4218L3.14878 33.9147C6.5848 33.9147 8.50897 31.5782 9.47105 29.1043C9.47105 29.1043 11.5327 23.7441 11.6701 23.4692C11.6701 23.7441 13.182 33.9147 13.182 33.9147C16.618 33.9147 18.5421 31.7156 19.5042 29.3791L24.3147 17.4218C20.7412 17.4218 18.9545 19.7583 17.9924 22.2322ZM50.4284 17.0095C48.3668 17.0095 46.7175 18.109 45.3431 19.8957L46.4426 10C43.5564 10 41.3573 12.4739 40.8075 16.0474L38.6085 33.7772C40.2578 33.7772 41.9071 33.3649 42.8692 32.128C43.6938 33.2275 44.9308 34.0521 46.7175 34.0521C51.5279 34.0521 54.8265 28.5545 54.8265 23.3318C54.9639 18.5213 52.6275 17.0095 50.4284 17.0095ZM49.8786 25.5308C49.3289 28.4171 47.817 30.3412 46.1677 30.3412C44.6559 30.3412 43.9687 29.654 43.9687 29.654C44.2436 27.1801 44.5184 25.5308 45.0682 24.1564C45.618 22.782 46.9924 20.7204 48.3668 20.7204C49.7412 20.8578 50.4284 22.6446 49.8786 25.5308ZM66.9213 17.4218H63.6227V17.2844C63.8976 15.0853 64.3099 13.9858 66.0966 13.8483C67.1962 13.7109 67.7459 13.1611 67.8834 12.4739C68.0208 11.9242 68.2957 10.1374 68.2957 10.1374C61.5611 10.1374 59.4995 13.0237 58.9497 17.4218V17.5592H58.8123C57.7128 17.5592 56.4758 18.7962 56.3384 20.3081L56.2009 20.8578H58.4L56.4758 36.2512L55.926 39C56.0635 39 56.0635 39 56.2009 39C59.362 38.8626 61.2862 36.3886 61.836 32.8152L63.3478 20.7204H64.4473C65.4094 20.7204 66.6464 19.7583 66.9213 17.9716V17.4218ZM84.2388 17.1469C80.3905 17.1469 76.817 20.0332 75.7175 24.4313C74.618 28.8294 76.2673 34.1896 81.9023 34.1896C87.5374 34.1896 90.836 28.6919 90.836 24.1564C90.6985 19.6209 87.6748 17.1469 84.2388 17.1469ZM85.7507 25.3934C85.6132 27.455 84.6511 30.4787 82.1772 30.4787C79.7033 30.4787 80.1156 26.9052 80.253 25.2559C80.5279 23.4692 81.49 20.8578 83.6891 20.8578C85.7507 20.8578 86.0256 23.1943 85.7507 25.3934ZM109.803 22.2322C109.803 22.2322 107.879 28.2796 107.741 28.8294C107.741 28.2796 106.229 17.4218 106.229 17.4218C102.931 17.4218 101.144 19.7583 100.319 22.2322C100.319 22.2322 97.9829 28.2796 97.8455 28.8294C97.8455 28.4171 97.4331 22.3697 97.4331 22.3697C97.2957 19.346 94.4094 17.5592 92.2104 17.5592L94.9592 34.0521C98.3952 34.0521 100.319 31.7156 101.281 29.2417C101.281 29.2417 103.343 23.8815 103.481 23.6066C103.481 23.8815 104.992 34.0521 104.992 34.0521C108.428 34.0521 110.353 31.8531 111.315 29.5166L115.85 17.4218C112.414 17.4218 110.627 19.7583 109.803 22.2322ZM70.0824 10.1374L67.3336 32.6777L66.7839 35.4265C66.9213 35.4265 66.9213 35.4265 67.0587 35.4265C70.0824 35.4265 72.2815 32.6777 72.5564 29.3791L74.2057 16.4597C74.618 12.6114 72.144 10.1374 70.0824 10.1374Z" fill="white"/>
</g>
<defs>
<clipPath id="clip0_395_6287">
<rect width="116" height="48" fill="white" transform="translate(0.399963)"/>
</clipPath>
</defs>
</svg>
