<svg width="121" height="31" viewBox="0 0 121 31" fill="none" xmlns="http://www.w3.org/2000/svg">
<g clip-path="url(#clip0_484_9921)">
<path d="M38.1235 24.4245L39.5917 20.993C41.1991 22.1835 43.2958 22.8135 45.393 22.8135C46.9307 22.8135 47.9092 22.2186 47.9092 21.3083C47.8741 18.7871 38.6478 20.7479 38.5777 14.4093C38.5426 11.1879 41.4086 8.70176 45.4631 8.70176C47.8741 8.70176 50.286 9.29722 51.9982 10.6631L50.6264 14.1677C49.051 13.1547 47.1052 12.4485 45.2531 12.4485C43.995 12.4485 43.1559 13.0435 43.1559 13.8144C43.191 16.3005 52.4879 14.9346 52.5927 20.993C52.5927 24.2847 49.7963 26.5958 45.812 26.5958C42.8768 26.5958 40.1856 25.8956 38.123 24.4245H38.1235ZM96.5816 19.7505C96.211 20.4089 95.6719 20.9569 95.0197 21.3383C94.3675 21.7197 93.6255 21.9208 92.8699 21.9208C90.5151 21.9208 88.6064 20.0081 88.6064 17.6488C88.6064 15.2895 90.5151 13.3768 92.8699 13.3768C93.6255 13.3768 94.3675 13.5779 95.0197 13.9593C95.6719 14.3407 96.211 14.8887 96.5816 15.5471L100.663 13.2815C99.1344 10.5493 96.2182 8.70176 92.8699 8.70176C87.9383 8.70176 83.9404 12.7071 83.9404 17.6488C83.9404 22.59 87.9383 26.5958 92.8699 26.5958C96.2182 26.5958 99.1344 24.7483 100.663 22.0161L96.5816 19.7505ZM55.2412 26.2455H60.3438V1.25391H55.2417L55.2412 26.2455ZM103.24 1.25391V26.2455H108.343V18.758L114.389 26.2455H120.911L113.222 17.3506L120.352 9.05062H114.109L108.343 15.9511V1.25391H103.24ZM76.064 9.05162V11.0831C75.2255 9.68217 73.1634 8.70176 70.9965 8.70176C66.523 8.70176 62.9933 12.659 62.9933 17.6313C62.9933 22.6035 66.523 26.5958 70.9965 26.5958C73.1634 26.5958 75.2255 25.6154 76.064 24.2145V26.2455H81.1666V9.05162H76.064ZM76.064 19.7851C75.3302 21.0106 73.7924 21.9203 72.0802 21.9203C69.7249 21.9203 67.8162 20.0081 67.8162 17.6488C67.8162 15.2895 69.7249 13.3768 72.0802 13.3768C73.7924 13.3768 75.3302 14.3221 76.064 15.5822V19.7851Z" fill="white"/>
<path d="M11.1773 0.703125C9.52369 0.703125 8.18339 2.04643 8.18339 3.70302C8.183 4.09657 8.26012 4.48635 8.41036 4.8501C8.56061 5.21385 8.78102 5.54445 9.05903 5.82302C9.33704 6.10158 9.66719 6.32266 10.0306 6.47363C10.3941 6.62461 10.7837 6.70251 11.1773 6.70291H14.1716V3.70302C14.1723 2.90815 13.8572 2.14556 13.2957 1.58299C12.7341 1.02041 11.9721 0.703922 11.1773 0.703125V0.703125ZM11.1773 8.70284H3.1931C1.53952 8.70284 0.199219 10.0461 0.199219 11.7032C0.199219 13.3598 1.53952 14.7031 3.1931 14.7031H11.1778C12.8308 14.7031 14.1716 13.3598 14.1716 11.7032C14.1716 10.0461 12.8308 8.70284 11.1773 8.70284" fill="white"/>
<path d="M30.1404 11.7032C30.1404 10.0461 28.7996 8.70284 27.146 8.70284C25.4924 8.70284 24.1521 10.0461 24.1521 11.7032V14.7031H27.146C27.9409 14.7023 28.7029 14.3858 29.2644 13.8233C29.826 13.2607 30.1411 12.4981 30.1404 11.7032V11.7032ZM22.1562 11.7032V3.70302C22.1569 2.90815 21.8418 2.14556 21.2803 1.58299C20.7187 1.02041 19.9567 0.703922 19.1618 0.703125C17.5083 0.703125 16.168 2.04643 16.168 3.70302V11.7027C16.168 13.3603 17.5083 14.7036 19.1618 14.7036C19.9567 14.7028 20.7187 14.3863 21.2803 13.8238C21.8418 13.2612 22.1569 12.4986 22.1562 11.7037" fill="white"/>
<path d="M19.1618 30.7031C19.9567 30.7023 20.7187 30.3858 21.2803 29.8233C21.8418 29.2607 22.1569 28.4981 22.1562 27.7032C22.1569 26.9084 21.8418 26.1458 21.2803 25.5832C20.7187 25.0206 19.9567 24.7041 19.1618 24.7033H16.168V27.7032C16.168 29.3598 17.5083 30.7031 19.1618 30.7031ZM19.1618 22.7034H27.1465C28.7996 22.7034 30.1404 21.3601 30.1404 19.703C30.1411 18.9081 29.826 18.1456 29.2644 17.583C28.7029 17.0204 27.9409 16.7039 27.146 16.7031H19.1618C17.5083 16.7031 16.168 18.0464 16.168 19.703C16.1676 20.0966 16.2447 20.4864 16.3949 20.8501C16.5452 21.2139 16.7656 21.5444 17.0436 21.823C17.3216 22.1016 17.6518 22.3227 18.0152 22.4736C18.3787 22.6246 18.7683 22.7025 19.1618 22.7029" fill="white"/>
<path d="M0.19922 19.703C0.198825 20.0966 0.275951 20.4864 0.426193 20.8501C0.576436 21.2139 0.796853 21.5444 1.07486 21.823C1.35287 22.1016 1.68302 22.3227 2.04647 22.4736C2.40992 22.6246 2.79954 22.7025 3.1931 22.7029C3.98797 22.7021 4.74997 22.3856 5.31151 21.823C5.87305 21.2605 6.18814 20.4979 6.18747 19.703V16.7031H3.1931C1.53952 16.7031 0.19922 18.0464 0.19922 19.703V19.703ZM8.18339 19.703V27.7027C8.18339 29.3598 9.5237 30.7031 11.1773 30.7031C11.9721 30.7023 12.7341 30.3858 13.2957 29.8233C13.8572 29.2607 14.1723 28.4981 14.1716 27.7032V19.703C14.172 19.3094 14.0949 18.9196 13.9446 18.5558C13.7944 18.192 13.5739 17.8614 13.2958 17.5828C13.0178 17.3043 12.6876 17.0832 12.3241 16.9323C11.9605 16.7813 11.5709 16.7035 11.1773 16.7031C9.5237 16.7031 8.18339 18.0464 8.18339 19.703Z" fill="white"/>
</g>
<defs>
<clipPath id="clip0_484_9921">
<rect width="120.712" height="30" fill="white" transform="translate(0.199219 0.703125)"/>
</clipPath>
</defs>
</svg>
