<svg width="76" height="75" viewBox="0 0 76 75" fill="none" xmlns="http://www.w3.org/2000/svg">
<g filter="url(#filter0_d_489_8496)">
<path d="M54.3368 38C54.3368 47.2047 46.8748 54.6666 37.6701 54.6666M54.3368 38C54.3368 28.7952 46.8748 21.3333 37.6701 21.3333M54.3368 38H21.0034M37.6701 54.6666C28.4653 54.6666 21.0034 47.2047 21.0034 38M37.6701 54.6666C41.8389 50.1027 44.208 44.1799 44.3368 38C44.208 31.82 41.8389 25.8972 37.6701 21.3333M37.6701 54.6666C33.5013 50.1027 31.1322 44.1799 31.0034 38C31.1322 31.82 33.5013 25.8972 37.6701 21.3333M21.0034 38C21.0034 28.7952 28.4653 21.3333 37.6701 21.3333" stroke="white" stroke-width="2.5" stroke-linecap="round" stroke-linejoin="round" shape-rendering="crispEdges"/>
</g>
<defs>
<filter id="filter0_d_489_8496" x="-10.2466" y="-9.91669" width="95.8335" height="95.8333" filterUnits="userSpaceOnUse" color-interpolation-filters="sRGB">
<feFlood flood-opacity="0" result="BackgroundImageFix"/>
<feColorMatrix in="SourceAlpha" type="matrix" values="0 0 0 0 0 0 0 0 0 0 0 0 0 0 0 0 0 0 127 0" result="hardAlpha"/>
<feOffset/>
<feGaussianBlur stdDeviation="15"/>
<feComposite in2="hardAlpha" operator="out"/>
<feColorMatrix type="matrix" values="0 0 0 0 1 0 0 0 0 1 0 0 0 0 1 0 0 0 0.28 0"/>
<feBlend mode="normal" in2="BackgroundImageFix" result="effect1_dropShadow_489_8496"/>
<feBlend mode="normal" in="SourceGraphic" in2="effect1_dropShadow_489_8496" result="shape"/>
</filter>
</defs>
</svg>
