<svg width="21" height="20" viewBox="0 0 21 20" fill="none" xmlns="http://www.w3.org/2000/svg">
<g clip-path="url(#clip0_128_81)">
<path d="M20.4722 10.2302C20.4722 9.55044 20.4171 8.86699 20.2995 8.19824H10.8672V12.0491H16.2686C16.0445 13.291 15.3243 14.3897 14.2697 15.0878V17.5864H17.4922C19.3846 15.8448 20.4722 13.2726 20.4722 10.2302Z" fill="#4285F4"/>
<path d="M10.8659 20.0008C13.563 20.0008 15.8375 19.1152 17.4946 17.5867L14.2721 15.088C13.3756 15.698 12.2181 16.0434 10.8696 16.0434C8.26076 16.0434 6.04874 14.2833 5.25506 11.917H1.92969V14.4928C3.62728 17.8696 7.08493 20.0008 10.8659 20.0008Z" fill="#34A853"/>
<path d="M5.25264 11.9172C4.83375 10.6753 4.83375 9.33044 5.25264 8.08848V5.5127H1.93094C0.512604 8.33834 0.512604 11.6674 1.93094 14.493L5.25264 11.9172Z" fill="#FBBC04"/>
<path d="M10.8659 3.95805C12.2916 3.936 13.6695 4.47247 14.7021 5.45722L17.5571 2.60218C15.7493 0.904587 13.3499 -0.0287217 10.8659 0.000673888C7.08493 0.000673888 3.62728 2.13185 1.92969 5.51234L5.25138 8.08813C6.04139 5.71811 8.25708 3.95805 10.8659 3.95805Z" fill="#EA4335"/>
</g>
<defs>
<clipPath id="clip0_128_81">
<rect width="20" height="20" fill="white" transform="translate(0.666016)"/>
</clipPath>
</defs>
</svg>
