<svg width="52" height="52" viewBox="0 0 52 52" fill="none" xmlns="http://www.w3.org/2000/svg">
<g filter="url(#filter0_b_530_15470)">
<rect x="0.728516" y="0.863281" width="50.8238" height="50.8238" rx="25.4119" fill="white" fill-opacity="0.2"/>
<rect x="0.972861" y="1.10763" width="50.3351" height="50.3351" rx="25.1675" stroke="white" stroke-opacity="0.2" stroke-width="0.48869"/>
<rect x="8.54688" y="8.68359" width="35.1857" height="35.1857" rx="17.5928" fill="white"/>
<rect x="8.79122" y="8.92794" width="34.697" height="34.697" rx="17.3485" stroke="white" stroke-opacity="0.1" stroke-width="0.48869"/>
<g opacity="0.6">
<path fill-rule="evenodd" clip-rule="evenodd" d="M30.5569 18.5375C29.7926 17.6508 28.542 17.234 27.296 17.8287C25.8473 18.52 25.2138 20.1801 25.8283 21.6384C26.1375 22.372 26.9739 23.7099 27.5254 24.5668C27.5297 24.5735 27.5339 24.5801 27.5382 24.5868C27.6313 24.7315 27.7252 24.8774 27.8168 24.9969C27.9205 25.1322 28.0527 25.2768 28.2401 25.3935C28.5049 25.5583 28.8244 25.6439 29.1362 25.6336C29.3568 25.6263 29.5436 25.5671 29.7011 25.5018C29.8401 25.4441 29.9944 25.3647 30.1474 25.2859C30.1544 25.2823 30.1614 25.2786 30.1685 25.275C31.0745 24.8087 32.4678 24.0682 33.1023 23.5875C34.3546 22.6388 34.6721 20.8775 33.73 19.5454C32.937 18.4241 31.6603 18.1517 30.5569 18.5375Z" fill="black"/>
<path d="M30.6953 29.382C30.6953 30.0136 30.2776 30.5477 29.7018 30.7263L30.072 30.7091C30.4767 30.7091 30.8701 30.5818 31.1934 30.3455L33.4513 28.6982C34.0148 28.2873 34.8035 28.3419 35.3016 28.8264C35.8549 29.3646 35.8549 30.2364 35.3016 30.7736L33.3644 32.6582C32.8429 33.1654 32.1775 33.5118 31.4542 33.6527L28.716 34.1854C28.173 34.2909 27.6133 34.2781 27.0759 34.1472L24.5994 33.5454C24.3032 33.4727 23.9994 33.4363 23.6938 33.4363C23.3694 33.4363 23.2072 33.4363 23.077 33.3899C22.8516 33.3094 22.6742 33.132 22.5937 32.9065C22.5473 32.7764 22.5473 32.6142 22.5473 32.2897V29.5528C22.5473 29.3247 22.5473 29.2106 22.5765 29.1055C22.6025 29.0124 22.6451 28.9248 22.7024 28.8469C22.7671 28.759 22.8568 28.6886 23.0364 28.5479L23.9826 27.806C23.9826 27.806 25.5508 27.0728 26.4171 27.0728C26.7759 27.0728 27.1329 27.1164 27.4815 27.2029L29.6234 27.7353C30.2533 27.8915 30.6953 28.4546 30.6953 29.1004V29.382Z" fill="black"/>
<path fill-rule="evenodd" clip-rule="evenodd" d="M19.3336 27.0728C19.3406 27.0728 19.3477 27.0728 19.3547 27.0728C19.3618 27.0728 19.3688 27.0728 19.3758 27.0728C19.5435 27.0727 19.7068 27.0727 19.8457 27.0822C19.9977 27.0926 20.1779 27.1169 20.3646 27.1943C20.7558 27.3563 21.0665 27.667 21.2285 28.0582C21.3059 28.245 21.3302 28.4251 21.3406 28.5771C21.3501 28.716 21.3501 28.8793 21.3501 29.047C21.3501 29.054 21.3501 29.061 21.3501 29.0681L21.3501 33.0799C21.3501 33.2475 21.3501 33.4109 21.3406 33.5498C21.3302 33.7017 21.3059 33.8819 21.2285 34.0687C21.0665 34.4598 20.7558 34.7706 20.3646 34.9326C20.1778 35.01 19.9977 35.0343 19.8457 35.0447C19.7068 35.0541 19.5435 35.0541 19.3758 35.0541H19.3336C19.1659 35.0541 19.0026 35.0541 18.8637 35.0447C18.7117 35.0343 18.5316 35.01 18.3448 34.9326C17.9537 34.7706 17.6429 34.4598 17.4809 34.0687C17.4035 33.8819 17.3792 33.7017 17.3688 33.5498C17.3593 33.4109 17.3594 33.2475 17.3594 33.0799L17.3594 29.0681C17.3594 29.061 17.3594 29.054 17.3594 29.047C17.3594 28.8793 17.3593 28.716 17.3688 28.5771C17.3792 28.4251 17.4035 28.245 17.4809 28.0582C17.6429 27.667 17.9537 27.3563 18.3448 27.1943C18.5316 27.1169 18.7117 27.0926 18.8637 27.0822C19.0026 27.0727 19.1659 27.0727 19.3336 27.0728Z" fill="black"/>
</g>
</g>
<defs>
<filter id="filter0_b_530_15470" x="-4.15838" y="-4.02362" width="60.598" height="60.598" filterUnits="userSpaceOnUse" color-interpolation-filters="sRGB">
<feFlood flood-opacity="0" result="BackgroundImageFix"/>
<feGaussianBlur in="BackgroundImageFix" stdDeviation="2.44345"/>
<feComposite in2="SourceAlpha" operator="in" result="effect1_backgroundBlur_530_15470"/>
<feBlend mode="normal" in="SourceGraphic" in2="effect1_backgroundBlur_530_15470" result="shape"/>
</filter>
</defs>
</svg>
