<svg width="400" height="275" viewBox="0 0 400 275" fill="none" xmlns="http://www.w3.org/2000/svg">
<g clip-path="url(#clip0_530_14876)">
<g opacity="0.3" filter="url(#filter0_f_530_14876)">
<g clip-path="url(#clip1_530_14876)">
<rect width="805.232" height="734" rx="24.7764" fill="white" fill-opacity="0.06"/>
<rect width="805.232" height="734" rx="24.7764" fill="white" fill-opacity="0.02"/>
<mask id="path-2-inside-1_530_14876" fill="white">
<path d="M0 0H805.232V80.5232H0V0Z"/>
</mask>
<path d="M805.232 79.4909H0V81.5555H805.232V79.4909Z" fill="#323232" mask="url(#path-2-inside-1_530_14876)"/>
<g clip-path="url(#clip2_530_14876)">
<path d="M60.51 41.7487C61.5849 41.7487 62.4664 42.6223 62.3591 43.6918C62.0263 47.0083 60.8459 50.1955 58.9169 52.9403C56.9878 55.685 54.3889 57.8753 51.3812 59.3118C50.4112 59.7751 49.2907 59.2416 48.9265 58.2302V58.2302C48.5624 57.2188 49.0946 56.1144 50.0527 55.627C52.3109 54.4783 54.264 52.7908 55.7321 50.702C57.2001 48.6131 58.1262 46.2038 58.4421 43.69C58.5761 42.6235 59.435 41.7487 60.51 41.7487V41.7487Z" fill="white"/>
<path opacity="0.8" d="M48.313 25.3194C48.6394 24.3167 49.722 23.7597 50.6871 24.1846C53.6798 25.502 56.2945 27.5709 58.2692 30.2038C60.2438 32.8367 61.4978 35.9262 61.9246 39.1681C62.0622 40.2136 61.2243 41.0969 60.1703 41.1294V41.1294C59.1163 41.162 58.2476 40.3302 58.0839 39.2885C57.698 36.8331 56.7169 34.4988 55.2141 32.4951C53.7113 30.4913 51.7451 28.8959 49.4961 27.8379C48.5418 27.389 47.9866 26.3222 48.313 25.3194V25.3194Z" fill="white"/>
<path opacity="0.5" d="M29.0962 31.553C28.2433 30.9328 28.048 29.7311 28.7502 28.9444C30.9277 26.5051 33.7032 24.6574 36.8174 23.5927C39.9315 22.528 43.2572 22.2897 46.4724 22.8853C47.5092 23.0774 48.0905 24.1472 47.7959 25.1597V25.1597C47.5012 26.1723 46.4418 26.7415 45.4004 26.5754C42.946 26.1839 40.4228 26.3958 38.0528 27.2061C35.6828 28.0164 33.558 29.3936 31.8569 31.2058C31.1352 31.9747 29.9491 32.1732 29.0962 31.553V31.553Z" fill="white"/>
<path d="M29.0863 51.755C28.2328 52.3744 27.0296 52.1887 26.4985 51.2777C24.8516 48.4529 23.9522 45.2422 23.9021 41.9515C23.8521 38.6608 24.6534 35.4242 26.2135 32.5506C26.7167 31.6239 27.9138 31.4017 28.7856 31.9949V31.9949C29.6575 32.5881 29.8714 33.7715 29.3916 34.7106C28.2606 36.9239 27.6824 39.389 27.7205 41.8934C27.7586 44.3978 28.4116 46.8442 29.6093 49.0221C30.1175 49.9461 29.9397 51.1356 29.0863 51.755V51.755Z" fill="white" fill-opacity="0.1"/>
<path d="M48.3017 58.0038C48.6275 59.0067 48.0795 60.0939 47.049 60.3179C43.8538 61.0124 40.5223 60.8768 37.3768 59.9087C34.2313 58.9405 31.4001 57.1793 29.1484 54.8083C28.4223 54.0437 28.5805 52.8365 29.4138 52.1903V52.1903C30.2471 51.5441 31.4388 51.7059 32.1839 52.4522C33.94 54.2111 36.1063 55.5221 38.5002 56.2589C40.894 56.9957 43.4226 57.1297 45.8638 56.6627C46.8995 56.4645 47.976 57.0008 48.3017 58.0038V58.0038Z" fill="white" fill-opacity="0.1"/>
<path d="M38.3833 39.8893C38.4177 39.8962 38.4487 39.8996 38.4762 39.8996C38.5107 39.8996 38.5451 39.8996 38.5795 39.8996H38.7653C38.9511 39.8996 39.1266 39.8755 39.2918 39.8274C39.4639 39.7723 39.6118 39.6966 39.7357 39.6002C39.8665 39.497 39.9697 39.3697 40.0454 39.2183C40.1211 39.0669 40.159 38.8948 40.159 38.7021C40.159 38.3098 40.0351 38.0173 39.7873 37.8246C39.5396 37.625 39.2299 37.5252 38.8582 37.5252C38.6242 37.5252 38.4177 37.57 38.2388 37.6594C38.0667 37.742 37.9222 37.8556 37.8052 38.0001C37.6951 38.1446 37.6125 38.3132 37.5575 38.506C37.5024 38.6987 37.4749 38.9017 37.4749 39.115H36.5974C36.6111 38.764 36.6662 38.444 36.7625 38.155C36.8658 37.8659 37.0103 37.6181 37.1961 37.4117C37.382 37.2052 37.6125 37.0435 37.8878 36.9265C38.17 36.8095 38.4934 36.751 38.8582 36.751C39.1748 36.751 39.4673 36.7923 39.7357 36.8748C40.011 36.9505 40.2484 37.0675 40.448 37.2258C40.6476 37.3841 40.8025 37.5872 40.9126 37.8349C41.0296 38.0827 41.0881 38.3752 41.0881 38.7124C41.0881 39.0428 40.9917 39.3353 40.799 39.5899C40.6063 39.8446 40.3654 40.0373 40.0764 40.168V40.1887C40.5237 40.285 40.8541 40.4949 41.0674 40.8184C41.2877 41.1419 41.3978 41.5239 41.3978 41.9643C41.3978 42.3291 41.329 42.6526 41.1913 42.9347C41.0606 43.21 40.8816 43.4406 40.6545 43.6264C40.4274 43.8122 40.159 43.9533 39.8493 44.0497C39.5464 44.1391 39.223 44.1839 38.8789 44.1839C38.5072 44.1839 38.17 44.1323 37.8672 44.029C37.5643 43.9258 37.3062 43.7744 37.0929 43.5748C36.8795 43.3683 36.7144 43.1171 36.5974 42.8212C36.4873 42.5252 36.4356 42.188 36.4425 41.8095H37.32C37.3338 42.2843 37.4714 42.6732 37.733 42.976C37.9945 43.272 38.3765 43.4199 38.8789 43.4199C39.0922 43.4199 39.2952 43.389 39.4879 43.327C39.6807 43.2582 39.8493 43.1653 39.9938 43.0483C40.1383 42.9244 40.2519 42.7764 40.3345 42.6044C40.4239 42.4254 40.4687 42.2258 40.4687 42.0056C40.4687 41.7785 40.4274 41.5789 40.3448 41.4069C40.2622 41.2279 40.1521 41.0799 40.0144 40.9629C39.8768 40.8391 39.7116 40.7496 39.5189 40.6945C39.3331 40.6326 39.1301 40.6016 38.9098 40.6016C38.724 40.6016 38.5485 40.6119 38.3833 40.6326V39.8893Z" fill="white"/>
<path d="M44.7391 36.5238H45.4927L42.437 44.2355H41.6937L44.7391 36.5238ZM50.159 37.6491H47.2065L46.8142 39.7551L46.8349 39.7757C46.9932 39.5968 47.1962 39.466 47.444 39.3834C47.6986 39.294 47.9498 39.2492 48.1976 39.2492C48.5211 39.2492 48.8273 39.3009 49.1164 39.4041C49.4054 39.5073 49.6566 39.6656 49.87 39.879C50.0833 40.0854 50.252 40.347 50.3758 40.6636C50.4997 40.9733 50.5617 41.338 50.5617 41.7579C50.5617 42.0676 50.5066 42.3704 50.3965 42.6663C50.2932 42.9554 50.135 43.2135 49.9216 43.4406C49.7083 43.6677 49.4398 43.8501 49.1164 43.9877C48.7998 44.1185 48.4281 44.1839 48.0014 44.1839C47.6848 44.1839 47.3855 44.1391 47.1033 44.0497C46.828 43.9533 46.5837 43.8191 46.3703 43.647C46.157 43.4681 45.9884 43.2479 45.8645 42.9863C45.7406 42.7248 45.6752 42.4289 45.6683 42.0985H46.5458C46.5596 42.2843 46.6043 42.4598 46.68 42.625C46.7626 42.7833 46.8693 42.9244 47.0001 43.0483C47.1377 43.1653 47.296 43.2582 47.4749 43.327C47.6608 43.389 47.8638 43.4199 48.084 43.4199C48.2905 43.4199 48.4866 43.3855 48.6725 43.3167C48.8652 43.241 49.0303 43.1309 49.168 42.9863C49.3125 42.8418 49.4261 42.6629 49.5087 42.4495C49.5913 42.2293 49.6325 41.9746 49.6325 41.6856C49.6325 41.4447 49.5913 41.2245 49.5087 41.0249C49.433 40.8184 49.3228 40.6429 49.1783 40.4984C49.0338 40.347 48.8583 40.23 48.6518 40.1474C48.4522 40.0648 48.2286 40.0235 47.9808 40.0235C47.6917 40.0235 47.4336 40.0889 47.2065 40.2197C46.9863 40.3435 46.7901 40.5087 46.6181 40.7152L45.8645 40.6739L46.5458 36.8748H50.159V37.6491Z" fill="white" fill-opacity="0.4"/>
</g>
<path d="M82.682 24.8799H87.5382C88.521 24.8799 89.287 25.1207 89.8362 25.6025C90.395 26.0843 90.6745 26.7443 90.6745 27.5825C90.6745 28.2088 90.5299 28.7581 90.2409 29.2302C89.9614 29.7023 89.5086 30.0251 88.8823 30.1985V30.2274C89.181 30.2852 89.4219 30.3816 89.6049 30.5165C89.7976 30.6514 89.947 30.8152 90.053 31.0079C90.1686 31.191 90.2505 31.3981 90.2987 31.6294C90.3565 31.8606 90.3999 32.1015 90.4288 32.352C90.448 32.6025 90.4625 32.8579 90.4721 33.118C90.4818 33.3782 90.5058 33.6335 90.5444 33.884C90.5829 34.1345 90.6359 34.3754 90.7034 34.6067C90.7804 34.8283 90.8913 35.0258 91.0358 35.1992H89.5038C89.4074 35.0932 89.34 34.9487 89.3014 34.7656C89.2725 34.5826 89.2533 34.3802 89.2436 34.1586C89.234 33.9274 89.2244 33.6817 89.2147 33.4215C89.2051 33.1614 89.1762 32.906 89.128 32.6555C89.0895 32.405 89.0413 32.1689 88.9835 31.9473C88.9257 31.7161 88.8341 31.5186 88.7089 31.3548C88.5836 31.1813 88.4198 31.0464 88.2175 30.9501C88.0151 30.8441 87.7453 30.7911 87.4081 30.7911H84.055V35.1992H82.682V24.8799ZM86.9167 29.6349C87.2347 29.6349 87.5382 29.6108 87.8272 29.5626C88.1163 29.5144 88.3668 29.4229 88.5788 29.288C88.8004 29.1435 88.9738 28.9556 89.0991 28.7243C89.234 28.4834 89.3014 28.1751 89.3014 27.7993C89.3014 27.279 89.1569 26.8551 88.8678 26.5275C88.5788 26.1999 88.1115 26.0361 87.4659 26.0361H84.055V29.6349H86.9167ZM97.5623 30.7477C97.543 30.4587 97.4756 30.1841 97.3599 29.9239C97.2539 29.6638 97.1046 29.4422 96.9119 29.2591C96.7288 29.0664 96.5072 28.917 96.2471 28.811C95.9965 28.6954 95.7171 28.6376 95.4088 28.6376C95.0908 28.6376 94.8018 28.6954 94.5416 28.811C94.2911 28.917 94.0743 29.0664 93.8912 29.2591C93.7082 29.4518 93.5636 29.6782 93.4577 29.9384C93.3517 30.1889 93.289 30.4587 93.2698 30.7477H97.5623ZM98.7474 32.8289C98.5836 33.6672 98.2223 34.2983 97.6634 34.7223C97.1046 35.1462 96.4012 35.3582 95.5533 35.3582C94.9559 35.3582 94.4356 35.2618 93.9924 35.0691C93.5588 34.8764 93.1927 34.6067 92.894 34.2598C92.5953 33.9129 92.3689 33.4986 92.2147 33.0168C92.0702 32.5351 91.9883 32.0099 91.969 31.4415C91.969 30.873 92.0557 30.3527 92.2292 29.8806C92.4026 29.4084 92.6435 28.9989 92.9518 28.6521C93.2698 28.3052 93.6407 28.0354 94.0647 27.8427C94.4983 27.65 94.9704 27.5536 95.4811 27.5536C96.1459 27.5536 96.6951 27.6934 97.1287 27.9728C97.5719 28.2426 97.9236 28.5894 98.1837 29.0134C98.4535 29.4373 98.6366 29.8998 98.733 30.4009C98.8389 30.9019 98.8823 31.3788 98.863 31.8317H93.2698C93.2601 32.1593 93.2987 32.4724 93.3854 32.7711C93.4721 33.0602 93.6118 33.3203 93.8045 33.5516C93.9972 33.7732 94.2429 33.9515 94.5416 34.0863C94.8403 34.2212 95.192 34.2887 95.5967 34.2887C96.117 34.2887 96.5409 34.1682 96.8685 33.9274C97.2058 33.6865 97.4274 33.3203 97.5334 32.8289H98.7474ZM100.136 27.7271H101.293V28.8255H101.322C101.88 27.9776 102.685 27.5536 103.735 27.5536C104.198 27.5536 104.617 27.65 104.993 27.8427C105.368 28.0354 105.633 28.363 105.788 28.8255C106.038 28.4208 106.366 28.1077 106.77 27.8861C107.185 27.6644 107.638 27.5536 108.129 27.5536C108.505 27.5536 108.842 27.597 109.141 27.6837C109.449 27.7608 109.709 27.8861 109.921 28.0595C110.143 28.2329 110.311 28.4594 110.427 28.7388C110.552 29.0086 110.615 29.3362 110.615 29.7216V35.1992H109.386V30.2997C109.386 30.0684 109.367 29.8517 109.328 29.6493C109.29 29.447 109.218 29.2735 109.112 29.129C109.006 28.9748 108.856 28.8544 108.664 28.7677C108.481 28.681 108.24 28.6376 107.941 28.6376C107.334 28.6376 106.857 28.811 106.51 29.1579C106.163 29.5048 105.99 29.9673 105.99 30.5454V35.1992H104.761V30.2997C104.761 30.0588 104.737 29.8372 104.689 29.6349C104.651 29.4325 104.578 29.2591 104.472 29.1146C104.366 28.9604 104.222 28.8448 104.039 28.7677C103.865 28.681 103.639 28.6376 103.359 28.6376C103.003 28.6376 102.695 28.7099 102.434 28.8544C102.184 28.9989 101.977 29.1724 101.813 29.3747C101.659 29.577 101.543 29.789 101.466 30.0106C101.399 30.2226 101.365 30.4009 101.365 30.5454V35.1992H100.136V27.7271ZM119.078 35.1703C118.866 35.2956 118.572 35.3582 118.196 35.3582C117.878 35.3582 117.623 35.2715 117.43 35.098C117.247 34.915 117.155 34.6211 117.155 34.2164C116.818 34.6211 116.423 34.915 115.97 35.098C115.527 35.2715 115.045 35.3582 114.525 35.3582C114.188 35.3582 113.865 35.3197 113.557 35.2426C113.258 35.1655 112.998 35.0451 112.776 34.8813C112.554 34.7175 112.376 34.5055 112.241 34.2453C112.116 33.9755 112.053 33.6528 112.053 33.277C112.053 32.853 112.126 32.5062 112.27 32.2364C112.415 31.9666 112.603 31.7498 112.834 31.586C113.075 31.4126 113.345 31.2825 113.643 31.1958C113.952 31.1091 114.265 31.0368 114.583 30.979C114.92 30.9115 115.238 30.8634 115.537 30.8344C115.845 30.7959 116.115 30.7477 116.346 30.6899C116.577 30.6225 116.76 30.5309 116.895 30.4153C117.03 30.2901 117.097 30.1118 117.097 29.8806C117.097 29.6108 117.044 29.394 116.939 29.2302C116.842 29.0664 116.712 28.9411 116.548 28.8544C116.394 28.7677 116.216 28.7099 116.014 28.681C115.821 28.6521 115.628 28.6376 115.435 28.6376C114.915 28.6376 114.482 28.7388 114.135 28.9411C113.788 29.1338 113.6 29.5048 113.571 30.054H112.342C112.362 29.5915 112.458 29.2013 112.632 28.8833C112.805 28.5653 113.036 28.31 113.325 28.1173C113.614 27.915 113.942 27.7704 114.308 27.6837C114.684 27.597 115.084 27.5536 115.508 27.5536C115.845 27.5536 116.177 27.5777 116.505 27.6259C116.842 27.6741 117.146 27.7753 117.415 27.9294C117.685 28.0739 117.902 28.2811 118.066 28.5509C118.23 28.8207 118.312 29.1724 118.312 29.606V33.4504C118.312 33.7395 118.326 33.9515 118.355 34.0863C118.393 34.2212 118.509 34.2887 118.702 34.2887C118.808 34.2887 118.933 34.2646 119.078 34.2164V35.1703ZM117.083 31.3403C116.929 31.4559 116.727 31.5426 116.476 31.6005C116.225 31.6486 115.961 31.692 115.681 31.7305C115.411 31.7594 115.137 31.798 114.857 31.8461C114.578 31.8847 114.327 31.9521 114.106 32.0485C113.884 32.1448 113.701 32.2846 113.557 32.4676C113.422 32.6411 113.354 32.8819 113.354 33.1903C113.354 33.3926 113.393 33.566 113.47 33.7106C113.557 33.8455 113.663 33.9563 113.788 34.043C113.923 34.1297 114.077 34.1923 114.25 34.2309C114.424 34.2694 114.607 34.2887 114.799 34.2887C115.204 34.2887 115.551 34.2357 115.84 34.1297C116.129 34.0141 116.365 33.8744 116.548 33.7106C116.731 33.5371 116.866 33.3541 116.953 33.1614C117.04 32.959 117.083 32.7711 117.083 32.5977V31.3403ZM121.522 26.383H120.293V24.8799H121.522V26.383ZM120.293 27.7271H121.522V35.1992H120.293V27.7271ZM123.425 27.7271H124.581V28.9122H124.61C125.121 28.0065 125.93 27.5536 127.038 27.5536C127.529 27.5536 127.939 27.6211 128.267 27.756C128.594 27.8909 128.859 28.0788 129.061 28.3196C129.264 28.5605 129.403 28.8496 129.481 29.1868C129.567 29.5144 129.611 29.8806 129.611 30.2852V35.1992H128.382V30.1407C128.382 29.6782 128.247 29.3121 127.977 29.0423C127.708 28.7725 127.337 28.6376 126.865 28.6376C126.489 28.6376 126.161 28.6954 125.882 28.811C125.612 28.9267 125.386 29.0905 125.203 29.3024C125.019 29.5144 124.88 29.7649 124.783 30.054C124.697 30.3334 124.653 30.6417 124.653 30.979V35.1992H123.425V27.7271ZM132.757 26.383H131.528V24.8799H132.757V26.383ZM131.528 27.7271H132.757V35.1992H131.528V27.7271ZM134.66 27.7271H135.816V28.9122H135.845C136.355 28.0065 137.165 27.5536 138.273 27.5536C138.764 27.5536 139.174 27.6211 139.501 27.756C139.829 27.8909 140.094 28.0788 140.296 28.3196C140.499 28.5605 140.638 28.8496 140.715 29.1868C140.802 29.5144 140.845 29.8806 140.845 30.2852V35.1992H139.617V30.1407C139.617 29.6782 139.482 29.3121 139.212 29.0423C138.943 28.7725 138.572 28.6376 138.099 28.6376C137.724 28.6376 137.396 28.6954 137.117 28.811C136.847 28.9267 136.62 29.0905 136.437 29.3024C136.254 29.5144 136.115 29.7649 136.018 30.054C135.932 30.3334 135.888 30.6417 135.888 30.979V35.1992H134.66V27.7271ZM149.137 34.5633C149.137 35.787 148.857 36.7023 148.298 37.3093C147.739 37.9164 146.863 38.2199 145.668 38.2199C145.321 38.2199 144.965 38.1813 144.598 38.1042C144.242 38.0272 143.914 37.9019 143.616 37.7285C143.327 37.555 143.086 37.3286 142.893 37.0492C142.7 36.7698 142.594 36.4277 142.575 36.023H143.803C143.813 36.2446 143.881 36.4325 144.006 36.5867C144.141 36.7409 144.3 36.8661 144.483 36.9625C144.675 37.0588 144.883 37.1263 145.104 37.1648C145.326 37.213 145.538 37.2371 145.74 37.2371C146.145 37.2371 146.487 37.1648 146.766 37.0203C147.046 36.8854 147.277 36.6927 147.46 36.4422C147.643 36.2013 147.773 35.9074 147.85 35.5605C147.937 35.2137 147.98 34.8331 147.98 34.4188V33.9274H147.951C147.739 34.3899 147.417 34.7319 146.983 34.9535C146.559 35.1655 146.106 35.2715 145.625 35.2715C145.066 35.2715 144.579 35.1703 144.165 34.968C143.75 34.7656 143.404 34.4958 143.124 34.1586C142.845 33.8117 142.633 33.4119 142.488 32.959C142.353 32.4965 142.286 32.0099 142.286 31.4993C142.286 31.0561 142.344 30.6032 142.459 30.1407C142.575 29.6686 142.768 29.2446 143.037 28.8689C143.307 28.4834 143.664 28.1703 144.107 27.9294C144.55 27.6789 145.095 27.5536 145.74 27.5536C146.212 27.5536 146.646 27.6596 147.041 27.8716C147.436 28.0739 147.744 28.3823 147.966 28.7966H147.98V27.7271H149.137V34.5633ZM145.697 34.202C146.101 34.202 146.444 34.1201 146.723 33.9563C147.012 33.7828 147.243 33.5612 147.417 33.2914C147.59 33.012 147.715 32.6989 147.792 32.352C147.879 32.0051 147.923 31.6583 147.923 31.3114C147.923 30.9838 147.884 30.661 147.807 30.343C147.73 30.0251 147.605 29.7408 147.431 29.4903C147.267 29.2302 147.051 29.023 146.781 28.8689C146.511 28.7147 146.183 28.6376 145.798 28.6376C145.403 28.6376 145.066 28.7147 144.786 28.8689C144.507 29.0134 144.276 29.2109 144.093 29.4614C143.919 29.7119 143.789 30.001 143.702 30.3286C143.625 30.6562 143.587 30.9982 143.587 31.3548C143.587 31.692 143.62 32.0292 143.688 32.3665C143.755 32.7037 143.871 33.012 144.035 33.2914C144.199 33.5612 144.415 33.7828 144.685 33.9563C144.955 34.1201 145.292 34.202 145.697 34.202ZM160.085 30.1263C159.989 29.6541 159.787 29.288 159.478 29.0278C159.17 28.7677 158.756 28.6376 158.235 28.6376C157.792 28.6376 157.421 28.7195 157.122 28.8833C156.824 29.0471 156.583 29.2639 156.4 29.5337C156.226 29.8035 156.101 30.1166 156.024 30.4731C155.947 30.82 155.908 31.1813 155.908 31.5571C155.908 31.904 155.947 32.2412 156.024 32.5688C156.111 32.8964 156.241 33.1903 156.414 33.4504C156.588 33.7009 156.814 33.9033 157.093 34.0574C157.373 34.2116 157.705 34.2887 158.091 34.2887C158.698 34.2887 159.17 34.1297 159.507 33.8117C159.854 33.4938 160.066 33.0457 160.143 32.4676H161.4C161.266 33.3926 160.919 34.1056 160.36 34.6067C159.811 35.1077 159.059 35.3582 158.105 35.3582C157.537 35.3582 157.031 35.2667 156.588 35.0836C156.154 34.9005 155.788 34.6404 155.489 34.3031C155.2 33.9659 154.979 33.566 154.824 33.1036C154.68 32.6314 154.608 32.1159 154.608 31.5571C154.608 30.9982 154.68 30.4779 154.824 29.9962C154.969 29.5048 155.186 29.0808 155.475 28.7243C155.773 28.3582 156.144 28.0739 156.588 27.8716C157.031 27.6596 157.546 27.5536 158.134 27.5536C158.558 27.5536 158.953 27.6066 159.319 27.7126C159.695 27.809 160.023 27.9631 160.302 28.1751C160.591 28.3871 160.827 28.6569 161.01 28.9845C161.193 29.3024 161.309 29.683 161.357 30.1263H160.085ZM162.732 27.7271H163.888V29.3024H163.917C164.216 28.6954 164.582 28.2474 165.015 27.9583C165.449 27.6693 165.998 27.5344 166.663 27.5536V28.8544C166.171 28.8544 165.752 28.9218 165.405 29.0567C165.059 29.1916 164.779 29.3892 164.567 29.6493C164.355 29.9095 164.201 30.2274 164.105 30.6032C164.008 30.9693 163.96 31.3933 163.96 31.8751V35.1992H162.732V27.7271ZM172.522 30.7477C172.503 30.4587 172.436 30.1841 172.32 29.9239C172.214 29.6638 172.065 29.4422 171.872 29.2591C171.689 29.0664 171.467 28.917 171.207 28.811C170.957 28.6954 170.677 28.6376 170.369 28.6376C170.051 28.6376 169.762 28.6954 169.502 28.811C169.251 28.917 169.035 29.0664 168.851 29.2591C168.668 29.4518 168.524 29.6782 168.418 29.9384C168.312 30.1889 168.249 30.4587 168.23 30.7477H172.522ZM173.708 32.8289C173.544 33.6672 173.183 34.2983 172.624 34.7223C172.065 35.1462 171.361 35.3582 170.514 35.3582C169.916 35.3582 169.396 35.2618 168.953 35.0691C168.519 34.8764 168.153 34.6067 167.854 34.2598C167.556 33.9129 167.329 33.4986 167.175 33.0168C167.03 32.5351 166.948 32.0099 166.929 31.4415C166.929 30.873 167.016 30.3527 167.189 29.8806C167.363 29.4084 167.604 28.9989 167.912 28.6521C168.23 28.3052 168.601 28.0354 169.025 27.8427C169.458 27.65 169.931 27.5536 170.441 27.5536C171.106 27.5536 171.655 27.6934 172.089 27.9728C172.532 28.2426 172.884 28.5894 173.144 29.0134C173.414 29.4373 173.597 29.8998 173.693 30.4009C173.799 30.9019 173.843 31.3788 173.823 31.8317H168.23C168.22 32.1593 168.259 32.4724 168.346 32.7711C168.432 33.0602 168.572 33.3203 168.765 33.5516C168.957 33.7732 169.203 33.9515 169.502 34.0863C169.801 34.2212 170.152 34.2887 170.557 34.2887C171.077 34.2887 171.501 34.1682 171.829 33.9274C172.166 33.6865 172.388 33.3203 172.494 32.8289H173.708ZM175.993 31.5282C175.993 31.8751 176.036 32.2171 176.123 32.5543C176.219 32.8819 176.359 33.1758 176.542 33.436C176.735 33.6961 176.976 33.9033 177.265 34.0574C177.563 34.2116 177.91 34.2887 178.305 34.2887C178.72 34.2887 179.071 34.2068 179.36 34.043C179.649 33.8792 179.885 33.6672 180.068 33.4071C180.252 33.1373 180.382 32.8338 180.459 32.4965C180.545 32.1593 180.589 31.8172 180.589 31.4704C180.589 31.1042 180.545 30.7525 180.459 30.4153C180.372 30.0684 180.232 29.7649 180.04 29.5048C179.856 29.2446 179.616 29.0375 179.317 28.8833C179.018 28.7195 178.657 28.6376 178.233 28.6376C177.819 28.6376 177.467 28.7195 177.178 28.8833C176.889 29.0471 176.658 29.2639 176.484 29.5337C176.311 29.8035 176.185 30.1118 176.108 30.4587C176.031 30.8055 175.993 31.162 175.993 31.5282ZM181.774 35.1992H180.545V34.1875H180.517C180.314 34.6018 179.996 34.9005 179.563 35.0836C179.129 35.2667 178.652 35.3582 178.132 35.3582C177.554 35.3582 177.048 35.2522 176.614 35.0402C176.19 34.8283 175.834 34.544 175.545 34.1875C175.265 33.831 175.053 33.4167 174.909 32.9446C174.764 32.4724 174.692 31.9714 174.692 31.4415C174.692 30.9115 174.759 30.4105 174.894 29.9384C175.039 29.4662 175.251 29.0567 175.53 28.7099C175.819 28.3534 176.176 28.0739 176.6 27.8716C177.033 27.6596 177.534 27.5536 178.103 27.5536C178.296 27.5536 178.503 27.5729 178.724 27.6115C178.946 27.65 179.168 27.7174 179.389 27.8138C179.611 27.9005 179.818 28.021 180.011 28.1751C180.213 28.3196 180.382 28.5027 180.517 28.7243H180.545V24.8799H181.774V35.1992ZM184.965 26.383H183.736V24.8799H184.965V26.383ZM183.736 27.7271H184.965V35.1992H183.736V27.7271ZM188.573 27.7271H190.062V28.811H188.573V33.4504C188.573 33.5949 188.583 33.7106 188.602 33.7973C188.631 33.884 188.679 33.9515 188.747 33.9996C188.814 34.0478 188.906 34.0815 189.021 34.1008C189.147 34.1104 189.306 34.1153 189.498 34.1153H190.062V35.1992H189.123C188.805 35.1992 188.53 35.1799 188.299 35.1414C188.077 35.0932 187.894 35.0113 187.75 34.8957C187.615 34.7801 187.513 34.6163 187.446 34.4043C187.379 34.1923 187.345 33.9129 187.345 33.566V28.811H186.073V27.7271H187.345V25.4869H188.573V27.7271ZM192.178 32.8434C192.188 33.1132 192.251 33.3444 192.366 33.5371C192.482 33.7202 192.631 33.8696 192.814 33.9852C193.007 34.0912 193.219 34.1682 193.45 34.2164C193.691 34.2646 193.937 34.2887 194.187 34.2887C194.38 34.2887 194.582 34.2742 194.794 34.2453C195.006 34.2164 195.199 34.1634 195.372 34.0863C195.555 34.0093 195.705 33.8985 195.82 33.7539C195.936 33.5998 195.994 33.4071 195.994 33.1758C195.994 32.8579 195.873 32.617 195.633 32.4532C195.392 32.2894 195.088 32.1593 194.722 32.0629C194.366 31.957 193.975 31.8654 193.551 31.7883C193.127 31.7016 192.732 31.586 192.366 31.4415C192.01 31.2873 191.711 31.0753 191.47 30.8055C191.229 30.5358 191.109 30.16 191.109 29.6782C191.109 29.3024 191.191 28.9797 191.354 28.7099C191.528 28.4401 191.745 28.2233 192.005 28.0595C192.275 27.8861 192.573 27.7608 192.901 27.6837C193.238 27.597 193.571 27.5536 193.898 27.5536C194.322 27.5536 194.712 27.5922 195.069 27.6693C195.425 27.7367 195.739 27.862 196.008 28.045C196.288 28.2185 196.509 28.4594 196.673 28.7677C196.837 29.0664 196.933 29.4422 196.962 29.895H195.734C195.714 29.6541 195.652 29.4566 195.546 29.3024C195.44 29.1386 195.305 29.0086 195.141 28.9122C194.977 28.8159 194.794 28.7484 194.592 28.7099C194.399 28.6617 194.202 28.6376 193.999 28.6376C193.816 28.6376 193.628 28.6521 193.436 28.681C193.253 28.7099 193.084 28.7629 192.93 28.8399C192.776 28.9074 192.65 29.0037 192.554 29.129C192.458 29.2446 192.41 29.3988 192.41 29.5915C192.41 29.8035 192.482 29.9817 192.626 30.1263C192.781 30.2612 192.973 30.3768 193.204 30.4731C193.436 30.5598 193.696 30.6369 193.985 30.7044C194.274 30.7622 194.563 30.8248 194.852 30.8923C195.16 30.9597 195.459 31.0416 195.748 31.138C196.047 31.2343 196.307 31.3644 196.529 31.5282C196.76 31.6824 196.943 31.8799 197.078 32.1208C197.222 32.3616 197.295 32.6603 197.295 33.0168C197.295 33.4697 197.198 33.8455 197.006 34.1442C196.822 34.4429 196.577 34.6837 196.268 34.8668C195.97 35.0499 195.628 35.1751 195.242 35.2426C194.867 35.3197 194.491 35.3582 194.115 35.3582C193.701 35.3582 193.306 35.3148 192.93 35.2281C192.554 35.1414 192.222 35.0017 191.933 34.809C191.644 34.6067 191.412 34.3465 191.239 34.0285C191.065 33.7009 190.969 33.3059 190.95 32.8434H192.178Z" fill="white"/>
<g opacity="0.4">
<path d="M90.3999 55.0418C89.9952 55.5814 89.4941 55.9716 88.8968 56.2125C88.2994 56.4437 87.6972 56.5594 87.0901 56.5594C86.3193 56.5594 85.6304 56.4197 85.0234 56.1402C84.4164 55.8512 83.9009 55.4658 83.4769 54.984C83.053 54.5022 82.7302 53.9482 82.5086 53.3219C82.287 52.6956 82.1762 52.0453 82.1762 51.3708C82.1762 50.6192 82.2773 49.9062 82.4797 49.2318C82.6916 48.5477 83 47.9503 83.4047 47.4396C83.819 46.9289 84.3296 46.5243 84.9367 46.2256C85.5533 45.9172 86.2711 45.7631 87.0901 45.7631C87.649 45.7631 88.1741 45.8305 88.6655 45.9654C89.1665 46.0907 89.6098 46.293 89.9952 46.5724C90.3902 46.8519 90.7178 47.2084 90.978 47.6419C91.2478 48.0659 91.4308 48.5814 91.5272 49.1884H90.1542C90.0867 48.7934 89.9614 48.4561 89.7784 48.1767C89.5953 47.8876 89.3689 47.6516 89.0991 47.4685C88.8293 47.2854 88.521 47.1505 88.1741 47.0638C87.8369 46.9675 87.4756 46.9193 87.0901 46.9193C86.4639 46.9193 85.9243 47.0446 85.4714 47.2951C85.0282 47.5456 84.6621 47.878 84.373 48.2923C84.0936 48.697 83.8864 49.1643 83.7515 49.6943C83.6166 50.2146 83.5492 50.7493 83.5492 51.2985C83.5492 51.8381 83.6263 52.3584 83.7804 52.8594C83.9346 53.3508 84.161 53.7892 84.4597 54.1746C84.7584 54.5504 85.1245 54.8539 85.5581 55.0852C86.0014 55.3068 86.512 55.4176 87.0901 55.4176C87.6297 55.4176 88.1067 55.3309 88.521 55.1574C88.9353 54.984 89.2822 54.7479 89.5616 54.4493C89.8506 54.1409 90.0674 53.7844 90.212 53.3797C90.3565 52.9654 90.4191 52.5222 90.3999 52.0501H87.1046V50.8938H91.6283V56.3281H90.7612L90.3999 55.0418ZM94.3424 52.5993C94.3424 53.0521 94.4003 53.4568 94.5159 53.8133C94.6411 54.1602 94.8097 54.4541 95.0217 54.6949C95.2337 54.9262 95.4794 55.1044 95.7588 55.2297C96.0479 55.355 96.3514 55.4176 96.6694 55.4176C96.9873 55.4176 97.286 55.355 97.5654 55.2297C97.8545 55.1044 98.105 54.9262 98.317 54.6949C98.529 54.4541 98.6928 54.1602 98.8084 53.8133C98.9336 53.4568 98.9963 53.0521 98.9963 52.5993C98.9963 52.1464 98.9336 51.7466 98.8084 51.3997C98.6928 51.0432 98.529 50.7445 98.317 50.5036C98.105 50.2627 97.8545 50.0797 97.5654 49.9544C97.286 49.8291 96.9873 49.7665 96.6694 49.7665C96.3514 49.7665 96.0479 49.8291 95.7588 49.9544C95.4794 50.0797 95.2337 50.2627 95.0217 50.5036C94.8097 50.7445 94.6411 51.0432 94.5159 51.3997C94.4003 51.7466 94.3424 52.1464 94.3424 52.5993ZM93.0417 52.5993C93.0417 52.0501 93.1188 51.5394 93.2729 51.0673C93.4271 50.5855 93.6583 50.1712 93.9667 49.8243C94.275 49.4678 94.6556 49.1884 95.1084 48.9861C95.5613 48.7837 96.0816 48.6825 96.6694 48.6825C97.2667 48.6825 97.787 48.7837 98.2303 48.9861C98.6831 49.1884 99.0637 49.4678 99.372 49.8243C99.6804 50.1712 99.9116 50.5855 100.066 51.0673C100.22 51.5394 100.297 52.0501 100.297 52.5993C100.297 53.1485 100.22 53.6592 100.066 54.1313C99.9116 54.6034 99.6804 55.0177 99.372 55.3742C99.0637 55.7211 98.6831 55.9957 98.2303 56.198C97.787 56.3908 97.2667 56.4871 96.6694 56.4871C96.0816 56.4871 95.5613 56.3908 95.1084 56.198C94.6556 55.9957 94.275 55.7211 93.9667 55.3742C93.6583 55.0177 93.4271 54.6034 93.2729 54.1313C93.1188 53.6592 93.0417 53.1485 93.0417 52.5993ZM111.954 56.3281H110.798V55.143H110.769C110.509 55.6055 110.176 55.9475 109.771 56.1691C109.367 56.3811 108.89 56.4871 108.341 56.4871C107.849 56.4871 107.44 56.4245 107.112 56.2992C106.785 56.1643 106.52 55.9764 106.317 55.7356C106.115 55.4947 105.97 55.2104 105.884 54.8828C105.807 54.5456 105.768 54.1746 105.768 53.77V48.856H106.997V53.9145C106.997 54.377 107.131 54.7431 107.401 55.0129C107.671 55.2827 108.042 55.4176 108.514 55.4176C108.89 55.4176 109.213 55.3598 109.482 55.2442C109.762 55.1285 109.993 54.9647 110.176 54.7528C110.359 54.5408 110.494 54.2951 110.581 54.0157C110.677 53.7266 110.725 53.4135 110.725 53.0762V48.856H111.954V56.3281ZM113.799 48.856H114.955V50.0411H114.984C115.495 49.1354 116.304 48.6825 117.412 48.6825C117.904 48.6825 118.313 48.75 118.641 48.8849C118.968 49.0198 119.233 49.2077 119.436 49.4486C119.638 49.6894 119.778 49.9785 119.855 50.3157C119.941 50.6433 119.985 51.0095 119.985 51.4141V56.3281H118.756V51.2696C118.756 50.8071 118.621 50.441 118.352 50.1712C118.082 49.9014 117.711 49.7665 117.239 49.7665C116.863 49.7665 116.535 49.8243 116.256 49.94C115.986 50.0556 115.76 50.2194 115.577 50.4313C115.394 50.6433 115.254 50.8938 115.158 51.1829C115.071 51.4623 115.027 51.7706 115.027 52.1079V56.3281H113.799V48.856ZM121.902 46.0088H123.131V56.3281H121.902V46.0088ZM126.335 47.5119H125.106V46.0088H126.335V47.5119ZM125.106 48.856H126.335V56.3281H125.106V48.856ZM128.238 48.856H129.394V49.9544H129.423C129.982 49.1065 130.786 48.6825 131.836 48.6825C132.299 48.6825 132.718 48.7789 133.094 48.9716C133.47 49.1643 133.735 49.4919 133.889 49.9544C134.139 49.5497 134.467 49.2366 134.872 49.015C135.286 48.7934 135.739 48.6825 136.23 48.6825C136.606 48.6825 136.943 48.7259 137.242 48.8126C137.55 48.8897 137.81 49.015 138.022 49.1884C138.244 49.3618 138.413 49.5883 138.528 49.8677C138.653 50.1375 138.716 50.4651 138.716 50.8505V56.3281H137.488V51.4286C137.488 51.1974 137.468 50.9806 137.43 50.7782C137.391 50.5759 137.319 50.4024 137.213 50.2579C137.107 50.1037 136.958 49.9833 136.765 49.8966C136.582 49.8099 136.341 49.7665 136.042 49.7665C135.435 49.7665 134.958 49.94 134.611 50.2868C134.265 50.6337 134.091 51.0962 134.091 51.6743V56.3281H132.863V51.4286C132.863 51.1877 132.839 50.9661 132.79 50.7638C132.752 50.5614 132.68 50.388 132.574 50.2435C132.468 50.0893 132.323 49.9737 132.14 49.8966C131.967 49.8099 131.74 49.7665 131.461 49.7665C131.104 49.7665 130.796 49.8388 130.536 49.9833C130.285 50.1278 130.078 50.3013 129.914 50.5036C129.76 50.706 129.644 50.9179 129.567 51.1395C129.5 51.3515 129.466 51.5298 129.466 51.6743V56.3281H128.238V48.856ZM141.86 47.5119H140.632V46.0088H141.86V47.5119ZM140.632 48.856H141.86V56.3281H140.632V48.856ZM145.469 48.856H146.957V49.94H145.469V54.5793C145.469 54.7239 145.478 54.8395 145.498 54.9262C145.527 55.0129 145.575 55.0804 145.642 55.1285C145.71 55.1767 145.801 55.2104 145.917 55.2297C146.042 55.2393 146.201 55.2442 146.394 55.2442H146.957V56.3281H146.018C145.7 56.3281 145.425 56.3089 145.194 56.2703C144.973 56.2221 144.789 56.1402 144.645 56.0246C144.51 55.909 144.409 55.7452 144.341 55.5332C144.274 55.3212 144.24 55.0418 144.24 54.6949V49.94H142.968V48.856H144.24V46.6158H145.469V48.856ZM153.511 51.8766C153.491 51.5876 153.424 51.313 153.308 51.0528C153.202 50.7927 153.053 50.5711 152.86 50.388C152.677 50.1953 152.456 50.0459 152.196 49.94C151.945 49.8243 151.666 49.7665 151.357 49.7665C151.039 49.7665 150.75 49.8243 150.49 49.94C150.24 50.0459 150.023 50.1953 149.84 50.388C149.657 50.5807 149.512 50.8071 149.406 51.0673C149.3 51.3178 149.237 51.5876 149.218 51.8766H153.511ZM154.696 53.9579C154.532 54.7961 154.171 55.4272 153.612 55.8512C153.053 56.2751 152.35 56.4871 151.502 56.4871C150.904 56.4871 150.384 56.3908 149.941 56.198C149.507 56.0053 149.141 55.7356 148.842 55.3887C148.544 55.0418 148.317 54.6275 148.163 54.1457C148.019 53.664 147.937 53.1389 147.917 52.5704C147.917 52.0019 148.004 51.4816 148.178 51.0095C148.351 50.5373 148.592 50.1278 148.9 49.781C149.218 49.4341 149.589 49.1643 150.013 48.9716C150.447 48.7789 150.919 48.6825 151.43 48.6825C152.094 48.6825 152.644 48.8223 153.077 49.1017C153.52 49.3715 153.872 49.7183 154.132 50.1423C154.402 50.5662 154.585 51.0287 154.681 51.5298C154.787 52.0308 154.831 52.5077 154.811 52.9606H149.218C149.209 53.2882 149.247 53.6013 149.334 53.9C149.421 54.1891 149.56 54.4493 149.753 54.6805C149.946 54.9021 150.191 55.0804 150.49 55.2153C150.789 55.3501 151.14 55.4176 151.545 55.4176C152.065 55.4176 152.489 55.2972 152.817 55.0563C153.154 54.8154 153.376 54.4493 153.482 53.9579H154.696ZM156.981 52.6571C156.981 53.004 157.024 53.346 157.111 53.6832C157.207 54.0108 157.347 54.3047 157.53 54.5649C157.723 54.825 157.964 55.0322 158.253 55.1863C158.552 55.3405 158.898 55.4176 159.293 55.4176C159.708 55.4176 160.059 55.3357 160.349 55.1719C160.638 55.0081 160.874 54.7961 161.057 54.536C161.24 54.2662 161.37 53.9627 161.447 53.6254C161.534 53.2882 161.577 52.9462 161.577 52.5993C161.577 52.2331 161.534 51.8815 161.447 51.5442C161.36 51.1974 161.221 50.8938 161.028 50.6337C160.845 50.3735 160.604 50.1664 160.305 50.0122C160.006 49.8484 159.645 49.7665 159.221 49.7665C158.807 49.7665 158.455 49.8484 158.166 50.0122C157.877 50.176 157.646 50.3928 157.472 50.6626C157.299 50.9324 157.174 51.2407 157.097 51.5876C157.02 51.9344 156.981 52.291 156.981 52.6571ZM162.762 56.3281H161.534V55.3164H161.505C161.302 55.7307 160.984 56.0294 160.551 56.2125C160.117 56.3956 159.64 56.4871 159.12 56.4871C158.542 56.4871 158.036 56.3811 157.602 56.1691C157.179 55.9572 156.822 55.6729 156.533 55.3164C156.254 54.9599 156.042 54.5456 155.897 54.0735C155.753 53.6013 155.68 53.1003 155.68 52.5704C155.68 52.0404 155.748 51.5394 155.883 51.0673C156.027 50.5951 156.239 50.1856 156.519 49.8388C156.808 49.4823 157.164 49.2029 157.588 49.0005C158.022 48.7885 158.523 48.6825 159.091 48.6825C159.284 48.6825 159.491 48.7018 159.713 48.7404C159.934 48.7789 160.156 48.8463 160.377 48.9427C160.599 49.0294 160.806 49.1499 160.999 49.304C161.201 49.4486 161.37 49.6316 161.505 49.8532H161.534V46.0088H162.762V56.3281ZM175.294 56.2992C175.082 56.4245 174.788 56.4871 174.413 56.4871C174.095 56.4871 173.839 56.4004 173.647 56.227C173.463 56.0439 173.372 55.75 173.372 55.3453C173.035 55.75 172.64 56.0439 172.187 56.227C171.744 56.4004 171.262 56.4871 170.742 56.4871C170.404 56.4871 170.081 56.4486 169.773 56.3715C169.474 56.2944 169.214 56.174 168.993 56.0102C168.771 55.8464 168.593 55.6344 168.458 55.3742C168.333 55.1044 168.27 54.7817 168.27 54.4059C168.27 53.9819 168.342 53.6351 168.487 53.3653C168.631 53.0955 168.819 52.8787 169.051 52.7149C169.291 52.5415 169.561 52.4114 169.86 52.3247C170.168 52.238 170.481 52.1657 170.799 52.1079C171.137 52.0404 171.455 51.9923 171.753 51.9634C172.062 51.9248 172.331 51.8766 172.563 51.8188C172.794 51.7514 172.977 51.6598 173.112 51.5442C173.247 51.419 173.314 51.2407 173.314 51.0095C173.314 50.7397 173.261 50.5229 173.155 50.3591C173.059 50.1953 172.929 50.07 172.765 49.9833C172.611 49.8966 172.432 49.8388 172.23 49.8099C172.037 49.781 171.845 49.7665 171.652 49.7665C171.132 49.7665 170.698 49.8677 170.351 50.07C170.004 50.2627 169.817 50.6337 169.788 51.1829H168.559C168.578 50.7204 168.675 50.3302 168.848 50.0122C169.022 49.6943 169.253 49.4389 169.542 49.2462C169.831 49.0439 170.159 48.8993 170.525 48.8126C170.9 48.7259 171.3 48.6825 171.724 48.6825C172.062 48.6825 172.394 48.7066 172.722 48.7548C173.059 48.803 173.362 48.9042 173.632 49.0583C173.902 49.2029 174.119 49.41 174.282 49.6798C174.446 49.9496 174.528 50.3013 174.528 50.7349V54.5793C174.528 54.8684 174.543 55.0804 174.572 55.2153C174.61 55.3501 174.726 55.4176 174.918 55.4176C175.024 55.4176 175.15 55.3935 175.294 55.3453V56.2992ZM173.3 52.4692C173.146 52.5848 172.943 52.6715 172.693 52.7294C172.442 52.7775 172.177 52.8209 171.898 52.8594C171.628 52.8883 171.353 52.9269 171.074 52.9751C170.795 53.0136 170.544 53.081 170.322 53.1774C170.101 53.2737 169.918 53.4135 169.773 53.5965C169.638 53.77 169.571 54.0108 169.571 54.3192C169.571 54.5215 169.609 54.6949 169.686 54.8395C169.773 54.9744 169.879 55.0852 170.004 55.1719C170.139 55.2586 170.293 55.3212 170.467 55.3598C170.64 55.3983 170.823 55.4176 171.016 55.4176C171.421 55.4176 171.768 55.3646 172.057 55.2586C172.346 55.143 172.582 55.0033 172.765 54.8395C172.948 54.666 173.083 54.483 173.17 54.2903C173.256 54.0879 173.3 53.9 173.3 53.7266V52.4692ZM181.51 51.2552C181.414 50.783 181.212 50.4169 180.903 50.1567C180.595 49.8966 180.181 49.7665 179.661 49.7665C179.217 49.7665 178.846 49.8484 178.548 50.0122C178.249 50.176 178.008 50.3928 177.825 50.6626C177.652 50.9324 177.526 51.2455 177.449 51.602C177.372 51.9489 177.334 52.3102 177.334 52.686C177.334 53.0329 177.372 53.3701 177.449 53.6977C177.536 54.0253 177.666 54.3192 177.839 54.5793C178.013 54.8298 178.239 55.0322 178.519 55.1863C178.798 55.3405 179.131 55.4176 179.516 55.4176C180.123 55.4176 180.595 55.2586 180.932 54.9406C181.279 54.6227 181.491 54.1746 181.568 53.5965H182.826C182.691 54.5215 182.344 55.2345 181.785 55.7356C181.236 56.2366 180.484 56.4871 179.53 56.4871C178.962 56.4871 178.456 56.3956 178.013 56.2125C177.579 56.0294 177.213 55.7693 176.914 55.432C176.625 55.0948 176.404 54.6949 176.25 54.2325C176.105 53.7603 176.033 53.2448 176.033 52.686C176.033 52.1272 176.105 51.6068 176.25 51.1251C176.394 50.6337 176.611 50.2097 176.9 49.8532C177.199 49.4871 177.57 49.2029 178.013 49.0005C178.456 48.7885 178.972 48.6825 179.559 48.6825C179.983 48.6825 180.378 48.7355 180.744 48.8415C181.12 48.9379 181.448 49.092 181.727 49.304C182.016 49.516 182.252 49.7858 182.435 50.1134C182.619 50.4313 182.734 50.8119 182.782 51.2552H181.51ZM189.273 51.2552C189.177 50.783 188.975 50.4169 188.666 50.1567C188.358 49.8966 187.944 49.7665 187.423 49.7665C186.98 49.7665 186.609 49.8484 186.31 50.0122C186.012 50.176 185.771 50.3928 185.588 50.6626C185.414 50.9324 185.289 51.2455 185.212 51.602C185.135 51.9489 185.096 52.3102 185.096 52.686C185.096 53.0329 185.135 53.3701 185.212 53.6977C185.299 54.0253 185.429 54.3192 185.602 54.5793C185.776 54.8298 186.002 55.0322 186.282 55.1863C186.561 55.3405 186.893 55.4176 187.279 55.4176C187.886 55.4176 188.358 55.2586 188.695 54.9406C189.042 54.6227 189.254 54.1746 189.331 53.5965H190.588C190.454 54.5215 190.107 55.2345 189.548 55.7356C188.999 56.2366 188.247 56.4871 187.293 56.4871C186.725 56.4871 186.219 56.3956 185.776 56.2125C185.342 56.0294 184.976 55.7693 184.677 55.432C184.388 55.0948 184.167 54.6949 184.012 54.2325C183.868 53.7603 183.796 53.2448 183.796 52.686C183.796 52.1272 183.868 51.6068 184.012 51.1251C184.157 50.6337 184.374 50.2097 184.663 49.8532C184.961 49.4871 185.332 49.2029 185.776 49.0005C186.219 48.7885 186.734 48.6825 187.322 48.6825C187.746 48.6825 188.141 48.7355 188.507 48.8415C188.883 48.9379 189.211 49.092 189.49 49.304C189.779 49.516 190.015 49.7858 190.198 50.1134C190.381 50.4313 190.497 50.8119 190.545 51.2552H189.273ZM197.152 51.8766C197.132 51.5876 197.065 51.313 196.949 51.0528C196.843 50.7927 196.694 50.5711 196.501 50.388C196.318 50.1953 196.097 50.0459 195.836 49.94C195.586 49.8243 195.307 49.7665 194.998 49.7665C194.68 49.7665 194.391 49.8243 194.131 49.94C193.88 50.0459 193.664 50.1953 193.481 50.388C193.298 50.5807 193.153 50.8071 193.047 51.0673C192.941 51.3178 192.878 51.5876 192.859 51.8766H197.152ZM198.337 53.9579C198.173 54.7961 197.812 55.4272 197.253 55.8512C196.694 56.2751 195.991 56.4871 195.143 56.4871C194.545 56.4871 194.025 56.3908 193.582 56.198C193.148 56.0053 192.782 55.7356 192.483 55.3887C192.185 55.0418 191.958 54.6275 191.804 54.1457C191.66 53.664 191.578 53.1389 191.558 52.5704C191.558 52.0019 191.645 51.4816 191.819 51.0095C191.992 50.5373 192.233 50.1278 192.541 49.781C192.859 49.4341 193.23 49.1643 193.654 48.9716C194.088 48.7789 194.56 48.6825 195.07 48.6825C195.735 48.6825 196.284 48.8223 196.718 49.1017C197.161 49.3715 197.513 49.7183 197.773 50.1423C198.043 50.5662 198.226 51.0287 198.322 51.5298C198.428 52.0308 198.472 52.5077 198.452 52.9606H192.859C192.85 53.2882 192.888 53.6013 192.975 53.9C193.061 54.1891 193.201 54.4493 193.394 54.6805C193.587 54.9021 193.832 55.0804 194.131 55.2153C194.43 55.3501 194.781 55.4176 195.186 55.4176C195.706 55.4176 196.13 55.2972 196.458 55.0563C196.795 54.8154 197.017 54.4493 197.123 53.9579H198.337ZM200.477 53.9723C200.487 54.2421 200.55 54.4733 200.665 54.666C200.781 54.8491 200.93 54.9985 201.113 55.1141C201.306 55.2201 201.518 55.2972 201.749 55.3453C201.99 55.3935 202.236 55.4176 202.486 55.4176C202.679 55.4176 202.881 55.4031 203.093 55.3742C203.305 55.3453 203.498 55.2923 203.671 55.2153C203.855 55.1382 204.004 55.0274 204.12 54.8828C204.235 54.7287 204.293 54.536 204.293 54.3047C204.293 53.9868 204.173 53.7459 203.932 53.5821C203.691 53.4183 203.387 53.2882 203.021 53.1918C202.665 53.0859 202.274 52.9943 201.85 52.9172C201.426 52.8305 201.031 52.7149 200.665 52.5704C200.309 52.4162 200.01 52.2042 199.769 51.9344C199.528 51.6647 199.408 51.2889 199.408 50.8071C199.408 50.4313 199.49 50.1086 199.654 49.8388C199.827 49.569 200.044 49.3522 200.304 49.1884C200.574 49.015 200.872 48.8897 201.2 48.8126C201.537 48.7259 201.87 48.6825 202.197 48.6825C202.621 48.6825 203.011 48.7211 203.368 48.7982C203.724 48.8656 204.038 48.9909 204.307 49.1739C204.587 49.3474 204.808 49.5883 204.972 49.8966C205.136 50.1953 205.232 50.5711 205.261 51.0239H204.033C204.014 50.783 203.951 50.5855 203.845 50.4313C203.739 50.2675 203.604 50.1375 203.44 50.0411C203.276 49.9448 203.093 49.8773 202.891 49.8388C202.698 49.7906 202.501 49.7665 202.298 49.7665C202.115 49.7665 201.928 49.781 201.735 49.8099C201.552 49.8388 201.383 49.8918 201.229 49.9689C201.075 50.0363 200.95 50.1327 200.853 50.2579C200.757 50.3735 200.709 50.5277 200.709 50.7204C200.709 50.9324 200.781 51.1106 200.925 51.2552C201.08 51.3901 201.272 51.5057 201.504 51.602C201.735 51.6887 201.995 51.7658 202.284 51.8333C202.573 51.8911 202.862 51.9537 203.151 52.0212C203.46 52.0886 203.758 52.1705 204.047 52.2669C204.346 52.3632 204.606 52.4933 204.828 52.6571C205.059 52.8113 205.242 53.0088 205.377 53.2497C205.521 53.4905 205.594 53.7892 205.594 54.1457C205.594 54.5986 205.497 54.9744 205.305 55.2731C205.122 55.5718 204.876 55.8126 204.568 55.9957C204.269 56.1788 203.927 56.304 203.541 56.3715C203.166 56.4486 202.79 56.4871 202.414 56.4871C202 56.4871 201.605 56.4437 201.229 56.357C200.853 56.2703 200.521 56.1306 200.232 55.9379C199.943 55.7356 199.711 55.4754 199.538 55.1574C199.365 54.8298 199.268 54.4348 199.249 53.9723H200.477ZM207.704 53.9723C207.713 54.2421 207.776 54.4733 207.892 54.666C208.007 54.8491 208.157 54.9985 208.34 55.1141C208.532 55.2201 208.744 55.2972 208.976 55.3453C209.217 55.3935 209.462 55.4176 209.713 55.4176C209.906 55.4176 210.108 55.4031 210.32 55.3742C210.532 55.3453 210.725 55.2923 210.898 55.2153C211.081 55.1382 211.23 55.0274 211.346 54.8828C211.462 54.7287 211.519 54.536 211.519 54.3047C211.519 53.9868 211.399 53.7459 211.158 53.5821C210.917 53.4183 210.614 53.2882 210.248 53.1918C209.891 53.0859 209.501 52.9943 209.077 52.9172C208.653 52.8305 208.258 52.7149 207.892 52.5704C207.535 52.4162 207.237 52.2042 206.996 51.9344C206.755 51.6647 206.634 51.2889 206.634 50.8071C206.634 50.4313 206.716 50.1086 206.88 49.8388C207.053 49.569 207.27 49.3522 207.53 49.1884C207.8 49.015 208.099 48.8897 208.426 48.8126C208.764 48.7259 209.096 48.6825 209.424 48.6825C209.848 48.6825 210.238 48.7211 210.594 48.7982C210.951 48.8656 211.264 48.9909 211.534 49.1739C211.813 49.3474 212.035 49.5883 212.199 49.8966C212.362 50.1953 212.459 50.5711 212.488 51.0239H211.259C211.24 50.783 211.177 50.5855 211.071 50.4313C210.965 50.2675 210.83 50.1375 210.667 50.0411C210.503 49.9448 210.32 49.8773 210.117 49.8388C209.925 49.7906 209.727 49.7665 209.525 49.7665C209.342 49.7665 209.154 49.781 208.961 49.8099C208.778 49.8388 208.61 49.8918 208.455 49.9689C208.301 50.0363 208.176 50.1327 208.08 50.2579C207.983 50.3735 207.935 50.5277 207.935 50.7204C207.935 50.9324 208.007 51.1106 208.152 51.2552C208.306 51.3901 208.499 51.5057 208.73 51.602C208.961 51.6887 209.221 51.7658 209.51 51.8333C209.8 51.8911 210.089 51.9537 210.378 52.0212C210.686 52.0886 210.985 52.1705 211.274 52.2669C211.572 52.3632 211.833 52.4933 212.054 52.6571C212.285 52.8113 212.468 53.0088 212.603 53.2497C212.748 53.4905 212.82 53.7892 212.82 54.1457C212.82 54.5986 212.724 54.9744 212.531 55.2731C212.348 55.5718 212.102 55.8126 211.794 55.9957C211.495 56.1788 211.153 56.304 210.768 56.3715C210.392 56.4486 210.016 56.4871 209.641 56.4871C209.226 56.4871 208.831 56.4437 208.455 56.357C208.08 56.2703 207.747 56.1306 207.458 55.9379C207.169 55.7356 206.938 55.4754 206.764 55.1574C206.591 54.8298 206.495 54.4348 206.475 53.9723H207.704Z" fill="white"/>
<path d="M81.5547 58.1347H213.254V58.8574H81.5547V58.1347Z" fill="white"/>
</g>
<rect x="16.5176" y="113.078" width="109.429" height="34.0675" rx="10.3235" fill="#1E1E1E"/>
<rect x="18.582" y="115.145" width="35.0999" height="29.9381" rx="8.25879" fill="#323232"/>
<path d="M33.7226 135.531H38.5402M36.1314 133.122V135.531M31.3138 124.691H40.949C41.6142 124.691 42.1534 125.231 42.1534 125.896V131.918C42.1534 132.583 41.6142 133.122 40.949 133.122H31.3138C30.6486 133.122 30.1094 132.583 30.1094 131.918V125.896C30.1094 125.231 30.6486 124.691 31.3138 124.691Z" stroke="white" stroke-width="1.03235" stroke-linecap="round" stroke-linejoin="round"/>
<g opacity="0.5" clip-path="url(#clip3_530_14876)">
<path d="M76.6508 132.519V127.22C76.6508 126.545 76.6508 126.208 76.5196 125.951C76.4041 125.724 76.2199 125.54 75.9932 125.424C75.7356 125.293 75.3983 125.293 74.7238 125.293H67.7382C67.0637 125.293 66.7264 125.293 66.4688 125.424C66.2422 125.54 66.0579 125.724 65.9425 125.951C65.8112 126.208 65.8112 126.545 65.8112 127.22V132.519M66.8149 134.928H75.6472C76.0205 134.928 76.2072 134.928 76.3604 134.887C76.776 134.776 77.1006 134.451 77.212 134.036C77.2531 133.882 77.2531 133.696 77.2531 133.322C77.2531 133.136 77.2531 133.042 77.2325 132.966C77.1768 132.758 77.0145 132.596 76.8067 132.54C76.7301 132.519 76.6368 132.519 76.4501 132.519H66.0119C65.8252 132.519 65.7319 132.519 65.6553 132.54C65.4475 132.596 65.2852 132.758 65.2295 132.966C65.209 133.042 65.209 133.136 65.209 133.322C65.209 133.696 65.209 133.882 65.25 134.036C65.3614 134.451 65.686 134.776 66.1017 134.887C66.2548 134.928 66.4415 134.928 66.8149 134.928Z" stroke="white" stroke-width="1.03235" stroke-linecap="round" stroke-linejoin="round"/>
</g>
<g opacity="0.5">
<path d="M106.331 133.428H106.337M104.042 136.138H108.619C109.294 136.138 109.631 136.138 109.888 136.007C110.115 135.891 110.299 135.707 110.415 135.48C110.546 135.223 110.546 134.885 110.546 134.211V126.021C110.546 125.346 110.546 125.009 110.415 124.751C110.299 124.525 110.115 124.34 109.888 124.225C109.631 124.094 109.294 124.094 108.619 124.094H104.042C103.368 124.094 103.03 124.094 102.773 124.225C102.546 124.34 102.362 124.525 102.247 124.751C102.115 125.009 102.115 125.346 102.115 126.021V134.211C102.115 134.885 102.115 135.223 102.247 135.48C102.362 135.707 102.546 135.891 102.773 136.007C103.03 136.138 103.368 136.138 104.042 136.138ZM106.632 133.428C106.632 133.594 106.497 133.729 106.331 133.729C106.164 133.729 106.03 133.594 106.03 133.428C106.03 133.262 106.164 133.127 106.331 133.127C106.497 133.127 106.632 133.262 106.632 133.428Z" stroke="white" stroke-width="1.03235" stroke-linecap="round" stroke-linejoin="round"/>
</g>
<rect x="134.205" y="113.078" width="204.405" height="34.0675" rx="10.3235" fill="#1E1E1E"/>
<path opacity="0.5" d="M150.776 125.294H152.149V129.731H157.583V125.294H158.956V135.613H157.583V130.887H152.149V135.613H150.776V125.294ZM163.547 126.45H160.108V125.294H168.36V126.45H164.921V135.613H163.547V126.45ZM169.534 125.294H171.413L174.665 133.966L177.931 125.294H179.81V135.613H178.509V127.028H178.48L175.257 135.613H174.087L170.864 127.028H170.835V135.613H169.534V125.294ZM182.095 125.294H183.468V134.457H188.931V135.613H182.095V125.294Z" fill="white"/>
<path opacity="0.5" d="M229.791 128.401C229.637 127.669 229.295 127.12 228.765 126.754C228.244 126.388 227.623 126.204 226.9 126.204C226.284 126.204 225.754 126.32 225.31 126.551C224.877 126.783 224.516 127.096 224.227 127.491C223.947 127.876 223.74 128.319 223.605 128.82C223.47 129.321 223.403 129.842 223.403 130.381C223.403 130.969 223.47 131.528 223.605 132.058C223.74 132.578 223.947 133.036 224.227 133.431C224.516 133.816 224.882 134.125 225.325 134.356C225.768 134.587 226.298 134.703 226.915 134.703C227.368 134.703 227.767 134.63 228.114 134.486C228.471 134.332 228.774 134.125 229.025 133.864C229.285 133.595 229.487 133.277 229.632 132.911C229.776 132.544 229.863 132.149 229.892 131.725H231.265C231.13 133.026 230.682 134.038 229.921 134.761C229.16 135.483 228.119 135.845 226.799 135.845C225.999 135.845 225.301 135.71 224.703 135.44C224.106 135.16 223.61 134.78 223.215 134.298C222.82 133.816 222.521 133.248 222.319 132.593C222.126 131.937 222.03 131.234 222.03 130.483C222.03 129.731 222.136 129.028 222.348 128.372C222.56 127.708 222.868 127.129 223.273 126.638C223.687 126.147 224.198 125.761 224.805 125.482C225.421 125.193 226.125 125.048 226.915 125.048C227.454 125.048 227.965 125.12 228.447 125.265C228.929 125.41 229.357 125.622 229.733 125.901C230.109 126.18 230.422 126.532 230.673 126.956C230.923 127.37 231.087 127.852 231.164 128.401H229.791ZM238.935 128.315C238.858 127.573 238.588 127.038 238.126 126.71C237.673 126.373 237.09 126.204 236.377 126.204C236.088 126.204 235.803 126.233 235.524 126.291C235.245 126.349 234.994 126.445 234.772 126.58C234.561 126.715 234.387 126.898 234.252 127.129C234.127 127.351 234.064 127.63 234.064 127.968C234.064 128.286 234.156 128.546 234.339 128.748C234.532 128.941 234.782 129.1 235.09 129.225C235.408 129.35 235.765 129.456 236.16 129.543C236.555 129.62 236.955 129.707 237.36 129.803C237.774 129.9 238.179 130.015 238.574 130.15C238.969 130.275 239.32 130.449 239.629 130.67C239.947 130.892 240.197 131.171 240.38 131.509C240.573 131.846 240.669 132.27 240.669 132.781C240.669 133.33 240.544 133.802 240.293 134.197C240.053 134.582 239.739 134.9 239.354 135.151C238.969 135.392 238.535 135.565 238.053 135.671C237.581 135.787 237.109 135.845 236.637 135.845C236.059 135.845 235.51 135.772 234.989 135.628C234.479 135.483 234.026 135.266 233.631 134.977C233.245 134.679 232.937 134.303 232.706 133.85C232.484 133.388 232.373 132.843 232.373 132.217H233.674C233.674 132.65 233.756 133.026 233.92 133.344C234.093 133.653 234.315 133.908 234.585 134.11C234.864 134.313 235.187 134.462 235.553 134.558C235.919 134.655 236.295 134.703 236.68 134.703C236.989 134.703 237.297 134.674 237.605 134.616C237.923 134.558 238.207 134.462 238.458 134.327C238.708 134.182 238.911 133.99 239.065 133.749C239.219 133.508 239.296 133.2 239.296 132.824C239.296 132.467 239.2 132.178 239.007 131.957C238.824 131.735 238.574 131.557 238.256 131.422C237.947 131.277 237.596 131.162 237.201 131.075C236.806 130.988 236.401 130.902 235.987 130.815C235.582 130.719 235.182 130.613 234.787 130.497C234.392 130.372 234.035 130.213 233.717 130.02C233.409 129.818 233.159 129.562 232.966 129.254C232.783 128.936 232.691 128.541 232.691 128.069C232.691 127.549 232.797 127.101 233.009 126.725C233.221 126.339 233.501 126.026 233.848 125.785C234.204 125.535 234.604 125.352 235.047 125.236C235.5 125.111 235.962 125.048 236.435 125.048C236.965 125.048 237.456 125.111 237.909 125.236C238.362 125.361 238.757 125.559 239.094 125.829C239.441 126.098 239.711 126.441 239.903 126.855C240.106 127.26 240.216 127.746 240.236 128.315H238.935ZM248.307 128.315C248.23 127.573 247.96 127.038 247.497 126.71C247.044 126.373 246.462 126.204 245.749 126.204C245.459 126.204 245.175 126.233 244.896 126.291C244.616 126.349 244.366 126.445 244.144 126.58C243.932 126.715 243.759 126.898 243.624 127.129C243.499 127.351 243.436 127.63 243.436 127.968C243.436 128.286 243.528 128.546 243.711 128.748C243.903 128.941 244.154 129.1 244.462 129.225C244.78 129.35 245.137 129.456 245.532 129.543C245.927 129.62 246.327 129.707 246.731 129.803C247.146 129.9 247.55 130.015 247.945 130.15C248.34 130.275 248.692 130.449 249 130.67C249.318 130.892 249.569 131.171 249.752 131.509C249.945 131.846 250.041 132.27 250.041 132.781C250.041 133.33 249.916 133.802 249.665 134.197C249.424 134.582 249.111 134.9 248.726 135.151C248.34 135.392 247.907 135.565 247.425 135.671C246.953 135.787 246.481 135.845 246.009 135.845C245.431 135.845 244.881 135.772 244.361 135.628C243.85 135.483 243.398 135.266 243.003 134.977C242.617 134.679 242.309 134.303 242.078 133.85C241.856 133.388 241.745 132.843 241.745 132.217H243.046C243.046 132.65 243.128 133.026 243.292 133.344C243.465 133.653 243.687 133.908 243.956 134.11C244.236 134.313 244.559 134.462 244.925 134.558C245.291 134.655 245.667 134.703 246.052 134.703C246.36 134.703 246.669 134.674 246.977 134.616C247.295 134.558 247.579 134.462 247.83 134.327C248.08 134.182 248.283 133.99 248.437 133.749C248.591 133.508 248.668 133.2 248.668 132.824C248.668 132.467 248.572 132.178 248.379 131.957C248.196 131.735 247.945 131.557 247.627 131.422C247.319 131.277 246.967 131.162 246.572 131.075C246.177 130.988 245.773 130.902 245.358 130.815C244.954 130.719 244.554 130.613 244.159 130.497C243.764 130.372 243.407 130.213 243.089 130.02C242.781 129.818 242.53 129.562 242.338 129.254C242.155 128.936 242.063 128.541 242.063 128.069C242.063 127.549 242.169 127.101 242.381 126.725C242.593 126.339 242.872 126.026 243.219 125.785C243.576 125.535 243.976 125.352 244.419 125.236C244.872 125.111 245.334 125.048 245.806 125.048C246.336 125.048 246.828 125.111 247.281 125.236C247.733 125.361 248.128 125.559 248.466 125.829C248.813 126.098 249.082 126.441 249.275 126.855C249.477 127.26 249.588 127.746 249.607 128.315H248.307Z" fill="white"/>
<rect x="269.787" y="115.145" width="66.7586" height="29.9381" rx="8.25879" fill="#323232"/>
<path d="M301.04 133.041C301.04 133.388 300.987 133.73 300.881 134.067C300.784 134.404 300.616 134.708 300.375 134.977C300.144 135.238 299.831 135.449 299.435 135.613C299.05 135.767 298.568 135.845 297.99 135.845C297.027 135.845 296.285 135.594 295.764 135.093C295.244 134.582 294.984 133.836 294.984 132.853V132.217H296.357V132.65C296.357 132.949 296.381 133.224 296.429 133.474C296.477 133.725 296.559 133.942 296.675 134.125C296.8 134.308 296.969 134.452 297.181 134.558C297.402 134.655 297.682 134.703 298.019 134.703C298.645 134.703 299.074 134.534 299.305 134.197C299.546 133.86 299.667 133.407 299.667 132.838V125.294H301.04V133.041ZM309.257 128.315C309.18 127.573 308.91 127.038 308.448 126.71C307.995 126.373 307.412 126.204 306.699 126.204C306.41 126.204 306.126 126.233 305.846 126.291C305.567 126.349 305.316 126.445 305.095 126.58C304.883 126.715 304.709 126.898 304.574 127.129C304.449 127.351 304.386 127.63 304.386 127.968C304.386 128.286 304.478 128.546 304.661 128.748C304.854 128.941 305.104 129.1 305.413 129.225C305.73 129.35 306.087 129.456 306.482 129.543C306.877 129.62 307.277 129.707 307.682 129.803C308.096 129.9 308.501 130.015 308.896 130.15C309.291 130.275 309.642 130.449 309.951 130.67C310.269 130.892 310.519 131.171 310.702 131.509C310.895 131.846 310.991 132.27 310.991 132.781C310.991 133.33 310.866 133.802 310.616 134.197C310.375 134.582 310.062 134.9 309.676 135.151C309.291 135.392 308.857 135.565 308.375 135.671C307.903 135.787 307.431 135.845 306.959 135.845C306.381 135.845 305.832 135.772 305.311 135.628C304.801 135.483 304.348 135.266 303.953 134.977C303.567 134.679 303.259 134.303 303.028 133.85C302.806 133.388 302.695 132.843 302.695 132.217H303.996C303.996 132.65 304.078 133.026 304.242 133.344C304.415 133.653 304.637 133.908 304.907 134.11C305.186 134.313 305.509 134.462 305.875 134.558C306.241 134.655 306.617 134.703 307.002 134.703C307.311 134.703 307.619 134.674 307.927 134.616C308.245 134.558 308.53 134.462 308.78 134.327C309.031 134.182 309.233 133.99 309.387 133.749C309.541 133.508 309.618 133.2 309.618 132.824C309.618 132.467 309.522 132.178 309.329 131.957C309.146 131.735 308.896 131.557 308.578 131.422C308.269 131.277 307.918 131.162 307.523 131.075C307.128 130.988 306.723 130.902 306.309 130.815C305.904 130.719 305.504 130.613 305.109 130.497C304.714 130.372 304.357 130.213 304.04 130.02C303.731 129.818 303.481 129.562 303.288 129.254C303.105 128.936 303.013 128.541 303.013 128.069C303.013 127.549 303.119 127.101 303.331 126.725C303.543 126.339 303.823 126.026 304.17 125.785C304.526 125.535 304.926 125.352 305.369 125.236C305.822 125.111 306.285 125.048 306.757 125.048C307.287 125.048 307.778 125.111 308.231 125.236C308.684 125.361 309.079 125.559 309.416 125.829C309.763 126.098 310.033 126.441 310.225 126.855C310.428 127.26 310.538 127.746 310.558 128.315H309.257Z" fill="white"/>
<path fill-rule="evenodd" clip-rule="evenodd" d="M361.837 121.598C357.133 121.598 353.32 125.411 353.32 130.115C353.32 134.818 357.133 138.631 361.837 138.631C366.541 138.631 370.354 134.818 370.354 130.115C370.354 125.411 366.541 121.598 361.837 121.598ZM361.837 126.243C362.265 126.243 362.611 126.59 362.611 127.017V131.342L364.387 129.567C364.689 129.265 365.179 129.265 365.482 129.567C365.784 129.869 365.784 130.36 365.482 130.662L362.385 133.759C362.082 134.061 361.592 134.061 361.29 133.759L358.193 130.662C357.89 130.36 357.89 129.869 358.193 129.567C358.495 129.265 358.985 129.265 359.288 129.567L361.063 131.342V127.017C361.063 126.59 361.41 126.243 361.837 126.243Z" fill="white"/>
<path d="M398.486 130.116C398.486 129.261 399.18 128.567 400.035 128.567C400.89 128.567 401.583 129.261 401.583 130.116C401.583 130.971 400.89 131.664 400.035 131.664C399.18 131.664 398.486 130.971 398.486 130.116Z" fill="white"/>
<path fill-rule="evenodd" clip-rule="evenodd" d="M400.035 123.922C397.819 123.922 396.013 124.901 394.674 126.018C393.338 127.134 392.422 128.424 391.963 129.15L391.944 129.18C391.853 129.323 391.735 129.509 391.675 129.77C391.627 129.981 391.627 130.251 391.675 130.462C391.735 130.723 391.853 130.909 391.944 131.052L391.963 131.082C392.422 131.808 393.338 133.098 394.674 134.214C396.013 135.331 397.819 136.31 400.035 136.31C402.251 136.31 404.057 135.331 405.395 134.214C406.732 133.098 407.648 131.808 408.107 131.082L408.126 131.052C408.217 130.909 408.335 130.723 408.395 130.462C408.443 130.251 408.443 129.981 408.395 129.77C408.335 129.509 408.217 129.323 408.126 129.18L408.107 129.15C407.648 128.424 406.732 127.134 405.395 126.018C404.057 124.901 402.251 123.922 400.035 123.922ZM400.035 127.019C398.324 127.019 396.938 128.406 396.938 130.116C396.938 131.826 398.324 133.213 400.035 133.213C401.745 133.213 403.132 131.826 403.132 130.116C403.132 128.406 401.745 127.019 400.035 127.019Z" fill="white"/>
</g>
</g>
</g>
<defs>
<filter id="filter0_f_530_14876" x="-4" y="-4" width="813.232" height="742" filterUnits="userSpaceOnUse" color-interpolation-filters="sRGB">
<feFlood flood-opacity="0" result="BackgroundImageFix"/>
<feBlend mode="normal" in="SourceGraphic" in2="BackgroundImageFix" result="shape"/>
<feGaussianBlur stdDeviation="2" result="effect1_foregroundBlur_530_14876"/>
</filter>
<clipPath id="clip0_530_14876">
<rect width="400" height="275" fill="white"/>
</clipPath>
<clipPath id="clip1_530_14876">
<rect width="805.232" height="734" rx="24.7764" fill="white"/>
</clipPath>
<clipPath id="clip2_530_14876">
<rect width="47.488" height="47.488" fill="white" transform="translate(20.6465 16.5195)"/>
</clipPath>
<clipPath id="clip3_530_14876">
<rect width="14.4529" height="14.4529" fill="white" transform="translate(64.0059 122.887)"/>
</clipPath>
</defs>
</svg>
