<svg width="92" height="92" viewBox="0 0 92 92" fill="none" xmlns="http://www.w3.org/2000/svg">
<g clip-path="url(#clip0_553_6731)">
<rect x="0.310547" y="42.9219" width="64.5965" height="64.5965" rx="6.8903" transform="rotate(-41.27 0.310547 42.9219)" fill="#181818"/>
<g filter="url(#filter0_f_553_6731)">
<circle cx="10.0599" cy="33.7918" r="26.2693" transform="rotate(-41.27 10.0599 33.7918)" fill="white" fill-opacity="0.1"/>
</g>
<g clip-path="url(#clip1_553_6731)">
<path d="M42.4215 60.8681C41.8212 61.4136 41.0878 61.7911 40.2963 61.962C39.5047 62.1328 38.6834 62.0909 37.9162 61.8406C37.1568 61.5898 36.4814 61.1368 35.9623 60.5301C35.4432 59.9235 35.0999 59.1861 34.9693 58.3968L32.4609 43.3678C32.3104 42.5742 32.3737 41.7535 32.6443 40.9896C32.9149 40.2256 33.3831 39.5458 34.001 39.0195C34.6151 38.4899 35.3579 38.1319 36.1533 37.9821C36.9488 37.8324 37.7684 37.8963 38.5282 38.1673C40.0627 38.7206 41.154 40.0694 41.38 41.6877L43.8924 56.7132C44.0161 57.4712 43.9462 58.2494 43.6891 58.9757C43.432 59.702 42.996 60.3529 42.4215 60.8681Z" fill="white"/>
<path d="M52.9233 51.3657C51.6934 52.4786 49.9706 52.8495 48.4265 52.3375C47.669 52.0875 46.9953 51.6357 46.4776 51.0306C45.9598 50.4255 45.6176 49.6899 45.4877 48.9026L42.9873 33.9054C42.8258 33.1088 42.8807 32.282 43.1465 31.5109C43.4123 30.7398 43.8792 30.0524 44.4988 29.52C45.7635 28.4247 47.511 28.0968 49.0549 28.6604C50.5948 29.2275 51.6814 30.5947 51.8844 32.2291L54.3861 47.2251C54.509 47.9802 54.4394 48.7553 54.1837 49.4789C53.9281 50.2026 53.4946 50.8515 52.9233 51.3657Z" fill="white"/>
<path d="M63.0139 42.231C64.7674 40.6443 64.9471 37.9855 63.4151 36.2924C61.8832 34.5993 59.2197 34.513 57.4661 36.0997C55.7126 37.6864 55.5329 40.3452 57.0649 42.0383C58.5968 43.7314 61.2603 43.8177 63.0139 42.231Z" fill="white"/>
</g>
</g>
<rect x="0.918279" y="42.9615" width="63.7353" height="63.7353" rx="6.45966" transform="rotate(-41.27 0.918279 42.9615)" stroke="white" stroke-opacity="0.05" stroke-width="0.861287"/>
<defs>
<filter id="filter0_f_553_6731" x="-59.9911" y="-36.2587" width="140.103" height="140.103" filterUnits="userSpaceOnUse" color-interpolation-filters="sRGB">
<feFlood flood-opacity="0" result="BackgroundImageFix"/>
<feBlend mode="normal" in="SourceGraphic" in2="BackgroundImageFix" result="shape"/>
<feGaussianBlur stdDeviation="21.8911" result="effect1_foregroundBlur_553_6731"/>
</filter>
<clipPath id="clip0_553_6731">
<rect x="0.310547" y="42.9219" width="64.5965" height="64.5965" rx="6.8903" transform="rotate(-41.27 0.310547 42.9219)" fill="white"/>
</clipPath>
<clipPath id="clip1_553_6731">
<rect width="56.609" height="56.609" fill="white" transform="translate(13.998 41.9805) rotate(-42.1396)"/>
</clipPath>
</defs>
</svg>
