<svg width="75" height="75" viewBox="0 0 75 75" fill="none" xmlns="http://www.w3.org/2000/svg">
<rect x="10.7321" y="1.35517" width="63.7353" height="63.7353" rx="6.45966" transform="rotate(8.86961 10.7321 1.35517)" stroke="white" stroke-opacity="0.05" stroke-width="0.861287"/>
<g clip-path="url(#clip0_553_6722)">
<rect x="19.668" y="14.9766" width="40.8949" height="40.8949" rx="20.4475" transform="rotate(8 19.668 14.9766)" fill="#111111"/>
<path fill-rule="evenodd" clip-rule="evenodd" d="M39.9164 17.8223C28.7292 16.25 18.3945 24.0378 16.8222 35.225C15.563 44.185 20.2955 52.5674 27.9672 56.3815C28.9548 56.701 29.4198 56.1469 29.4945 55.6154C29.5621 55.1345 29.7609 53.5364 29.9992 51.8405C24.7802 52.0621 23.7699 49.7004 23.525 48.5045C23.379 47.8903 22.6445 45.9545 21.8515 45.3527C21.1962 44.8734 20.3154 43.7947 22.0147 44.0077C23.6129 44.2065 24.542 45.8599 24.8362 46.5207C26.2282 49.8394 29.2599 49.3879 30.4988 49.02C30.861 47.7287 31.517 46.9176 32.1703 46.4932C27.7362 45.3538 23.2738 42.9457 24.3623 35.2007C24.6718 32.9987 25.7125 31.2866 27.2026 30.0506C27.0712 29.5159 26.6542 27.3409 28.1592 24.7132C28.1592 24.7132 29.9297 24.42 33.4358 27.5713C35.1197 27.3433 36.8729 27.3574 38.594 27.5993C40.3151 27.8412 42.0042 28.3109 43.5601 28.9941C47.8025 26.9061 49.4201 27.7012 49.4201 27.7012C50.1425 30.6419 49.1421 32.6178 48.8684 33.0955C49.9601 34.6943 50.4922 36.6017 50.1791 38.829C49.0871 46.5993 44.1121 47.6553 39.5357 47.5283C40.1808 48.2642 40.6428 49.5681 40.376 51.4664C39.9954 54.1746 39.6641 56.3478 39.5681 57.0311C39.4934 57.5627 39.7841 58.2488 40.825 58.1886C49.2002 56.6297 56.0635 49.8511 57.3192 40.9165C58.8914 29.7292 51.1037 19.3946 39.9164 17.8223Z" fill="white"/>
</g>
<defs>
<clipPath id="clip0_553_6722">
<rect x="19.668" y="14.9766" width="40.8949" height="40.8949" rx="20.4475" transform="rotate(8 19.668 14.9766)" fill="white"/>
</clipPath>
</defs>
</svg>
