<svg width="25" height="24" viewBox="0 0 25 24" fill="none" xmlns="http://www.w3.org/2000/svg">
<g clip-path="url(#clip0_155_1123)">
<path d="M12.855 2.16024C16.0617 2.16024 16.4414 2.1743 17.7025 2.23056C18.8746 2.28213 19.5075 2.47903 19.9294 2.64311C20.4873 2.85876 20.8904 3.1213 21.3077 3.53854C21.7296 3.96047 21.9875 4.35895 22.2031 4.91684C22.3672 5.33877 22.5641 5.97635 22.6157 7.14368C22.6719 8.40947 22.686 8.78921 22.686 11.9912C22.686 15.1978 22.6719 15.5776 22.6157 16.8387C22.5641 18.0107 22.3672 18.6436 22.2031 19.0655C21.9875 19.6234 21.7249 20.0266 21.3077 20.4438C20.8858 20.8657 20.4873 21.1236 19.9294 21.3392C19.5075 21.5033 18.8699 21.7002 17.7025 21.7518C16.4368 21.8081 16.057 21.8221 12.855 21.8221C9.64839 21.8221 9.26865 21.8081 8.00755 21.7518C6.83553 21.7002 6.20264 21.5033 5.78071 21.3392C5.22282 21.1236 4.81965 20.8611 4.40241 20.4438C3.98048 20.0219 3.72263 19.6234 3.50698 19.0655C3.3429 18.6436 3.146 18.006 3.09443 16.8387C3.03817 15.5729 3.02411 15.1931 3.02411 11.9912C3.02411 8.78452 3.03817 8.40478 3.09443 7.14368C3.146 5.97166 3.3429 5.33877 3.50698 4.91684C3.72263 4.35895 3.98517 3.95578 4.40241 3.53854C4.82434 3.11661 5.22282 2.85876 5.78071 2.64311C6.20264 2.47903 6.84022 2.28213 8.00755 2.23056C9.26865 2.1743 9.64839 2.16024 12.855 2.16024ZM12.855 -0.000976562C9.59682 -0.000976562 9.18896 0.0130877 7.9091 0.0693449C6.63394 0.125602 5.75727 0.331878 4.99779 0.627228C4.20551 0.936643 3.53511 1.34451 2.8694 2.01491C2.199 2.68062 1.79114 3.35101 1.48172 4.13861C1.18637 4.90277 0.980094 5.77476 0.923837 7.04992C0.86758 8.33446 0.853516 8.74233 0.853516 12.0006C0.853516 15.2588 0.86758 15.6666 0.923837 16.9465C0.980094 18.2217 1.18637 19.0983 1.48172 19.8578C1.79114 20.6501 2.199 21.3205 2.8694 21.9862C3.53511 22.6519 4.20551 23.0645 4.99311 23.3692C5.75727 23.6645 6.62925 23.8708 7.90442 23.9271C9.18427 23.9833 9.59213 23.9974 12.8504 23.9974C16.1086 23.9974 16.5165 23.9833 17.7963 23.9271C19.0715 23.8708 19.9481 23.6645 20.7076 23.3692C21.4952 23.0645 22.1656 22.6519 22.8313 21.9862C23.497 21.3205 23.9096 20.6501 24.2143 19.8625C24.5097 19.0983 24.7159 18.2263 24.7722 16.9512C24.8285 15.6713 24.8425 15.2635 24.8425 12.0052C24.8425 8.74701 24.8285 8.33915 24.7722 7.0593C24.7159 5.78414 24.5097 4.90746 24.2143 4.14799C23.919 3.35101 23.5111 2.68062 22.8407 2.01491C22.175 1.3492 21.5046 0.936643 20.717 0.631917C19.9528 0.336566 19.0808 0.13029 17.8057 0.074033C16.5211 0.0130877 16.1133 -0.000976562 12.855 -0.000976562Z" fill="white"/>
<path d="M12.8563 5.83496C9.4527 5.83496 6.69141 8.59625 6.69141 11.9998C6.69141 15.4034 9.4527 18.1647 12.8563 18.1647C16.2598 18.1647 19.0211 15.4034 19.0211 11.9998C19.0211 8.59625 16.2598 5.83496 12.8563 5.83496ZM12.8563 15.9988C10.6482 15.9988 8.85731 14.2079 8.85731 11.9998C8.85731 9.79172 10.6482 8.00086 12.8563 8.00086C15.0643 8.00086 16.8552 9.79172 16.8552 11.9998C16.8552 14.2079 15.0643 15.9988 12.8563 15.9988Z" fill="white"/>
<path d="M20.7051 5.59182C20.7051 6.38892 20.0581 7.03129 19.2656 7.03129C18.4685 7.03129 17.8262 6.38423 17.8262 5.59182C17.8262 4.79471 18.4732 4.15234 19.2656 4.15234C20.0581 4.15234 20.7051 4.7994 20.7051 5.59182Z" fill="white"/>
</g>
<defs>
<clipPath id="clip0_155_1123">
<rect width="24.0031" height="24.0031" fill="white" transform="translate(0.857422)"/>
</clipPath>
</defs>
</svg>
