<svg width="77" height="77" viewBox="0 0 77 77" fill="none" xmlns="http://www.w3.org/2000/svg">
<rect x="0.174072" y="0.193634" width="76.6129" height="76.6129" rx="16.4276" fill="url(#paint0_radial_623_7740)" fill-opacity="0.3"/>
<rect x="0.557137" y="0.576699" width="75.8468" height="75.8468" rx="16.0446" stroke="white" stroke-opacity="0.06" stroke-width="0.766129"/>
<path d="M53.5903 56.1033H53.3591V55.9747H53.9816V56.1033H53.7518V56.7447H53.5903V56.1033ZM54.8318 56.1368H54.8282L54.599 56.745H54.4941L54.2665 56.1368H54.2638V56.745H54.1114V55.9749H54.3356L54.5467 56.5202L54.757 55.9749H54.9805V56.745H54.8317L54.8318 56.1368Z" fill="#E76F00"/>
<path d="M32.8909 40.3577C32.8909 40.3577 31.2822 41.2875 34.0358 41.6022C37.3718 41.9804 39.0768 41.9262 42.7531 41.2346C42.7531 41.2346 43.7196 41.837 45.0694 42.3586C36.8282 45.8691 26.4179 42.1553 32.8909 40.3577ZM31.8839 35.7768C31.8839 35.7768 30.0795 37.1043 32.8352 37.3876C36.3988 37.753 39.2131 37.7829 44.0828 36.8509C44.0828 36.8509 44.7565 37.5296 45.8156 37.9007C35.8513 40.7965 24.7531 38.1291 31.8839 35.7768Z" fill="#5382A1"/>
<path d="M40.3735 28.0062C42.4042 30.3297 39.8401 32.4208 39.8401 32.4208C39.8401 32.4208 44.996 29.7754 42.6281 26.4626C40.4165 23.3732 38.7205 21.8383 47.9021 16.546C47.9021 16.546 33.4901 20.1233 40.3735 28.0062Z" fill="#E76F00"/>
<path d="M51.2732 43.746C51.2732 43.746 52.4637 44.721 49.9621 45.4751C45.2051 46.9074 30.1631 47.3399 25.9845 45.5323C24.4825 44.8827 27.2993 43.9815 28.1854 43.7923C29.1095 43.5932 29.6376 43.6303 29.6376 43.6303C27.9671 42.4607 18.8402 45.9267 25.0016 46.9194C41.8045 49.6277 55.6318 45.6999 51.2732 43.746ZM33.6646 31.0305C33.6646 31.0305 26.0133 32.8367 30.955 33.4926C33.0416 33.7702 37.2012 33.7074 41.0755 33.3848C44.242 33.1193 47.4216 32.555 47.4216 32.555C47.4216 32.555 46.3051 33.0302 45.4973 33.5783C37.7275 35.6094 22.7178 34.6644 27.0389 32.587C30.6933 30.8314 33.6646 31.0305 33.6646 31.0305ZM47.3901 38.6556C55.2884 34.5765 51.6366 30.6563 49.0876 31.1846C48.4628 31.3138 48.1842 31.4258 48.1842 31.4258C48.1842 31.4258 48.4163 31.0647 48.859 30.9084C53.9017 29.1464 57.7798 36.1051 47.2312 38.8613C47.2312 38.8613 47.3537 38.7528 47.3901 38.6556Z" fill="#5382A1"/>
<path d="M42.6281 8.00009C42.6281 8.00009 47.0024 12.3489 38.4794 19.0364C31.6448 24.4007 36.9209 27.4593 38.4765 30.9541C34.4872 27.3765 31.5595 24.2274 33.5236 21.2965C36.4064 16.994 44.393 14.908 42.6281 8.00009Z" fill="#E76F00"/>
<path d="M34.4407 49.7091C42.0221 50.1915 53.6642 49.4415 53.9398 45.8763C53.9398 45.8763 53.4099 47.2278 47.6742 48.3013C41.2034 49.5114 33.2224 49.3702 28.4888 48.5946C28.4888 48.5946 29.4579 49.3916 34.4407 49.7091Z" fill="#5382A1"/>
<path d="M33.1982 63.3325C32.483 63.9491 31.7277 64.2952 31.0498 64.2952C30.0822 64.2952 29.5595 63.7186 29.5595 62.7937C29.5595 61.7933 30.1197 61.0618 32.3666 61.0618H33.1981L33.1982 63.3325ZM35.1717 65.5455V58.6954C35.1717 56.9454 34.1675 55.7908 31.7463 55.7908C30.3328 55.7908 29.0946 56.1377 28.0883 56.5801L28.3787 57.7926C29.1711 57.5036 30.1967 57.2345 31.2034 57.2345C32.5982 57.2345 33.1982 57.7926 33.1982 58.9465V59.8124H32.5021C29.1133 59.8124 27.5847 61.1198 27.5847 63.0821C27.5847 64.7757 28.5921 65.7383 30.4888 65.7383C31.708 65.7383 32.6182 65.238 33.469 64.5058L33.6234 65.5457L35.1717 65.5455ZM41.7577 65.5455H39.2965L36.3343 55.9642H38.4838L40.3218 61.8509L40.7304 63.6213C41.6603 61.0616 42.318 58.4647 42.647 55.9642H44.7379C44.1776 59.1192 43.1695 62.5822 41.7577 65.5455ZM51.1999 63.3325C50.4834 63.9491 49.7267 64.2952 49.0488 64.2952C48.0829 64.2952 47.5588 63.7186 47.5588 62.7937C47.5588 61.7933 48.1201 61.0618 50.3669 61.0618H51.1999V63.3325ZM53.1731 65.5455V58.6954C53.1731 56.9454 52.1666 55.7908 49.748 55.7908C48.3336 55.7908 47.095 56.1377 46.0891 56.5801L46.3792 57.7926C47.1718 57.5036 48.1993 57.2345 49.2052 57.2345C50.599 57.2345 51.1999 57.7926 51.1999 58.9465V59.8124H50.5025C47.1129 59.8124 45.5848 61.1198 45.5848 63.0821C45.5848 64.7757 46.5914 65.7383 48.4878 65.7383C49.7078 65.7383 50.6176 65.238 51.4697 64.5058L51.6247 65.5457L53.1731 65.5455ZM25.4208 67.1725C24.8583 67.9888 23.9496 68.6347 22.9548 69.0001L21.9805 67.8605C22.7376 67.4744 23.387 66.8507 23.6887 66.27C23.9497 65.7533 24.0577 65.0875 24.0577 63.4953V52.5568H26.1544V63.3454C26.1543 65.474 25.9831 66.3339 25.4208 67.1725Z" fill="#E76F00"/>
<defs>
<radialGradient id="paint0_radial_623_7740" cx="0" cy="0" r="1" gradientUnits="userSpaceOnUse" gradientTransform="translate(38.4805 38.5001) rotate(90) scale(38.3064)">
<stop stop-color="#3F6E8D"/>
<stop offset="1" stop-color="#5382A1"/>
</radialGradient>
</defs>
</svg>
