<svg width="77" height="77" viewBox="0 0 77 77" fill="none" xmlns="http://www.w3.org/2000/svg">
<rect x="0.174072" y="0.193634" width="76.6129" height="76.6129" rx="16.4276" fill="url(#paint0_radial_621_7829)" fill-opacity="0.3"/>
<rect x="0.557137" y="0.576699" width="75.8468" height="75.8468" rx="16.0446" stroke="white" stroke-opacity="0.06" stroke-width="0.766129"/>
<path d="M38.4807 16.0001C38.1129 16.0001 37.7491 16.0935 37.4196 16.2833L19.7675 26.4361C19.1072 26.8161 18.7061 27.5497 18.7061 28.3108V48.6867C18.7061 49.4488 19.1077 50.145 19.7675 50.5265L37.4196 60.7142C37.742 60.9015 38.1081 61.0001 38.4809 61.0001C38.8537 61.0001 39.2198 60.9015 39.5421 60.7142L57.1942 50.5265C57.5174 50.3404 57.7857 50.0722 57.972 49.7492C58.1583 49.4261 58.256 49.0596 58.2552 48.6867V28.3108C58.2552 27.5487 57.854 26.8161 57.1942 26.4361L39.5421 16.2833C39.2195 16.0969 38.8533 15.9992 38.4807 16.0001Z" fill="#83CD29"/>
<defs>
<radialGradient id="paint0_radial_621_7829" cx="0" cy="0" r="1" gradientUnits="userSpaceOnUse" gradientTransform="translate(38.4805 38.5001) rotate(90) scale(38.3064)">
<stop stop-color="#5BA501"/>
<stop offset="1" stop-color="#83CD29"/>
</radialGradient>
</defs>
</svg>
