<svg width="188" height="67" viewBox="0 0 188 67" fill="none" xmlns="http://www.w3.org/2000/svg">
<g filter="url(#filter0_dd_375_16031)">
<path opacity="0.57" fill-rule="evenodd" clip-rule="evenodd" d="M26.3887 40.8098C28.7133 43.4379 32.2691 44.6539 35.7616 43.649C39.2518 42.6466 41.766 39.6842 42.5548 36.1619C40.3662 37.3075 37.6553 38.388 34.6616 39.2472C31.6675 40.1089 28.8164 40.6264 26.3887 40.8098Z" fill="url(#paint0_linear_375_16031)"/>
<path fill-rule="evenodd" clip-rule="evenodd" d="M24.107 36.4284C24.3481 37.5085 24.7927 38.4885 25.329 39.3701C27.7727 39.1919 30.6496 38.672 33.674 37.8026C37.265 36.7701 40.4509 35.4207 42.813 34.024C42.8339 33.0741 42.7308 32.1043 42.4897 31.1421C40.6195 23.6526 28.8215 13.2762 22.4309 14.0398L18.2571 21.9037C17.5245 23.2832 19.1991 22.1778 20.8565 21.0721C22.0433 20.2809 23.2213 19.4896 23.5007 19.61C28.3651 21.6978 22.6229 29.8204 24.107 36.4284Z" fill="#B9EC1F"/>
<path fill-rule="evenodd" clip-rule="evenodd" d="M32.2765 29.6898C29.5004 30.4863 26.9487 31.4334 24.7953 32.4261C25.0667 33.8805 25.0175 35.5663 24.107 36.4284C24.107 36.4284 23.5615 35.5439 23.3415 33.1319C19.8091 34.9484 17.7 36.8327 18.0347 38.1744C18.6012 40.4356 25.8907 40.3025 34.3202 37.8803C42.7497 35.456 49.124 31.6572 48.5597 29.3961C48.2321 28.082 45.6361 27.5743 41.865 27.8558C42.4757 29.8155 42.4897 31.1421 42.4897 31.1421C41.5254 30.5543 40.8769 29.25 40.5164 27.9864C38.0727 28.2655 35.2447 28.8355 32.2765 29.6898Z" fill="#B9EC1F"/>
<path d="M40.4661 40.5041C40.5884 40.3532 40.7072 40.1981 40.821 40.0402C40.8217 40.0395 40.822 40.0391 40.8226 40.0384C40.7081 40.1974 40.5891 40.3525 40.4661 40.5041Z" fill="#E8E8E8"/>
<path d="M40.1533 35.8612C40.1719 35.8535 40.1908 35.8458 40.2094 35.8381V35.8378C40.1908 35.8458 40.1719 35.8535 40.1533 35.8612Z" fill="#D1D1D1"/>
<path d="M18.2568 21.9037L18.7273 21.0144C18.7283 21.0137 18.7291 21.013 18.73 21.0123L18.2568 21.9037Z" fill="#D1D1D1"/>
<path d="M41.7124 28.9664C40.7886 26.9374 39.3062 24.8051 37.5238 22.8062C39.3062 24.8048 40.7889 26.9374 41.7124 28.9664ZM37.5137 22.795C37.5134 22.7943 37.512 22.7929 37.5117 22.7926C37.5124 22.7933 37.513 22.7943 37.5137 22.795Z" fill="#B9EC1F"/>
<path d="M48.2573 30.6887C48.5444 30.228 48.6543 29.7976 48.5636 29.4115C48.6553 29.7973 48.545 30.2276 48.2573 30.6887ZM42.2793 29.4815C42.188 29.0141 42.0546 28.4665 41.8651 27.8558C42.0552 28.4661 42.1874 29.0148 42.2797 29.4815C42.2793 29.4815 42.2793 29.4815 42.2793 29.4815Z" fill="#B9EC1F"/>
<path d="M18.3264 27.7056L18.3255 27.7049L18.2506 27.3937L18.3264 27.7056Z" fill="#B9EC1F"/>
<path d="M47.4824 38.0715C47.4824 38.0712 47.4824 38.0712 47.4824 38.0712L47.5317 37.6118L47.4824 38.0715Z" fill="#B9EC1F"/>
</g>
<path d="M69.112 39.288C67.992 39.288 66.952 39.08 65.992 38.664C65.032 38.232 64.216 37.648 63.544 36.912C62.872 36.176 62.376 35.328 62.056 34.368L64.456 33.36C64.888 34.464 65.52 35.312 66.352 35.904C67.184 36.496 68.144 36.792 69.232 36.792C69.872 36.792 70.432 36.696 70.912 36.504C71.392 36.296 71.76 36.008 72.016 35.64C72.288 35.272 72.424 34.848 72.424 34.368C72.424 33.712 72.24 33.192 71.872 32.808C71.504 32.424 70.96 32.12 70.24 31.896L66.88 30.84C65.536 30.424 64.512 29.792 63.808 28.944C63.104 28.08 62.752 27.072 62.752 25.92C62.752 24.912 63 24.032 63.496 23.28C63.992 22.512 64.672 21.912 65.536 21.48C66.416 21.048 67.416 20.832 68.536 20.832C69.608 20.832 70.584 21.024 71.464 21.408C72.344 21.776 73.096 22.288 73.72 22.944C74.36 23.6 74.824 24.36 75.112 25.224L72.76 26.256C72.408 25.312 71.856 24.584 71.104 24.072C70.368 23.56 69.512 23.304 68.536 23.304C67.944 23.304 67.424 23.408 66.976 23.616C66.528 23.808 66.176 24.096 65.92 24.48C65.68 24.848 65.56 25.28 65.56 25.776C65.56 26.352 65.744 26.864 66.112 27.312C66.48 27.76 67.04 28.096 67.792 28.32L70.912 29.304C72.336 29.736 73.408 30.36 74.128 31.176C74.848 31.976 75.208 32.976 75.208 34.176C75.208 35.168 74.944 36.048 74.416 36.816C73.904 37.584 73.192 38.192 72.28 38.64C71.368 39.072 70.312 39.288 69.112 39.288ZM77.1231 43.8V26.016H79.7151V28.704L79.4031 28.08C79.8831 27.344 80.5231 26.768 81.3231 26.352C82.1231 25.936 83.0351 25.728 84.0591 25.728C85.2911 25.728 86.3951 26.024 87.3711 26.616C88.3631 27.208 89.1391 28.016 89.6991 29.04C90.2751 30.064 90.5631 31.216 90.5631 32.496C90.5631 33.776 90.2751 34.928 89.6991 35.952C89.1391 36.976 88.3711 37.792 87.3951 38.4C86.4191 38.992 85.3071 39.288 84.0591 39.288C83.0511 39.288 82.1311 39.08 81.2991 38.664C80.4831 38.248 79.8511 37.648 79.4031 36.864L79.8351 36.36V43.8H77.1231ZM83.7951 36.768C84.5631 36.768 85.2431 36.584 85.8351 36.216C86.4271 35.848 86.8911 35.344 87.2271 34.704C87.5791 34.048 87.7551 33.312 87.7551 32.496C87.7551 31.68 87.5791 30.952 87.2271 30.312C86.8911 29.672 86.4271 29.168 85.8351 28.8C85.2431 28.432 84.5631 28.248 83.7951 28.248C83.0431 28.248 82.3631 28.432 81.7551 28.8C81.1631 29.168 80.6911 29.672 80.3391 30.312C80.0031 30.952 79.8351 31.68 79.8351 32.496C79.8351 33.312 80.0031 34.048 80.3391 34.704C80.6911 35.344 81.1631 35.848 81.7551 36.216C82.3631 36.584 83.0431 36.768 83.7951 36.768ZM98.2972 39.288C97.0012 39.288 95.8492 38.992 94.8412 38.4C93.8492 37.792 93.0732 36.976 92.5132 35.952C91.9532 34.912 91.6732 33.752 91.6732 32.472C91.6732 31.16 91.9532 30 92.5132 28.992C93.0892 27.984 93.8572 27.192 94.8172 26.616C95.7772 26.024 96.8652 25.728 98.0812 25.728C99.0572 25.728 99.9292 25.896 100.697 26.232C101.465 26.568 102.113 27.032 102.641 27.624C103.169 28.2 103.569 28.864 103.841 29.616C104.129 30.368 104.273 31.168 104.273 32.016C104.273 32.224 104.265 32.44 104.249 32.664C104.233 32.888 104.201 33.096 104.153 33.288H93.8092V31.128H102.617L101.321 32.112C101.481 31.328 101.425 30.632 101.153 30.024C100.897 29.4 100.497 28.912 99.9532 28.56C99.4252 28.192 98.8012 28.008 98.0812 28.008C97.3612 28.008 96.7212 28.192 96.1612 28.56C95.6012 28.912 95.1692 29.424 94.8652 30.096C94.5612 30.752 94.4412 31.552 94.5052 32.496C94.4252 33.376 94.5452 34.144 94.8652 34.8C95.2012 35.456 95.6652 35.968 96.2572 36.336C96.8652 36.704 97.5532 36.888 98.3212 36.888C99.1052 36.888 99.7692 36.712 100.313 36.36C100.873 36.008 101.313 35.552 101.633 34.992L103.841 36.072C103.585 36.68 103.185 37.232 102.641 37.728C102.113 38.208 101.473 38.592 100.721 38.88C99.9852 39.152 99.1772 39.288 98.2972 39.288ZM105.92 39V20.832H108.632V39H105.92ZM110.803 39V20.832H113.515V39H110.803ZM120.486 39.288C119.158 39.288 117.99 38.96 116.982 38.304C115.99 37.648 115.294 36.768 114.894 35.664L116.982 34.68C117.334 35.416 117.814 36 118.422 36.432C119.046 36.864 119.734 37.08 120.486 37.08C121.126 37.08 121.646 36.936 122.046 36.648C122.446 36.36 122.646 35.968 122.646 35.472C122.646 35.152 122.558 34.896 122.382 34.704C122.206 34.496 121.982 34.328 121.71 34.2C121.454 34.072 121.19 33.976 120.918 33.912L118.878 33.336C117.758 33.016 116.918 32.536 116.358 31.896C115.814 31.24 115.542 30.48 115.542 29.616C115.542 28.832 115.742 28.152 116.142 27.576C116.542 26.984 117.094 26.528 117.798 26.208C118.502 25.888 119.294 25.728 120.174 25.728C121.358 25.728 122.414 26.024 123.342 26.616C124.27 27.192 124.926 28 125.31 29.04L123.222 30.024C122.966 29.4 122.558 28.904 121.998 28.536C121.454 28.168 120.838 27.984 120.15 27.984C119.558 27.984 119.086 28.128 118.734 28.416C118.382 28.688 118.206 29.048 118.206 29.496C118.206 29.8 118.286 30.056 118.446 30.264C118.606 30.456 118.814 30.616 119.07 30.744C119.326 30.856 119.59 30.952 119.862 31.032L121.974 31.656C123.046 31.96 123.87 32.44 124.446 33.096C125.022 33.736 125.31 34.504 125.31 35.4C125.31 36.168 125.102 36.848 124.686 37.44C124.286 38.016 123.726 38.472 123.006 38.808C122.286 39.128 121.446 39.288 120.486 39.288ZM135.559 39.288C134.295 39.288 133.119 39.056 132.031 38.592C130.959 38.128 130.023 37.488 129.223 36.672C128.439 35.84 127.823 34.864 127.375 33.744C126.927 32.624 126.703 31.392 126.703 30.048C126.703 28.72 126.919 27.496 127.351 26.376C127.799 25.24 128.423 24.264 129.223 23.448C130.023 22.616 130.959 21.976 132.031 21.528C133.103 21.064 134.279 20.832 135.559 20.832C136.823 20.832 137.951 21.048 138.943 21.48C139.951 21.912 140.799 22.48 141.487 23.184C142.175 23.872 142.671 24.624 142.975 25.44L140.431 26.64C140.047 25.68 139.431 24.904 138.583 24.312C137.751 23.704 136.743 23.4 135.559 23.4C134.375 23.4 133.327 23.68 132.415 24.24C131.503 24.8 130.791 25.576 130.279 26.568C129.783 27.56 129.535 28.72 129.535 30.048C129.535 31.376 129.783 32.544 130.279 33.552C130.791 34.544 131.503 35.32 132.415 35.88C133.327 36.424 134.375 36.696 135.559 36.696C136.743 36.696 137.751 36.4 138.583 35.808C139.431 35.216 140.047 34.44 140.431 33.48L142.975 34.68C142.671 35.48 142.175 36.232 141.487 36.936C140.799 37.64 139.951 38.208 138.943 38.64C137.951 39.072 136.823 39.288 135.559 39.288ZM150.653 39.288C149.405 39.288 148.261 38.992 147.221 38.4C146.197 37.808 145.381 37 144.773 35.976C144.165 34.952 143.861 33.792 143.861 32.496C143.861 31.184 144.165 30.024 144.773 29.016C145.381 27.992 146.197 27.192 147.221 26.616C148.245 26.024 149.389 25.728 150.653 25.728C151.933 25.728 153.077 26.024 154.085 26.616C155.109 27.192 155.917 27.992 156.509 29.016C157.117 30.024 157.421 31.184 157.421 32.496C157.421 33.808 157.117 34.976 156.509 36C155.901 37.024 155.085 37.832 154.061 38.424C153.037 39 151.901 39.288 150.653 39.288ZM150.653 36.768C151.421 36.768 152.101 36.584 152.693 36.216C153.285 35.848 153.749 35.344 154.085 34.704C154.437 34.048 154.613 33.312 154.613 32.496C154.613 31.68 154.437 30.952 154.085 30.312C153.749 29.672 153.285 29.168 152.693 28.8C152.101 28.432 151.421 28.248 150.653 28.248C149.901 28.248 149.221 28.432 148.613 28.8C148.021 29.168 147.549 29.672 147.197 30.312C146.861 30.952 146.693 31.68 146.693 32.496C146.693 33.312 146.861 34.048 147.197 34.704C147.549 35.344 148.021 35.848 148.613 36.216C149.221 36.584 149.901 36.768 150.653 36.768ZM165.068 39.288C163.82 39.288 162.7 38.992 161.708 38.4C160.732 37.792 159.956 36.976 159.38 35.952C158.82 34.928 158.54 33.776 158.54 32.496C158.54 31.216 158.828 30.064 159.404 29.04C159.98 28.016 160.756 27.208 161.732 26.616C162.708 26.024 163.812 25.728 165.044 25.728C166.084 25.728 167.004 25.936 167.804 26.352C168.604 26.768 169.236 27.344 169.7 28.08L169.292 28.704V20.832H171.98V39H169.412V36.36L169.724 36.864C169.276 37.648 168.636 38.248 167.804 38.664C166.972 39.08 166.06 39.288 165.068 39.288ZM165.332 36.768C166.084 36.768 166.756 36.584 167.348 36.216C167.956 35.848 168.428 35.344 168.764 34.704C169.116 34.048 169.292 33.312 169.292 32.496C169.292 31.68 169.116 30.952 168.764 30.312C168.428 29.672 167.956 29.168 167.348 28.8C166.756 28.432 166.084 28.248 165.332 28.248C164.58 28.248 163.9 28.432 163.292 28.8C162.684 29.168 162.212 29.672 161.876 30.312C161.54 30.952 161.372 31.68 161.372 32.496C161.372 33.312 161.54 34.048 161.876 34.704C162.212 35.344 162.676 35.848 163.268 36.216C163.876 36.584 164.564 36.768 165.332 36.768ZM180.243 39.288C178.947 39.288 177.795 38.992 176.787 38.4C175.795 37.792 175.019 36.976 174.459 35.952C173.899 34.912 173.619 33.752 173.619 32.472C173.619 31.16 173.899 30 174.459 28.992C175.035 27.984 175.803 27.192 176.763 26.616C177.723 26.024 178.811 25.728 180.027 25.728C181.003 25.728 181.875 25.896 182.643 26.232C183.411 26.568 184.059 27.032 184.587 27.624C185.115 28.2 185.515 28.864 185.786 29.616C186.075 30.368 186.219 31.168 186.219 32.016C186.219 32.224 186.211 32.44 186.195 32.664C186.179 32.888 186.147 33.096 186.099 33.288H175.755V31.128H184.562L183.267 32.112C183.427 31.328 183.371 30.632 183.099 30.024C182.843 29.4 182.443 28.912 181.899 28.56C181.371 28.192 180.747 28.008 180.027 28.008C179.307 28.008 178.667 28.192 178.107 28.56C177.547 28.912 177.115 29.424 176.811 30.096C176.507 30.752 176.387 31.552 176.451 32.496C176.371 33.376 176.491 34.144 176.811 34.8C177.147 35.456 177.611 35.968 178.203 36.336C178.811 36.704 179.499 36.888 180.267 36.888C181.051 36.888 181.715 36.712 182.259 36.36C182.819 36.008 183.259 35.552 183.579 34.992L185.786 36.072C185.531 36.68 185.131 37.232 184.587 37.728C184.059 38.208 183.419 38.592 182.667 38.88C181.931 39.152 181.123 39.288 180.243 39.288Z" fill="white"/>
<defs>
<filter id="filter0_dd_375_16031" x="0.0692806" y="0.55196" width="66.4566" height="65.8614" filterUnits="userSpaceOnUse" color-interpolation-filters="sRGB">
<feFlood flood-opacity="0" result="BackgroundImageFix"/>
<feColorMatrix in="SourceAlpha" type="matrix" values="0 0 0 0 0 0 0 0 0 0 0 0 0 0 0 0 0 0 127 0" result="hardAlpha"/>
<feOffset dy="5.60335"/>
<feGaussianBlur stdDeviation="2.24134"/>
<feComposite in2="hardAlpha" operator="out"/>
<feColorMatrix type="matrix" values="0 0 0 0 0 0 0 0 0 0 0 0 0 0 0 0 0 0 0.25 0"/>
<feBlend mode="normal" in2="BackgroundImageFix" result="effect1_dropShadow_375_16031"/>
<feColorMatrix in="SourceAlpha" type="matrix" values="0 0 0 0 0 0 0 0 0 0 0 0 0 0 0 0 0 0 127 0" result="hardAlpha"/>
<feOffset dy="4.48268"/>
<feGaussianBlur stdDeviation="8.96536"/>
<feComposite in2="hardAlpha" operator="out"/>
<feColorMatrix type="matrix" values="0 0 0 0 0.256717 0 0 0 0 0.321338 0 0 0 0 0.0583994 0 0 0 1 0"/>
<feBlend mode="normal" in2="effect1_dropShadow_375_16031" result="effect2_dropShadow_375_16031"/>
<feBlend mode="normal" in="SourceGraphic" in2="effect2_dropShadow_375_16031" result="shape"/>
</filter>
<linearGradient id="paint0_linear_375_16031" x1="32.6822" y1="38.6241" x2="34.7088" y2="43.9091" gradientUnits="userSpaceOnUse">
<stop stop-color="#B9EC1F"/>
<stop offset="1" stop-color="#B9EC1F" stop-opacity="0.4"/>
</linearGradient>
</defs>
</svg>
