<svg width="77" height="77" viewBox="0 0 77 77" fill="none" xmlns="http://www.w3.org/2000/svg">
<rect x="0.193604" y="0.193588" width="76.6129" height="76.6129" rx="16.4276" fill="url(#paint0_radial_586_10582)"/>
<rect x="0.193604" y="0.193588" width="76.6129" height="76.6129" rx="16.4276" fill="url(#paint1_radial_586_10582)" fill-opacity="0.3"/>
<rect x="0.576668" y="0.576653" width="75.8468" height="75.8468" rx="16.0446" stroke="white" stroke-opacity="0.06" stroke-width="0.766129"/>
<path d="M66.0749 38.5055C66.0749 34.9268 61.4997 31.5352 54.4852 29.432C56.1039 22.4287 55.3845 16.8568 52.2144 15.073C51.4837 14.6545 50.6294 14.4563 49.6964 14.4563V16.9119C50.2135 16.9119 50.6294 17.011 50.9779 17.1982C52.5067 18.0571 53.1699 21.3275 52.6528 25.5339C52.5292 26.569 52.3268 27.6592 52.0795 28.7713C49.8762 28.2428 47.4706 27.8353 44.9413 27.5711C43.4237 25.5339 41.8499 23.684 40.2649 22.0653C43.9296 18.7288 47.3694 16.9009 49.7076 16.9009V14.4453C46.6162 14.4453 42.5694 16.6036 38.4775 20.3475C34.3857 16.6256 30.3388 14.4893 27.2474 14.4893V16.9449C29.5744 16.9449 33.0255 18.7618 36.6901 22.0763C35.1164 23.695 33.5426 25.5339 32.0475 27.5711C29.5069 27.8353 27.1013 28.2428 24.898 28.7823C24.6395 27.6812 24.4484 26.6131 24.3135 25.589C23.7851 21.3826 24.4371 18.1121 25.9547 17.2422C26.2919 17.044 26.7303 16.9559 27.2474 16.9559V14.5004C26.3032 14.5004 25.4488 14.6986 24.7069 15.117C21.5481 16.9009 20.8399 22.4617 22.4699 29.443C15.4778 31.5573 10.925 34.9378 10.925 38.5055C10.925 42.0843 15.5003 45.4759 22.5148 47.5791C20.8961 54.5824 21.6155 60.1543 24.7856 61.9381C25.5163 62.3566 26.3706 62.5548 27.3149 62.5548C30.4063 62.5548 34.4531 60.3965 38.545 56.6526C42.6368 60.3745 46.6837 62.5107 49.775 62.5107C50.7193 62.5107 51.5737 62.3125 52.3156 61.8941C55.4744 60.1102 56.1826 54.5494 54.5526 47.5681C61.5222 45.4648 66.0749 42.0733 66.0749 38.5055ZM51.4388 31.1608C51.0228 32.5813 50.5057 34.0459 49.9212 35.5104C49.4603 34.6295 48.9769 33.7486 48.4486 32.8676C47.9315 31.9867 47.3806 31.1278 46.8298 30.2909C48.4261 30.5222 49.9661 30.8085 51.4388 31.1608ZM46.2902 42.8881C45.4134 44.3747 44.5141 45.7842 43.5811 47.0946C41.9061 47.2377 40.2087 47.3148 38.5 47.3148C36.8026 47.3148 35.1051 47.2377 33.4414 47.1056C32.5084 45.7952 31.5978 44.3967 30.721 42.9212C29.8667 41.4787 29.091 40.0141 28.3828 38.5386C29.0798 37.063 29.8667 35.5875 30.7098 34.145C31.5866 32.6584 32.4859 31.2489 33.4189 29.9386C35.0939 29.7954 36.7913 29.7183 38.5 29.7183C40.1974 29.7183 41.8949 29.7954 43.5586 29.9275C44.4916 31.2379 45.4022 32.6364 46.279 34.1119C47.1333 35.5544 47.909 37.019 48.6172 38.4945C47.909 39.9701 47.1333 41.4456 46.2902 42.8881ZM49.9212 41.4566C50.5282 42.9322 51.0453 44.4077 51.4725 45.8392C49.9999 46.1916 48.4486 46.4889 46.8411 46.7202C47.3919 45.8723 47.9427 45.0024 48.4598 44.1104C48.9769 43.2295 49.4603 42.3376 49.9212 41.4566ZM38.5225 53.206C37.477 52.1489 36.4316 50.9706 35.3974 49.6823C36.4091 49.7263 37.4433 49.7594 38.4888 49.7594C39.5454 49.7594 40.5909 49.7373 41.6138 49.6823C40.6021 50.9706 39.5567 52.1489 38.5225 53.206ZM30.1589 46.7202C28.5627 46.4889 27.0226 46.2026 25.55 45.8503C25.9659 44.4298 26.483 42.9652 27.0676 41.5007C27.5285 42.3816 28.0119 43.2625 28.5402 44.1435C29.0685 45.0244 29.6081 45.8833 30.1589 46.7202ZM38.4663 23.8051C39.5117 24.8622 40.5572 26.0405 41.5914 27.3288C40.5796 27.2848 39.5454 27.2517 38.5 27.2517C37.4433 27.2517 36.3979 27.2738 35.3749 27.3288C36.3866 26.0405 37.4321 24.8622 38.4663 23.8051ZM30.1477 30.2909C29.5969 31.1388 29.0461 32.0087 28.529 32.9007C28.0119 33.7816 27.5285 34.6625 27.0676 35.5434C26.4605 34.0679 25.9434 32.5923 25.5163 31.1608C26.9889 30.8195 28.5402 30.5222 30.1477 30.2909ZM19.9743 44.0774C15.9949 42.4146 13.4206 40.2344 13.4206 38.5055C13.4206 36.7767 15.9949 34.5854 19.9743 32.9337C20.9411 32.5263 21.9977 32.1629 23.0882 31.8215C23.7289 33.9798 24.572 36.2262 25.6175 38.5276C24.5832 40.818 23.7514 43.0533 23.1219 45.2006C22.009 44.8592 20.9523 44.4848 19.9743 44.0774ZM26.0221 59.8129C24.4933 58.954 23.8301 55.6836 24.3472 51.4772C24.4708 50.4421 24.6732 49.3519 24.9205 48.2398C27.1238 48.7683 29.5294 49.1757 32.0587 49.44C33.5763 51.4772 35.1501 53.3271 36.7351 54.9458C33.0704 58.2823 29.6306 60.1102 27.2924 60.1102C26.7865 60.0992 26.3594 60.0001 26.0221 59.8129ZM52.6865 51.4221C53.2149 55.6285 52.5629 58.8989 51.0453 59.7689C50.7081 59.9671 50.2697 60.0552 49.7526 60.0552C47.4256 60.0552 43.9745 58.2383 40.3099 54.9238C41.8836 53.3051 43.4574 51.4661 44.9525 49.429C47.4931 49.1647 49.8987 48.7573 52.102 48.2177C52.3605 49.3299 52.5629 50.398 52.6865 51.4221ZM57.0145 44.0774C56.0477 44.4848 54.991 44.8482 53.9006 45.1896C53.2598 43.0313 52.4168 40.7849 51.3713 38.4835C52.4055 36.1931 53.2374 33.9578 53.8669 31.8105C54.9798 32.1519 56.0365 32.5263 57.0257 32.9337C61.0051 34.5964 63.5794 36.7767 63.5794 38.5055C63.5681 40.2344 60.9939 42.4257 57.0145 44.0774Z" fill="#61DAFB"/>
<path d="M38.4888 43.5378C41.326 43.5378 43.626 41.2848 43.626 38.5055C43.626 35.7263 41.326 33.4733 38.4888 33.4733C35.6515 33.4733 33.3515 35.7263 33.3515 38.5055C33.3515 41.2848 35.6515 43.5378 38.4888 43.5378Z" fill="#61DAFB"/>
<defs>
<radialGradient id="paint0_radial_586_10582" cx="0" cy="0" r="1" gradientUnits="userSpaceOnUse" gradientTransform="translate(38.5001 38.5) rotate(90) scale(38.3064)">
<stop stop-color="white" stop-opacity="0"/>
<stop offset="1" stop-color="white" stop-opacity="0.05"/>
</radialGradient>
<radialGradient id="paint1_radial_586_10582" cx="0" cy="0" r="1" gradientUnits="userSpaceOnUse" gradientTransform="translate(38.5001 38.5) rotate(90) scale(40.4538)">
<stop offset="0.49257" stop-color="#3A99B3"/>
<stop offset="1" stop-color="#61DAFB"/>
</radialGradient>
</defs>
</svg>
