<svg width="77" height="77" viewBox="0 0 77 77" fill="none" xmlns="http://www.w3.org/2000/svg">
<rect x="0.174072" y="0.174225" width="76.6129" height="76.6129" rx="16.4276" fill="url(#paint0_radial_621_7735)" fill-opacity="0.3"/>
<rect x="0.557137" y="0.557289" width="75.8468" height="75.8468" rx="16.0446" stroke="white" stroke-opacity="0.06" stroke-width="0.766129"/>
<path fill-rule="evenodd" clip-rule="evenodd" d="M23.4805 15.4807C19.0622 15.4807 15.4805 19.0624 15.4805 23.4807V53.4807C15.4805 57.899 19.0622 61.4807 23.4805 61.4807H53.4805C57.8987 61.4807 61.4805 57.899 61.4805 53.4807V23.4807C61.4805 19.0624 57.8987 15.4807 53.4805 15.4807H23.4805ZM52.0633 41.6596C52.5571 42.0554 52.8365 42.6105 52.9016 43.3252H56.2796C56.2633 42.2444 55.9974 41.2935 55.4819 40.4725C54.9664 39.6516 54.2447 39.0107 53.3168 38.5501C52.3943 38.0894 51.3144 37.859 50.0772 37.859C48.8617 37.859 47.7764 38.0894 46.8213 38.5501C45.8663 39.0107 45.1147 39.6516 44.5666 40.4725C44.024 41.2935 43.7554 42.2532 43.7608 43.3518C43.7554 44.6925 44.1597 45.7585 44.9736 46.5499C45.7876 47.3414 46.8973 47.9231 48.3027 48.2952L50.1179 48.7913C50.7256 48.9508 51.2384 49.128 51.6563 49.3229C52.0795 49.5178 52.3997 49.754 52.6168 50.0316C52.8392 50.3092 52.9505 50.6518 52.9505 51.0593C52.9505 51.4963 52.8284 51.8832 52.5842 52.2198C52.34 52.5565 51.9954 52.8193 51.5505 53.0083C51.1109 53.1973 50.5927 53.2918 49.9958 53.2918C49.388 53.2918 48.8427 53.1914 48.3597 52.9906C47.8822 52.7839 47.4996 52.4797 47.212 52.0781C46.9299 51.6706 46.7698 51.1626 46.7318 50.5543H43.3213C43.3484 51.8596 43.6387 52.9551 44.1922 53.8411C44.7511 54.7211 45.5271 55.3855 46.5202 55.8344C47.5186 56.2833 48.6907 56.5077 50.0365 56.5077C51.3931 56.5077 52.5516 56.2862 53.5121 55.8433C54.478 55.3944 55.216 54.7654 55.7261 53.9562C56.2416 53.1412 56.5021 52.1785 56.5075 51.0681C56.5021 50.3121 56.3746 49.6418 56.125 49.0571C55.8808 48.4724 55.5362 47.9645 55.0912 47.5333C54.6462 47.1022 54.1199 46.7389 53.5121 46.4436C52.9044 46.1483 52.2369 45.9121 51.5098 45.7349L50.0121 45.3451C49.6485 45.2565 49.3066 45.1502 48.9865 45.0261C48.6663 44.8962 48.3841 44.7456 48.14 44.5743C47.8958 44.3971 47.7031 44.1875 47.562 43.9453C47.4264 43.7032 47.364 43.4197 47.3748 43.0948C47.3748 42.705 47.4779 42.3566 47.6841 42.0495C47.8958 41.7423 48.1996 41.5031 48.5958 41.3319C48.9919 41.1547 49.4776 41.0661 50.0528 41.0661C50.8993 41.0661 51.5695 41.2639 52.0633 41.6596ZM27.9129 38.1071V41.2698H33.0165V56.2508H36.5002V41.2698H41.6038V38.1071H27.9129Z" fill="#007ACC"/>
<defs>
<radialGradient id="paint0_radial_621_7735" cx="0" cy="0" r="1" gradientUnits="userSpaceOnUse" gradientTransform="translate(38.4805 38.4807) rotate(90) scale(38.3064)">
<stop stop-color="#005CAE"/>
<stop offset="1" stop-color="#007ACC"/>
</radialGradient>
</defs>
</svg>
