<svg width="77" height="77" viewBox="0 0 77 77" fill="none" xmlns="http://www.w3.org/2000/svg">
<rect x="0.193604" y="0.193542" width="76.6129" height="76.6129" rx="16.4276" fill="url(#paint0_radial_586_10595)"/>
<rect x="0.193604" y="0.193542" width="76.6129" height="76.6129" rx="16.4276" fill="url(#paint1_radial_586_10595)" fill-opacity="0.3"/>
<rect x="0.576668" y="0.576607" width="75.8468" height="75.8468" rx="16.0446" stroke="white" stroke-opacity="0.06" stroke-width="0.766129"/>
<path d="M15.032 38.5C15.032 32.0218 17.3238 26.4909 21.9074 21.9073C26.491 17.3238 32.0218 15.032 38.5 15.032C44.9781 15.032 50.509 17.3238 55.0927 21.9073C59.6762 26.4909 61.9681 32.0218 61.9681 38.5C61.9681 44.9781 59.6763 50.509 55.0927 55.0926C50.5091 59.6762 44.9782 61.968 38.5 61.968C32.0218 61.968 26.491 59.6762 21.9074 55.0926C17.3238 50.509 15.032 44.9781 15.032 38.5ZM17.5988 38.5C17.5988 44.2448 19.6461 49.1645 23.7408 53.2592C27.8355 57.3538 32.7552 59.4012 38.5 59.4012C44.2448 59.4012 49.1645 57.3539 53.2592 53.2592C57.3539 49.1645 59.4012 44.2448 59.4012 38.5C59.4012 32.7552 57.354 27.8355 53.2592 23.7408C49.1645 19.6461 44.2448 17.5988 38.5 17.5988C32.7552 17.5988 27.8355 19.6461 23.7408 23.7408C19.6461 27.8355 17.5988 32.7552 17.5988 38.5ZM24.1992 43.5419C24.077 43.4197 24.077 43.2975 24.1992 43.1752C24.4436 42.9308 24.7493 42.8391 25.1159 42.9002C25.4826 42.9613 25.6965 43.0224 25.7576 43.0836C26.1854 43.2669 26.6591 43.6794 27.1785 44.3212C27.6979 44.9629 28.1105 45.4059 28.4161 45.6504C29.8828 46.8727 31.3801 46.9643 32.908 45.9254C33.0302 45.4976 33.2288 45.1309 33.5038 44.8253C33.7788 44.5197 34.0386 44.3059 34.283 44.1836C34.5275 44.0614 34.9554 43.878 35.5665 43.6336C33.5497 43.4502 31.9149 43.0988 30.662 42.5793C29.4092 42.0598 28.416 41.4029 27.6827 40.6084C26.7048 39.5083 26.1089 38.0721 25.895 36.2998C25.6811 34.5275 25.8186 32.9079 26.3076 31.4412C26.6743 30.5245 27.1937 29.6995 27.866 28.966C27.377 27.4382 27.4687 25.6964 28.141 23.7407C30.0966 23.863 31.869 24.5352 33.4579 25.7575C36.5137 24.963 39.6916 24.9325 42.9918 25.6658C43.4196 25.3603 44.0766 24.9783 44.9627 24.5199C45.8489 24.0616 46.9642 23.8018 48.3088 23.7407C48.5532 24.413 48.7213 25.2074 48.813 26.1242C48.9046 27.0409 48.8588 27.8965 48.6755 28.691C50.0811 30.1577 50.8145 32.1134 50.8756 34.558C50.8756 36.5136 50.5395 38.1332 49.8672 39.4166C49.195 40.7 48.0032 41.7695 46.292 42.6251C45.1308 43.1751 43.603 43.5112 41.7084 43.6335C42.5641 44.0613 43.1905 44.5044 43.5877 44.9627C43.985 45.4211 44.2447 46.1392 44.367 47.117V50.0047L44.4586 52.8007C44.642 53.1063 44.8559 53.366 45.1004 53.58C45.3448 53.7939 45.5587 53.9467 45.7421 54.0383C45.9254 54.13 45.9865 54.2675 45.9254 54.4509C45.8643 54.6342 45.6198 54.7259 45.192 54.7259C44.1531 54.7259 43.3281 54.3592 42.7169 53.6258C42.5336 53.3202 42.4419 52.9536 42.4419 52.5257V48.1255C42.4419 47.6366 42.3197 47.2851 42.0752 47.0712C41.8307 46.8573 41.5863 46.7198 41.3418 46.6587V52.434C41.3418 53.473 41.4641 54.1452 41.7085 54.4508C41.953 54.7564 42.1058 55.062 42.1669 55.3675C42.228 55.4286 42.1822 55.4744 42.0294 55.505C41.8767 55.5355 41.6169 55.4897 41.2502 55.3675C40.4557 55.1842 39.9056 54.7716 39.6001 54.1299C39.2945 53.4882 39.1417 52.8006 39.1417 52.0673V46.3838H37.95V52.0674C37.95 52.8008 37.7971 53.5037 37.4916 54.1759C37.0638 55.0315 36.2693 55.4898 35.1081 55.5509C34.9248 55.4898 34.8331 55.4287 34.8331 55.3676C34.8942 55.3065 35.0776 55.001 35.3832 54.4509C35.4443 54.3287 35.5207 54.0842 35.6124 53.7176C35.7041 53.3509 35.7499 52.9231 35.7499 52.4342V46.6588C35.5054 46.7199 35.2762 46.8574 35.0623 47.0713C34.8484 47.2853 34.7414 47.6367 34.7414 48.1256V52.5258C34.7414 52.9536 34.6498 53.3203 34.4664 53.6259C33.9164 54.3593 33.0914 54.726 31.9913 54.726C31.5635 54.726 31.3191 54.6343 31.258 54.451C31.1968 54.3288 31.2121 54.2218 31.3038 54.1301C31.3955 54.0384 31.533 53.9315 31.7164 53.8092C31.8997 53.687 32.0219 53.5953 32.0831 53.5342C32.3275 53.3509 32.5108 53.1064 32.6331 52.8008C32.8164 52.5564 32.8622 51.9147 32.7706 50.8757C32.6789 49.8368 32.6636 49.1645 32.7247 48.8589C31.1357 49.409 29.5162 49.1339 27.8661 48.0339C27.3771 47.545 26.8882 46.8421 26.3993 45.9254C26.0326 45.2531 25.2992 44.4586 24.1992 43.5419Z" fill="#B287F4"/>
<defs>
<radialGradient id="paint0_radial_586_10595" cx="0" cy="0" r="1" gradientUnits="userSpaceOnUse" gradientTransform="translate(38.5001 38.5) rotate(90) scale(38.3064)">
<stop stop-color="white" stop-opacity="0"/>
<stop offset="1" stop-color="white" stop-opacity="0.05"/>
</radialGradient>
<radialGradient id="paint1_radial_586_10595" cx="0" cy="0" r="1" gradientUnits="userSpaceOnUse" gradientTransform="translate(38.5001 38.5) rotate(90) scale(40.4538)">
<stop offset="0.49257" stop-color="#7344BA"/>
<stop offset="1" stop-color="#B287F4"/>
</radialGradient>
</defs>
</svg>
