<svg width="77" height="77" viewBox="0 0 77 77" fill="none" xmlns="http://www.w3.org/2000/svg">
<rect x="0.174072" y="0.19363" width="76.6129" height="76.6129" rx="16.4276" fill="url(#paint0_radial_621_7797)" fill-opacity="0.3"/>
<rect x="0.557137" y="0.576695" width="75.8468" height="75.8468" rx="16.0446" stroke="white" stroke-opacity="0.06" stroke-width="0.766129"/>
<g clip-path="url(#clip0_621_7797)">
<path d="M22.1237 56.2863L18.8335 16.0752L58.1275 16.1561L54.6484 56.2863L38.6288 60.9249L22.1237 56.2863Z" fill="#E34F26"/>
<path d="M50.3605 29.1823L50.8187 24.2737H25.9263L27.3016 39.3227H44.481L43.8073 45.7413L38.3055 47.2243L32.7229 45.6063L32.4263 41.7767H27.4904L28.1648 49.5978L38.3051 52.4295L48.5263 49.5978L49.9016 34.3333H31.8597L31.3473 29.1823H50.3605Z" fill="white"/>
</g>
<defs>
<radialGradient id="paint0_radial_621_7797" cx="0" cy="0" r="1" gradientUnits="userSpaceOnUse" gradientTransform="translate(38.4805 38.5001) rotate(90) scale(38.3064)">
<stop stop-color="#D9451C"/>
<stop offset="1" stop-color="#E34F26"/>
</radialGradient>
<clipPath id="clip0_621_7797">
<rect width="39.294" height="45" fill="white" transform="translate(18.8335 16.0001)"/>
</clipPath>
</defs>
</svg>
