<svg width="77" height="77" viewBox="0 0 77 77" fill="none" xmlns="http://www.w3.org/2000/svg">
<rect x="0.193604" y="0.193604" width="76.6129" height="76.6129" rx="16.4276" fill="url(#paint0_radial_586_10654)"/>
<rect x="0.193604" y="0.193604" width="76.6129" height="76.6129" rx="16.4276" fill="url(#paint1_radial_586_10654)" fill-opacity="0.3"/>
<rect x="0.576668" y="0.576668" width="75.8468" height="75.8468" rx="16.0446" stroke="white" stroke-opacity="0.06" stroke-width="0.766129"/>
<g clip-path="url(#clip0_586_10654)">
<path d="M38.3385 19.7363C28.7919 19.7363 29.388 23.8762 29.388 23.8762L29.3986 28.1653H38.5087V29.453H25.7802C25.7802 29.453 19.6714 28.7602 19.6714 38.3926C19.6714 48.0253 25.0033 47.6837 25.0033 47.6837H28.1854V43.2137C28.1854 43.2137 28.0139 37.8818 33.4322 37.8818H42.4678C42.4678 37.8818 47.5443 37.9638 47.5443 32.9756V24.7278C47.5443 24.7278 48.3153 19.7363 38.3385 19.7363ZM33.3152 22.6206C33.5305 22.6204 33.7437 22.6627 33.9426 22.745C34.1415 22.8273 34.3223 22.948 34.4745 23.1002C34.6267 23.2524 34.7474 23.4332 34.8297 23.6321C34.912 23.831 34.9543 24.0442 34.9541 24.2595C34.9543 24.4748 34.912 24.688 34.8297 24.8869C34.7474 25.0858 34.6267 25.2666 34.4745 25.4188C34.3223 25.571 34.1415 25.6918 33.9426 25.774C33.7437 25.8563 33.5305 25.8986 33.3152 25.8984C33.0999 25.8986 32.8867 25.8563 32.6878 25.774C32.4888 25.6918 32.3081 25.571 32.1559 25.4188C32.0036 25.2666 31.8829 25.0858 31.8006 24.8869C31.7183 24.688 31.6761 24.4748 31.6763 24.2595C31.6761 24.0442 31.7183 23.831 31.8006 23.6321C31.8829 23.4332 32.0036 23.2524 32.1559 23.1002C32.3081 22.948 32.4888 22.8273 32.6878 22.745C32.8867 22.6627 33.0999 22.6204 33.3152 22.6206Z" fill="url(#paint2_linear_586_10654)"/>
<path d="M38.6097 57.1458C48.1562 57.1458 47.5601 53.0059 47.5601 53.0059L47.5495 48.7169H38.4393V47.4292H51.1678C51.1678 47.4292 57.2766 48.122 57.2766 38.4893C57.2766 28.8568 51.9447 29.1984 51.9447 29.1984H48.7626V33.6682C48.7626 33.6682 48.9341 39.0001 43.5157 39.0001H34.4802C34.4802 39.0001 29.4037 38.9181 29.4037 43.9065V52.1544C29.4037 52.1544 28.6328 57.1458 38.6095 57.1458H38.6097ZM43.633 54.2617C43.4177 54.2619 43.2045 54.2197 43.0055 54.1374C42.8066 54.0551 42.6259 53.9344 42.4736 53.7822C42.3214 53.6299 42.2007 53.4492 42.1184 53.2503C42.0361 53.0513 41.9939 52.8381 41.9941 52.6229C41.9938 52.4076 42.0361 52.1943 42.1184 51.9954C42.2007 51.7965 42.3214 51.6157 42.4736 51.4634C42.6258 51.3112 42.8066 51.1905 43.0055 51.1082C43.2045 51.0259 43.4177 50.9836 43.633 50.9838C43.8482 50.9836 44.0614 51.0259 44.2604 51.1082C44.4593 51.1905 44.64 51.3112 44.7923 51.4634C44.9445 51.6156 45.0652 51.7964 45.1475 51.9953C45.2298 52.1942 45.272 52.4074 45.2719 52.6227C45.272 52.838 45.2298 53.0512 45.1475 53.2501C45.0652 53.449 44.9445 53.6298 44.7923 53.782C44.64 53.9342 44.4593 54.055 44.2604 54.1372C44.0614 54.2195 43.8482 54.2619 43.633 54.2617Z" fill="url(#paint3_linear_586_10654)"/>
</g>
<defs>
<radialGradient id="paint0_radial_586_10654" cx="0" cy="0" r="1" gradientUnits="userSpaceOnUse" gradientTransform="translate(38.5001 38.5001) rotate(90) scale(38.3064)">
<stop stop-color="white" stop-opacity="0"/>
<stop offset="1" stop-color="white" stop-opacity="0.05"/>
</radialGradient>
<radialGradient id="paint1_radial_586_10654" cx="0" cy="0" r="1" gradientUnits="userSpaceOnUse" gradientTransform="translate(38.5001 38.5001) rotate(90) scale(40.4538)">
<stop offset="0.49257" stop-color="#3176AE"/>
<stop offset="1" stop-color="#397FB8"/>
</radialGradient>
<linearGradient id="paint2_linear_586_10654" x1="381.055" y1="356.213" x2="2244.65" y2="2201.22" gradientUnits="userSpaceOnUse">
<stop stop-color="#387EB8"/>
<stop offset="1" stop-color="#366994"/>
</linearGradient>
<linearGradient id="paint3_linear_586_10654" x1="562.807" y1="604.357" x2="2564.09" y2="2496.24" gradientUnits="userSpaceOnUse">
<stop stop-color="#FFE052"/>
<stop offset="1" stop-color="#FFC331"/>
</linearGradient>
<clipPath id="clip0_586_10654">
<rect width="37.6997" height="37.5489" fill="white" transform="translate(19.6501 19.7256)"/>
</clipPath>
</defs>
</svg>
