<svg width="77" height="77" viewBox="0 0 77 77" fill="none" xmlns="http://www.w3.org/2000/svg">
<rect x="0.174072" y="0.193558" width="76.6129" height="76.6129" rx="16.4276" fill="url(#paint0_radial_586_10276)"/>
<rect x="0.174072" y="0.193558" width="76.6129" height="76.6129" rx="16.4276" fill="url(#paint1_radial_586_10276)" fill-opacity="0.3"/>
<rect x="0.557137" y="0.576622" width="75.8468" height="75.8468" rx="16.0446" stroke="white" stroke-opacity="0.06" stroke-width="0.766129"/>
<g clip-path="url(#clip0_586_10276)">
<path d="M61.0439 41.9958C58.856 42.0081 56.9615 42.5336 55.3725 43.3159C54.7858 42.1548 54.1991 41.1401 54.1014 40.3824C53.9914 39.5024 53.857 38.9645 53.9914 37.9134C54.1258 36.8621 54.7369 35.3709 54.7369 35.2487C54.7246 35.1387 54.6023 34.6009 53.3435 34.5886C52.0847 34.5764 50.9967 34.8331 50.8745 35.1631C50.7522 35.4931 50.5078 36.251 50.3489 37.0332C50.1289 38.1822 47.8309 42.2524 46.5231 44.3914C46.0953 43.5603 45.7286 42.8269 45.6551 42.2401C45.5453 41.3602 45.4107 40.8222 45.5453 39.7712C45.6797 38.7199 46.2909 37.2288 46.2909 37.1066C46.2786 36.9966 46.1564 36.4588 44.8976 36.4465C43.6385 36.4343 42.5508 36.691 42.4285 37.021C42.3063 37.351 42.1718 38.1333 41.9029 38.8911C41.6461 39.6489 38.5904 46.4449 37.7959 48.2172C37.3926 49.1217 37.0382 49.8429 36.7814 50.3318C36.5247 50.8207 36.7692 50.3685 36.7447 50.4174C36.5247 50.8329 36.4025 51.0652 36.4025 51.0652V51.0775C36.2314 51.3831 36.048 51.6763 35.9624 51.6763C35.9012 51.6763 35.779 50.8574 35.9868 49.733C36.439 47.3738 37.5391 43.6949 37.527 43.5604C37.527 43.4993 37.7347 42.8514 36.818 42.5215C35.9257 42.1914 35.608 42.7415 35.5345 42.7415C35.4612 42.7415 35.4001 42.937 35.4001 42.937C35.4001 42.937 36.3902 38.7936 33.5055 38.7936C31.6965 38.7936 29.2031 40.7615 27.9685 42.5582C27.1863 42.9861 25.524 43.8904 23.7639 44.8562C23.0916 45.2228 22.3949 45.614 21.7348 45.9684L21.6005 45.8215C18.1048 42.0935 11.6388 39.4534 11.9077 34.442C12.0055 32.6208 12.6411 27.8171 24.3264 21.999C33.8969 17.2321 41.5607 18.5399 42.8929 21.449C44.7874 25.6048 38.7982 33.3297 28.8488 34.442C25.0597 34.8698 23.0673 33.403 22.5663 32.853C22.0407 32.2785 21.9673 32.2541 21.7718 32.3641C21.454 32.5352 21.6495 33.0486 21.7718 33.3541C22.0651 34.1242 23.2874 35.4931 25.3653 36.1776C27.1864 36.7766 31.6357 37.1066 37.0138 35.0287C43.0397 32.6941 47.7455 26.2159 46.3643 20.8012C44.9587 15.2886 35.8159 13.4796 27.1743 16.5476C22.0283 18.381 16.4547 21.2412 12.4455 24.9936C7.67859 29.4428 6.92077 33.3297 7.23857 34.9431C8.35098 40.7001 16.2835 44.4526 19.4615 47.2272C19.3026 47.3126 19.1559 47.3982 19.0215 47.4716C17.4325 48.2538 11.3821 51.4196 9.8665 54.7686C8.15529 58.5577 10.1354 61.2835 11.4555 61.6502C15.5379 62.787 19.7182 60.7457 21.9794 57.3844C24.2283 54.0231 23.9595 49.6595 22.9206 47.6672L22.8838 47.5939L24.1305 46.8605C24.9374 46.3838 25.7319 45.9438 26.4285 45.5647C26.0374 46.6281 25.7562 47.8871 25.6096 49.7205C25.4385 51.8719 26.3186 54.6586 27.4798 55.7587C27.9931 56.2352 28.6043 56.2476 28.9832 56.2476C30.3277 56.2476 30.9388 55.1352 31.6111 53.803C32.4423 52.1773 33.1756 50.295 33.1756 50.295C33.1756 50.295 32.2589 55.392 34.7646 55.392C35.6813 55.392 36.5981 54.2063 37.0136 53.5952V53.6074C37.0136 53.6074 37.0381 53.5708 37.087 53.4852C37.1383 53.4094 37.1872 53.332 37.2337 53.2531V53.2286C37.6003 52.593 38.4193 51.1385 39.6416 48.7306C41.2182 45.626 42.734 41.7391 42.734 41.7391C42.734 41.7391 42.8807 42.6925 43.3329 44.257C43.6017 45.1861 44.1884 46.2004 44.6406 47.1905C44.2739 47.7039 44.0539 47.9973 44.0539 47.9973L44.0662 48.0096C43.7729 48.4007 43.4428 48.8164 43.1007 49.2318C41.8539 50.723 40.3627 52.4222 40.1672 52.9111C39.9349 53.4854 39.9838 53.9132 40.4361 54.2556C40.7661 54.5001 41.3528 54.5488 41.9762 54.5001C43.1007 54.4266 43.8829 54.1456 44.2741 53.9744C44.8852 53.7543 45.5819 53.4243 46.2542 52.9354C47.4765 52.031 48.2221 50.7476 48.1487 49.0364C48.1121 48.0952 47.8065 47.1663 47.4276 46.2862C47.5376 46.1273 47.6477 45.9683 47.7576 45.7973C49.6888 42.9737 51.18 39.8692 51.18 39.8692C51.18 39.8692 51.3267 40.8226 51.779 42.3871C52.0111 43.1816 52.4757 44.0496 52.8912 44.9052C51.0822 46.3841 49.9455 48.0954 49.5544 49.2199C48.8332 51.2978 49.3955 52.2389 50.4589 52.459C50.9355 52.5567 51.6201 52.3367 52.1333 52.1167C52.7689 51.9089 53.5389 51.5543 54.248 51.0289C55.4703 50.1244 56.6437 48.8654 56.5826 47.1664C56.5459 46.3842 56.3381 45.6141 56.057 44.8807C57.5971 44.2451 59.5893 43.8784 62.1196 44.184C67.5588 44.8196 68.6344 48.2176 68.4267 49.6355C68.2189 51.0534 67.0822 51.8356 66.7032 52.08C66.3243 52.3123 66.202 52.398 66.2387 52.569C66.2876 52.8258 66.4587 52.8134 66.7887 52.7646C67.241 52.6912 69.6489 51.6035 69.7467 48.9879C69.8933 45.6261 66.7032 41.9592 61.0439 41.9958ZM19.0948 56.1377C17.298 58.1056 14.7679 58.8512 13.6923 58.2156C12.5311 57.5433 12.9832 54.6465 15.1957 52.5564C16.5402 51.2852 18.2881 50.1118 19.4371 49.3906C19.6937 49.2317 20.0849 48.9996 20.5493 48.7184C20.6227 48.6696 20.6716 48.645 20.6716 48.645C20.7571 48.5961 20.8549 48.535 20.9527 48.4739C21.7716 51.4563 20.9894 54.072 19.0948 56.1377ZM32.2345 47.2027C31.6111 48.7306 30.291 52.6542 29.4965 52.4341C28.8119 52.2508 28.3965 49.2806 29.362 46.3471C29.8509 44.868 30.8898 43.108 31.501 42.4234C32.4912 41.3234 33.5667 40.9567 33.8357 41.4089C34.1535 41.9957 32.6256 46.2493 32.2345 47.2027ZM43.0762 52.3852C42.8073 52.5198 42.5629 52.6175 42.4529 52.5443C42.3673 52.4954 42.5627 52.312 42.5627 52.312C42.5627 52.312 43.9195 50.8575 44.4573 50.1852C44.7629 49.7942 45.1296 49.342 45.5207 48.8285V48.9752C45.5208 50.7351 43.834 51.9086 43.0762 52.3852ZM51.4366 50.4785C51.241 50.3318 51.2656 49.8795 51.9255 48.4617C52.1823 47.8994 52.7689 46.9583 53.7834 46.066C53.9056 46.4327 53.9791 46.787 53.9667 47.1172C53.9546 49.3173 52.3901 50.1362 51.4366 50.4785Z" fill="#CF649A"/>
</g>
<defs>
<radialGradient id="paint0_radial_586_10276" cx="0" cy="0" r="1" gradientUnits="userSpaceOnUse" gradientTransform="translate(38.4805 38.5) rotate(90) scale(38.3064)">
<stop stop-color="white" stop-opacity="0"/>
<stop offset="1" stop-color="white" stop-opacity="0.05"/>
</radialGradient>
<radialGradient id="paint1_radial_586_10276" cx="0" cy="0" r="1" gradientUnits="userSpaceOnUse" gradientTransform="translate(38.4805 38.5) rotate(90) scale(40.4538)">
<stop offset="0.49257" stop-color="#95416B"/>
<stop offset="1" stop-color="#CF649A"/>
</radialGradient>
<clipPath id="clip0_586_10276">
<rect width="62.5814" height="46.9361" fill="white" transform="translate(7.1897 15.032)"/>
</clipPath>
</defs>
</svg>
