<svg width="77" height="77" viewBox="0 0 77 77" fill="none" xmlns="http://www.w3.org/2000/svg">
<rect x="0.174072" y="0.193634" width="76.6129" height="76.6129" rx="16.4276" fill="url(#paint0_radial_621_7815)" fill-opacity="0.3"/>
<rect x="0.557137" y="0.576699" width="75.8468" height="75.8468" rx="16.0446" stroke="white" stroke-opacity="0.06" stroke-width="0.766129"/>
<path d="M10.8673 33.6299C10.7775 33.6299 10.6877 33.5375 10.7775 33.4451L11.4061 32.5211C11.4959 32.4288 11.5857 32.3364 11.7653 32.3364H23.0811C23.1709 32.3364 23.2607 32.4288 23.1709 32.5211L22.632 33.3527C22.5422 33.4451 22.4524 33.5375 22.2728 33.5375L10.8673 33.6299ZM6.10748 36.5865C6.01767 36.5865 5.92786 36.4941 6.01767 36.4017L6.64632 35.4778C6.73613 35.3854 6.82593 35.293 7.00555 35.293H21.4645C21.5543 35.293 21.6441 35.3854 21.6441 35.4778L21.3747 36.4017C21.3747 36.4941 21.1951 36.5865 21.1053 36.5865H6.10748ZM13.7411 39.6355C13.6513 39.6355 13.5615 39.5431 13.6513 39.4507L14.1003 38.6192C14.1901 38.5268 14.2799 38.4344 14.4596 38.4344H20.7461C20.8359 38.4344 20.9257 38.5268 20.9257 38.6192L20.8359 39.3584C20.8359 39.4507 20.7461 39.5431 20.6563 39.5431L13.7411 39.6355ZM46.6106 32.9831L41.312 34.369C40.8629 34.4614 40.7731 34.5538 40.4139 33.9995C39.9648 33.4451 39.6056 33.0755 38.8872 32.7983C36.9114 31.782 34.9356 32.0592 33.1395 33.2603C30.9841 34.6462 29.9064 36.7713 29.9064 39.4507C29.9064 42.0378 31.7026 44.1629 34.2172 44.5325C36.3726 44.8096 38.1687 44.0705 39.6056 42.4074C39.875 42.0378 40.1445 41.6682 40.5037 41.2062H34.3968C33.7681 41.2062 33.5885 40.7443 33.7681 40.1899C34.2172 39.1736 34.9356 37.5105 35.3847 36.6789C35.4745 36.4941 35.7439 36.1245 36.1929 36.1245H47.6883C47.5985 37.0485 47.5985 37.88 47.5087 38.804C47.1494 41.1139 46.3412 43.3313 44.9043 45.1792C42.6591 48.2282 39.6954 50.1685 35.9235 50.7229C32.7803 51.1849 29.9064 50.5381 27.3918 48.5978C25.0568 46.7499 23.7097 44.3477 23.3505 41.391C22.9015 37.88 23.9791 34.6462 26.0447 31.8744C28.2899 28.8254 31.2535 26.8851 34.9356 26.2383C37.8993 25.6839 40.7731 26.0535 43.2877 27.809C44.9941 28.9178 46.1616 30.4885 46.9698 32.4288C47.0596 32.7983 46.9698 32.8907 46.6106 32.9831Z" fill="#00ACD7"/>
<path d="M57.0283 51.0001C54.1544 50.9077 51.55 50.0761 49.3048 48.1359C47.4189 46.4728 46.2514 44.3477 45.8922 41.853C45.3533 38.1572 46.3412 34.9234 48.4966 32.0592C50.8316 28.9178 53.6156 27.347 57.3875 26.6079C60.6206 26.0535 63.674 26.3307 66.3682 28.271C68.8829 30.0265 70.4096 32.4288 70.8586 35.5702C71.3975 40.0051 70.1402 43.5161 67.2663 46.5651C65.2007 48.7826 62.5963 50.0761 59.7225 50.7229C58.7346 50.9077 57.8365 50.9077 57.0283 51.0001ZM64.5721 37.88C64.5721 37.4181 64.5721 37.1409 64.4823 36.7713C63.9434 33.5375 61.0696 31.6896 58.0162 32.4288C55.0525 33.0755 53.1666 35.0158 52.4481 38.0648C51.9093 40.5595 53.0768 43.1465 55.3219 44.2553C57.0283 44.9944 58.8244 44.902 60.441 44.0705C63.0454 42.777 64.3925 40.6519 64.5721 37.88Z" fill="#00ACD7"/>
<defs>
<radialGradient id="paint0_radial_621_7815" cx="0" cy="0" r="1" gradientUnits="userSpaceOnUse" gradientTransform="translate(38.4805 38.5001) rotate(90) scale(38.3064)">
<stop stop-color="#0098C3"/>
<stop offset="1" stop-color="#00ACD7"/>
</radialGradient>
</defs>
</svg>
