<svg width="77" height="77" viewBox="0 0 77 77" fill="none" xmlns="http://www.w3.org/2000/svg">
<rect x="0.193604" y="0.19355" width="76.6129" height="76.6129" rx="16.4276" fill="url(#paint0_radial_586_10576)"/>
<rect x="0.193604" y="0.19355" width="76.6129" height="76.6129" rx="16.4276" fill="url(#paint1_radial_586_10576)" fill-opacity="0.3"/>
<rect x="0.576668" y="0.576615" width="75.8468" height="75.8468" rx="16.0446" stroke="white" stroke-opacity="0.06" stroke-width="0.766129"/>
<path d="M38.5 22.6591C31.3029 22.6591 26.8049 26.1794 25.0055 33.2193C27.7047 29.699 30.8534 28.3794 34.4516 29.2591C36.5048 29.7611 37.9722 31.2187 39.5968 32.8316C42.2426 35.4589 45.3049 38.4997 51.9944 38.4997C59.1908 38.4997 63.6894 34.9794 65.4882 27.9388C62.7897 31.4591 59.641 32.7794 56.0422 31.8996C53.9896 31.3977 52.5222 29.94 50.8976 28.3272C48.2518 25.6999 45.1888 22.6591 38.5 22.6591ZM25.0055 38.4997C17.8091 38.4997 13.3105 42.02 11.5117 49.0605C14.2102 45.5402 17.3589 44.22 20.9578 45.1004C23.0103 45.603 24.4777 47.06 26.1023 48.6722C28.7482 51.2995 31.8111 54.3409 38.5 54.3409C45.6971 54.3409 50.195 50.8207 51.9944 43.7801C49.2953 47.3004 46.1466 48.6206 42.5484 47.7402C40.4951 47.2389 39.0278 45.7806 37.4032 44.1684C34.7573 41.5411 31.695 38.4997 25.0055 38.4997Z" fill="#06B6D4"/>
<defs>
<radialGradient id="paint0_radial_586_10576" cx="0" cy="0" r="1" gradientUnits="userSpaceOnUse" gradientTransform="translate(38.5001 38.5) rotate(90) scale(38.3064)">
<stop stop-color="white" stop-opacity="0"/>
<stop offset="1" stop-color="white" stop-opacity="0.05"/>
</radialGradient>
<radialGradient id="paint1_radial_586_10576" cx="0" cy="0" r="1" gradientUnits="userSpaceOnUse" gradientTransform="translate(38.5001 38.5) rotate(90) scale(40.4538)">
<stop offset="0.49257" stop-color="#218D9F"/>
<stop offset="1" stop-color="#06B6D4"/>
</radialGradient>
</defs>
</svg>
