<svg width="68" height="68" viewBox="0 0 68 68" fill="none" xmlns="http://www.w3.org/2000/svg">
<rect x="0.881185" y="0.881185" width="65.2517" height="65.2517" rx="32.6259" fill="white"/>
<rect x="0.881185" y="0.881185" width="65.2517" height="65.2517" rx="32.6259" stroke="#EBE6E0" stroke-width="1.76237"/>
<path d="M36.356 19.3424C36.356 18.56 36.9902 17.9258 37.7726 17.9258C38.555 17.9258 39.1893 18.56 39.1893 19.3424V21.4674C39.1893 22.2499 38.555 22.8841 37.7726 22.8841C36.9902 22.8841 36.356 22.2499 36.356 21.4674V19.3424Z" fill="black"/>
<path d="M43.8542 21.174C44.4075 20.6208 45.3045 20.6208 45.8577 21.174C46.411 21.7273 46.411 22.6243 45.8577 23.1775L44.3551 24.6801C43.8019 25.2334 42.9049 25.2334 42.3516 24.6801C41.7984 24.1269 41.7984 23.2299 42.3516 22.6766L43.8542 21.174Z" fill="black"/>
<path d="M42.3516 33.924C41.7984 34.4773 41.7984 35.3743 42.3516 35.9275L43.8542 37.4301C44.4075 37.9834 45.3045 37.9834 45.8577 37.4301C46.411 36.8769 46.411 35.9799 45.8577 35.4266L44.3551 33.924C43.8019 33.3708 42.9049 33.3708 42.3516 33.924Z" fill="black"/>
<path d="M29.6016 23.1775C29.0484 22.6243 29.0484 21.7273 29.6016 21.174C30.1549 20.6208 31.0519 20.6208 31.6051 21.174L33.1077 22.6766C33.661 23.2299 33.661 24.1269 33.1077 24.6801C32.5545 25.2334 31.6575 25.2334 31.1042 24.6801L29.6016 23.1775Z" fill="black"/>
<path d="M47.6893 27.8424H45.5643C44.7819 27.8424 44.1476 28.4767 44.1476 29.2591C44.1476 30.0415 44.7819 30.6758 45.5643 30.6758H47.6893C48.4717 30.6758 49.106 30.0415 49.106 29.2591C49.106 28.4767 48.4717 27.8424 47.6893 27.8424Z" fill="black"/>
<path fill-rule="evenodd" clip-rule="evenodd" d="M34.7577 26.4427C35.3268 26.2578 35.9397 26.2578 36.5088 26.4427C36.9192 26.5761 37.2336 26.8021 37.4813 27.0124C37.7068 27.2039 37.953 27.4501 38.2058 27.703L39.3141 28.8113C39.567 29.0641 39.8133 29.3103 40.0047 29.5359C40.215 29.7836 40.4411 30.0979 40.5744 30.5084C40.7593 31.0774 40.7593 31.6904 40.5744 32.2594C40.4411 32.6699 40.215 32.9842 40.0047 33.2319C39.8133 33.4575 39.567 33.7037 39.3142 33.9565L26.1641 47.1065C25.9114 47.3593 25.6652 47.6056 25.4396 47.7971C25.1919 48.0073 24.8776 48.2334 24.4671 48.3668C23.8981 48.5517 23.2851 48.5517 22.716 48.3668C22.3056 48.2334 21.9913 48.0073 21.7436 47.7971C21.518 47.6056 21.2718 47.3593 21.019 47.1065L19.9107 45.9981C19.6578 45.7454 19.4116 45.4991 19.2201 45.2736C19.0098 45.0259 18.7837 44.7115 18.6504 44.3011C18.4655 43.7321 18.4655 43.1191 18.6504 42.55C18.7837 42.1396 19.0098 41.8252 19.2201 41.5775C19.4116 41.352 19.6578 41.1058 19.9107 40.853L33.0607 27.703C33.3135 27.4502 33.5597 27.2039 33.7852 27.0124C34.0329 26.8021 34.3473 26.5761 34.7577 26.4427ZM34.6975 34.0023C34.5356 33.9498 34.3952 33.8094 34.1144 33.5286L33.4886 32.9028C33.2078 32.622 33.0674 32.4816 33.0148 32.3197C32.9686 32.1773 32.9687 32.0239 33.0151 31.8816C33.0678 31.7198 33.2084 31.5796 33.4895 31.2991L34.8319 29.9598C35.1124 29.6799 35.2527 29.54 35.4143 29.4876C35.5565 29.4415 35.7096 29.4416 35.8518 29.4879C36.0134 29.5404 36.1535 29.6805 36.4337 29.9608L37.0564 30.5834C37.3366 30.8637 37.4767 31.0038 37.5293 31.1654C37.5755 31.3075 37.5756 31.4606 37.5295 31.6028C37.4772 31.7645 37.3372 31.9047 37.0573 32.1853L35.7181 33.5276C35.4376 33.8088 35.2974 33.9493 35.1355 34.0021C34.9932 34.0484 34.8398 34.0485 34.6975 34.0023Z" fill="black"/>
</svg>
