<svg width="58" height="59" viewBox="0 0 58 59" fill="none" xmlns="http://www.w3.org/2000/svg">
<g clip-path="url(#clip0_553_6742)">
<path d="M34.1444 34.6043C34.2986 34.7516 34.4315 34.916 34.5433 35.0976C34.8177 35.0248 35.186 34.7533 35.4982 34.3693C35.9714 33.7937 36.1832 33.3505 35.8642 33.0645C35.5453 32.7786 35.1187 33.0972 34.6498 33.6781C34.3841 33.9895 34.2069 34.3345 34.1444 34.6043ZM31.3905 32.1206C31.4774 32.4451 31.5242 32.6441 31.6351 32.6509C31.8173 32.6702 31.9835 32.0622 31.8109 31.4473C31.5962 30.7262 31.0245 30.171 30.298 29.9777C30.0527 29.9129 29.7735 29.8931 29.6898 29.9958C29.5322 30.2022 30.2619 30.4104 30.849 31.0497C31.1715 31.3942 31.3036 31.7962 31.3905 32.1206ZM30.734 31.862C30.2694 31.4394 29.7459 31.3452 29.6193 31.5792C29.642 31.6398 29.6283 31.6771 29.8847 31.8207C30.2641 32.0403 30.5704 32.354 30.7971 32.732C30.9056 32.8987 30.955 32.9815 31.0381 32.9758C31.2052 32.9547 31.2083 32.3293 30.734 31.862ZM32.1463 35.4744C32.6581 35.3588 32.4213 34.2959 31.9042 34.4158C31.3924 34.5314 31.6388 35.5953 32.1463 35.4744ZM33.9069 35.4279C33.582 35.0152 32.7258 35.6813 33.0454 36.0982C33.3799 36.5119 34.2361 35.8459 33.9069 35.4279ZM20.3157 27.1899C20.244 27.1338 19.9788 26.936 20.0784 26.6362C20.2797 26.0173 21.6365 26.35 22.1112 25.2556C22.6491 24.0224 21.6359 23.1925 20.9028 23.1537C20.0205 23.104 19.278 23.7045 19.4101 23.9221C19.5627 24.176 19.9307 23.8608 20.3481 23.8128C20.8336 23.7624 21.2626 24.1085 21.313 24.594C21.313 24.594 21.3173 24.5993 21.312 24.6036C21.4064 25.5448 20.428 25.4412 19.8884 25.9564C19.0627 26.7469 19.812 27.641 20.3375 27.4881C20.3918 27.4793 20.4405 27.4311 20.4509 27.3788C20.3925 27.426 20.535 27.3635 20.3157 27.1899ZM34.1063 42.3895C34.5864 41.7031 34.4828 41.857 34.9073 41.1453C35.2108 41.1193 36.8417 40.9232 37.0709 39.1239C37.203 38.1048 36.4932 36.6086 36.2905 36.1409C36.8308 35.5724 39.6107 33.8684 39.7769 31.427C41.8147 31.6038 43.6345 31.2725 44.7165 30.3976C46.7914 28.7111 45.3553 25.6442 41.503 23.5487L40.6815 23.1078C40.6825 23.0982 40.8864 20.9421 40.8895 20.9133C41.1195 14.7974 19.5556 13.6554 19.4253 19.6993L19.3971 21.0204C18.658 21.2672 17.988 21.6861 17.4391 22.244C15.8081 23.8611 15.7732 26.7578 17.1338 28.4295C12.5416 37.2218 21.5633 48.4004 30.8276 45.6898C31.1392 45.587 32.528 45.1132 33.4721 44.3497C34.4162 43.5863 34.3808 42.729 34.1063 42.3895ZM17.9575 27.6582C17.0072 26.4179 17.0404 24.2243 18.2316 23.0505C21.2223 20.0883 25.4217 23.7629 22.5005 26.9846C21.1226 28.5024 19.1909 29.2486 17.9575 27.6582ZM23.237 21.7663C22.426 21.0887 21.3952 20.7468 20.4123 20.8223C20.4196 20.3866 20.4483 19.5651 20.5388 19.3515C21.302 17.5941 25.0346 16.9706 27.2965 16.8171C32.8956 16.4298 38.7701 18.1621 39.7532 20.3759C39.9085 20.7416 39.5679 22.631 39.5679 22.631C39.5679 22.631 37.0934 21.632 34.3283 21.0872C30.7381 20.2271 26.8175 20.564 23.237 21.7663ZM28.1263 38.8127C28.1263 38.8127 26.3098 37.1412 25.5136 34.8114C26.8509 34.2739 26.3523 36.5104 30.3886 39.3431C31.2781 39.9659 32.5963 40.6632 33.9274 40.9641C33.6595 41.4789 33.3275 41.9579 32.943 42.3828C33.1388 42.549 33.5828 43.1198 32.4762 43.7691C31.2792 44.4475 30.0554 44.6915 28.6561 44.5773C27.7652 44.517 26.8863 44.2979 26.0769 43.9261C25.6178 43.7272 25.168 43.4856 24.7458 43.213C21.5188 41.1206 20.1826 37.3853 21.615 34.6656C21.7247 34.4541 21.8429 34.2532 21.9804 34.0544C23.1067 32.4857 25.1156 31.4227 27.0659 31.6C27.1864 31.6079 27.327 31.6082 27.4278 31.5267C27.5093 31.4432 27.5685 31.3428 27.5902 31.2287C27.831 30.4199 27.7064 28.3891 29.6934 27.2122C31.1217 26.3643 32.9188 26.7533 33.7106 27.841L33.9092 28.1191C34.2472 28.5914 34.5062 29.031 34.7905 29.4152C35.2658 30.0572 35.8106 30.5465 36.894 30.7581C37.2598 30.8308 37.57 30.8782 37.8622 31.1419C38.1274 31.3397 38.2899 31.6382 38.3288 31.9576C38.4023 32.7753 37.6084 33.5401 37.004 34.0727C36.6615 34.3759 35.826 35.1217 35.5949 35.3349C35.0531 35.8257 35.0936 36.0385 35.2426 36.418C35.3215 36.6349 35.4131 36.8241 35.5285 37.1079C35.8984 37.9667 36.0314 38.5434 35.9955 39.0198C35.9744 39.2649 35.868 39.4913 35.7081 39.6732C35.1721 40.247 33.9782 40.3001 32.1209 39.3809C28.9628 37.8294 27.3246 35.0224 27.0754 34.6274C26.3523 33.4403 24.4747 33.9497 24.0496 35.3549C23.2463 37.9956 28.2512 42.7206 31.6908 42.4831C31.7738 42.4774 31.7799 42.4198 31.7138 42.4031C28.3998 41.4074 25.5093 38.885 24.8054 36.691C24.7003 36.355 24.5154 35.6273 25.005 35.1262C26.1632 38.023 28.0215 38.9326 28.0215 38.9326C28.0215 38.9326 28.2538 38.9378 28.1263 38.8127ZM31.8671 22.437C33.6166 22.496 35.3965 22.8638 36.6928 23.4472C36.7162 23.4545 36.7324 23.4853 36.7197 23.5131C36.7134 23.5269 36.6975 23.5398 36.6826 23.5431C36.4751 23.5793 36.0527 23.6753 35.786 23.812C35.7605 23.8238 35.7521 23.8569 35.764 23.8824C35.7673 23.8973 35.7811 23.9036 35.795 23.9099C36.702 24.1853 38.0148 24.8869 38.8184 25.7722C38.8356 25.7934 38.8368 25.8275 38.8156 25.8446C38.7997 25.8575 38.7848 25.8608 38.7656 25.8587C38.5246 25.7993 38.2751 25.7729 38.0217 25.7849C37.9972 25.7871 37.9707 25.8086 37.9772 25.8384C37.9762 25.848 37.9848 25.8586 37.9891 25.8639C38.5113 26.5205 39.0295 27.6278 39.179 28.507C39.192 28.5666 39.0868 28.5991 39.0631 28.5481C36.9224 24.165 32.7841 22.8007 31.8549 22.5521C31.8272 22.5394 31.8153 22.5139 31.8184 22.4851C31.8267 22.4521 31.8479 22.4349 31.8671 22.437Z" fill="white"/>
</g>
<defs>
<clipPath id="clip0_553_6742">
<rect x="32" y="0.660156" width="40.8949" height="40.8949" rx="20.4475" transform="rotate(51.0404 32 0.660156)" fill="white"/>
</clipPath>
</defs>
</svg>
