<svg width="59" height="59" viewBox="0 0 59 59" fill="none" xmlns="http://www.w3.org/2000/svg">
<path d="M31.0511 39.253C32.868 39.6939 33.9877 41.4875 33.5562 43.2658C33.1246 45.044 31.3074 46.1249 29.4905 45.684C27.6735 45.2431 26.5539 43.4495 26.9854 41.6712L27.7657 38.4557L31.0511 39.253ZM31.4412 37.6453C29.6243 37.2043 28.5046 35.4108 28.9362 33.6325C29.3677 31.8542 31.1849 30.7734 33.0019 31.2143L41.2153 33.2075C43.0323 33.6484 44.152 35.442 43.7204 37.2202C43.2889 38.9985 41.4716 40.0794 39.6547 39.6384L31.4412 37.6453Z" fill="white"/>
<path d="M19.3166 31.2906C18.8858 33.0658 17.1028 34.1525 15.3275 33.7217C13.5523 33.2908 12.4656 31.5078 12.8965 29.7326C13.3273 27.9573 15.1103 26.8707 16.8855 27.3015L20.0956 28.0805L19.3166 31.2906ZM20.946 31.686C21.3768 29.9107 23.1598 28.8241 24.9351 29.2549C26.7103 29.6857 27.797 31.4687 27.3662 33.244L25.4128 41.2935C24.982 43.0688 23.199 44.1554 21.4237 43.7246C19.6484 43.2938 18.5618 41.5108 18.9926 39.7355L20.946 31.686Z" fill="white"/>
<path d="M27.3432 19.3304C25.5679 18.8996 24.4819 17.1142 24.9134 15.3359C25.345 13.5576 27.1285 12.4686 28.9038 12.8994C30.6791 13.3302 31.7651 15.1156 31.3336 16.8939L30.5533 20.1094L27.3432 19.3304ZM26.9531 20.9381C28.7283 21.3689 29.8144 23.1544 29.3828 24.9326C28.9513 26.7109 27.1677 27.7999 25.3924 27.3691L17.3429 25.4157C15.5676 24.9849 14.4816 23.1995 14.9131 21.4212C15.3447 19.643 17.1282 18.5539 18.9035 18.9847L26.9531 20.9381V20.9381Z" fill="white"/>
<path d="M39.1683 27.3143C39.5991 25.5391 41.4157 24.4606 43.2326 24.9015C45.0496 25.3424 46.1699 27.1336 45.739 28.9089C45.3082 30.6842 43.4916 31.7626 41.6747 31.3217L38.3893 30.5244L39.1683 27.3143ZM37.5256 26.9157C37.0948 28.691 35.2781 29.7694 33.4612 29.3285C31.6443 28.8876 30.524 27.0964 30.9548 25.3212L32.9082 17.2716C33.339 15.4964 35.1556 14.4179 36.9726 14.8588C38.7895 15.2997 39.9098 17.0909 39.479 18.8662L37.5256 26.9157Z" fill="white"/>
</svg>
