<svg width="75" height="75" viewBox="0 0 75 75" fill="none" xmlns="http://www.w3.org/2000/svg">
<rect x="10.7321" y="1.35517" width="63.7353" height="63.7353" rx="6.45966" transform="rotate(8.86961 10.7321 1.35517)" stroke="white" stroke-opacity="0.05" stroke-width="0.861287"/>
<path fill-rule="evenodd" clip-rule="evenodd" d="M50.3939 24.8028L27.8271 21.6312C25.8858 21.3584 24.0903 22.7095 23.8148 24.6505L20.6479 47.1839C20.5127 48.1191 20.7554 49.0695 21.3225 49.8253C21.8896 50.5809 22.7343 51.0797 23.67 51.2111L46.2367 54.3827C47.1716 54.5128 48.12 54.2655 48.8723 53.6953C49.6246 53.1253 50.1193 52.2792 50.2469 51.3438L53.4138 28.8103C53.6837 26.8704 52.3329 25.0779 50.3939 24.8028ZM34.0795 44.2361C34.0344 44.5486 33.8666 44.8304 33.6132 45.0188C33.3598 45.2073 33.0418 45.2871 32.7295 45.2407L27.7979 44.5476C27.1533 44.4544 26.7054 43.8574 26.796 43.2125L28.8586 28.5363C28.9493 27.8913 29.5444 27.4409 30.1897 27.529L35.1213 28.2221C35.7667 28.3154 36.2161 28.9118 36.1279 29.5579L34.0795 44.2361ZM46.4071 39.0972C46.3631 39.4104 46.1956 39.6929 45.9419 39.8816C45.6883 40.0704 45.3696 40.1498 45.057 40.102L40.1254 39.4089C39.48 39.3155 39.0306 38.7191 39.1188 38.0729L40.2344 30.1351C40.3277 29.4896 40.9241 29.0402 41.5703 29.1284L46.5018 29.8215C47.1464 29.9148 47.5944 30.5117 47.5038 31.1567L46.4071 39.0972Z" fill="white"/>
</svg>
