<svg width="49" height="49" viewBox="0 0 49 49" fill="none" xmlns="http://www.w3.org/2000/svg">
<path d="M19.1329 31.0473C19.7209 34.0008 22.5918 35.9184 25.5453 35.3304C28.4987 34.7424 30.4163 31.8715 29.8283 28.918C29.2403 25.9646 26.3694 24.047 23.416 24.635C20.4625 25.223 18.5449 28.0939 19.1329 31.0473Z" fill="white"/>
<path fill-rule="evenodd" clip-rule="evenodd" d="M6.3087 22.4809C6.59106 23.8992 7.42528 25.1473 8.62783 25.9505C9.83038 26.7537 11.3028 27.0463 12.7211 26.764L18.0688 25.6993L17.0041 20.3516C16.7217 18.9333 15.8875 17.6853 14.685 16.882C13.4824 16.0788 12.01 15.7862 10.5917 16.0686C9.17344 16.3509 7.9254 17.1851 7.12218 18.3877C6.31895 19.5902 6.02633 21.0626 6.3087 22.4809V22.4809Z" fill="white"/>
<path fill-rule="evenodd" clip-rule="evenodd" d="M17.004 20.352L18.0687 25.6997L28.7641 23.5704L27.6994 18.2227C27.4171 16.8044 26.5828 15.5564 25.3803 14.7531C24.1777 13.9499 22.7054 13.6573 21.2871 13.9397C19.8688 14.222 18.6207 15.0562 17.8175 16.2588C17.0143 17.4613 16.7216 18.9337 17.004 20.352V20.352Z" fill="white"/>
<path fill-rule="evenodd" clip-rule="evenodd" d="M27.6993 18.2231L28.764 23.5708L39.4594 21.4415L38.3947 16.0938C38.1124 14.6755 37.2782 13.4275 36.0756 12.6242C34.873 11.821 33.4007 11.5284 31.9824 11.8108C30.5641 12.0931 29.316 12.9273 28.5128 14.1299C27.7096 15.3324 27.417 16.8048 27.6993 18.2231V18.2231Z" fill="white"/>
<path fill-rule="evenodd" clip-rule="evenodd" d="M29.8282 28.9184L28.7636 23.5707L39.459 21.4414L40.5236 26.7891C40.806 28.2074 40.5134 29.6798 39.7102 30.8823C38.9069 32.0849 37.6589 32.9191 36.2406 33.2015C34.8223 33.4838 33.3499 33.1912 32.1474 32.388C30.9448 31.5848 30.1106 30.3367 29.8282 28.9184Z" fill="white"/>
</svg>
