<svg width="76" height="75" viewBox="0 0 76 75" fill="none" xmlns="http://www.w3.org/2000/svg">
<g filter="url(#filter0_d_489_8504)">
<path d="M39.548 35.792L26.4077 48.9323M27.8258 39.3959L21.3894 37.8755C20.6813 37.7082 20.4323 36.8291 20.9452 36.3143L26.0638 31.1957C26.4077 30.8519 26.8742 30.6549 27.363 30.6511L33.1339 30.601M40.4029 23.9973C44.6981 26.9265 48.4135 30.6418 51.3426 34.9371M35.9423 47.5142L37.4626 53.9506C37.6299 54.6587 38.509 54.9077 39.0238 54.3948L44.1424 49.2762C44.4863 48.9323 44.6833 48.4658 44.687 47.977L44.7372 42.2061M52.4448 31.9168L53.9465 24.6906C54.3554 22.7242 52.6158 20.9846 50.6494 21.3934L43.4231 22.8952C41.295 23.3375 39.3435 24.3914 37.8083 25.9284L31.8794 31.8555C29.6175 34.1174 28.1454 37.0503 27.6808 40.2155L27.6603 40.3512C27.3667 42.3715 28.0432 44.4104 29.4855 45.8545C30.9278 47.2968 32.9685 47.9733 34.9888 47.6778L35.1245 47.6573C38.2897 47.1945 41.2226 45.7207 43.4845 43.4588L49.4116 37.5317C50.9486 35.9965 52.0024 34.0449 52.4448 31.9168Z" stroke="white" stroke-width="2.5" stroke-linecap="round" stroke-linejoin="round" shape-rendering="crispEdges"/>
</g>
<defs>
<filter id="filter0_d_489_8504" x="-10.5771" y="-9.91742" width="95.8345" height="95.8348" filterUnits="userSpaceOnUse" color-interpolation-filters="sRGB">
<feFlood flood-opacity="0" result="BackgroundImageFix"/>
<feColorMatrix in="SourceAlpha" type="matrix" values="0 0 0 0 0 0 0 0 0 0 0 0 0 0 0 0 0 0 127 0" result="hardAlpha"/>
<feOffset/>
<feGaussianBlur stdDeviation="15"/>
<feComposite in2="hardAlpha" operator="out"/>
<feColorMatrix type="matrix" values="0 0 0 0 1 0 0 0 0 1 0 0 0 0 1 0 0 0 0.28 0"/>
<feBlend mode="normal" in2="BackgroundImageFix" result="effect1_dropShadow_489_8504"/>
<feBlend mode="normal" in="SourceGraphic" in2="effect1_dropShadow_489_8504" result="shape"/>
</filter>
</defs>
</svg>
