<svg width="75" height="75" viewBox="0 0 75 75" fill="none" xmlns="http://www.w3.org/2000/svg">
<g filter="url(#filter0_d_489_8463)">
<path d="M36.9998 19.6667V23M36.9998 53V56.3334M24.0332 25.0334L26.3998 27.4M47.5998 48.6L49.9665 50.9667M18.6665 38H21.9998M51.9998 38H55.3332M24.0332 50.9667L26.3998 48.6M47.5998 27.4L49.9665 25.0334M45.3332 38C45.3332 42.6024 41.6022 46.3334 36.9998 46.3334C32.3975 46.3334 28.6665 42.6024 28.6665 38C28.6665 33.3976 32.3975 29.6667 36.9998 29.6667C41.6022 29.6667 45.3332 33.3976 45.3332 38Z" stroke="white" stroke-width="2.5" stroke-linecap="round" stroke-linejoin="round" shape-rendering="crispEdges"/>
</g>
<defs>
<filter id="filter0_d_489_8463" x="-12.5835" y="-11.5833" width="99.1665" height="99.1667" filterUnits="userSpaceOnUse" color-interpolation-filters="sRGB">
<feFlood flood-opacity="0" result="BackgroundImageFix"/>
<feColorMatrix in="SourceAlpha" type="matrix" values="0 0 0 0 0 0 0 0 0 0 0 0 0 0 0 0 0 0 127 0" result="hardAlpha"/>
<feOffset/>
<feGaussianBlur stdDeviation="15"/>
<feComposite in2="hardAlpha" operator="out"/>
<feColorMatrix type="matrix" values="0 0 0 0 1 0 0 0 0 1 0 0 0 0 1 0 0 0 0.28 0"/>
<feBlend mode="normal" in2="BackgroundImageFix" result="effect1_dropShadow_489_8463"/>
<feBlend mode="normal" in="SourceGraphic" in2="effect1_dropShadow_489_8463" result="shape"/>
</filter>
</defs>
</svg>
