<svg width="25" height="24" viewBox="0 0 25 24" fill="none" xmlns="http://www.w3.org/2000/svg">
<g clip-path="url(#clip0_155_1124)">
<path d="M17.9377 0H13.8925V16.3499C13.8925 18.298 12.3367 19.8982 10.4005 19.8982C8.46433 19.8982 6.90849 18.298 6.90849 16.3499C6.90849 14.4366 8.42976 12.8712 10.2968 12.8016V8.69678C6.18242 8.76632 2.86328 12.1407 2.86328 16.3499C2.86328 20.594 6.25157 24.0031 10.4351 24.0031C14.6186 24.0031 18.0068 20.5592 18.0068 16.3499V7.96622C19.5281 9.07942 21.3951 9.74038 23.3659 9.77518V5.67029C20.3234 5.56593 17.9377 3.06126 17.9377 0Z" fill="white"/>
</g>
<defs>
<clipPath id="clip0_155_1124">
<rect width="24.0031" height="24.0031" fill="white" transform="translate(0.861328)"/>
</clipPath>
</defs>
</svg>
