<svg width="25" height="24" viewBox="0 0 25 24" fill="none" xmlns="http://www.w3.org/2000/svg">
<g clip-path="url(#clip0_155_1125)">
<path d="M8.41831 21.7522C17.4738 21.7522 22.4282 14.248 22.4282 7.74232C22.4282 7.53135 22.4235 7.3157 22.4142 7.10474C23.3779 6.40775 24.2097 5.54443 24.8702 4.55535C23.9727 4.9547 23.0197 5.21552 22.0438 5.32889C23.0713 4.71298 23.8407 3.74542 24.2092 2.60557C23.2426 3.17843 22.1855 3.58254 21.0832 3.80056C20.3405 3.01141 19.3585 2.4889 18.2891 2.31382C17.2197 2.13873 16.1223 2.32082 15.1668 2.83193C14.2112 3.34304 13.4506 4.15471 13.0026 5.14144C12.5546 6.12817 12.4441 7.23501 12.6882 8.29083C10.7309 8.19261 8.81614 7.68415 7.06796 6.79844C5.31978 5.91272 3.77725 4.6695 2.54037 3.14939C1.91172 4.23325 1.71935 5.51582 2.00236 6.73642C2.28537 7.95702 3.02253 9.02407 4.064 9.7207C3.28212 9.69587 2.51737 9.48536 1.83294 9.10655V9.1675C1.83224 10.3049 2.22546 11.4075 2.94576 12.2878C3.66607 13.1681 4.669 13.7718 5.78406 13.9962C5.05978 14.1944 4.29961 14.2233 3.56238 14.0806C3.87703 15.0588 4.48922 15.9144 5.31353 16.5279C6.13783 17.1414 7.13311 17.4823 8.16046 17.5029C6.41632 18.873 4.26179 19.6161 2.0439 19.6126C1.65057 19.612 1.25764 19.5879 0.867188 19.5404C3.12033 20.9859 5.74134 21.7536 8.41831 21.7522Z" fill="white"/>
</g>
<defs>
<clipPath id="clip0_155_1125">
<rect width="24.0031" height="24.0031" fill="white" transform="translate(0.865234)"/>
</clipPath>
</defs>
</svg>
