<svg width="55" height="39" viewBox="0 0 55 39" fill="none" xmlns="http://www.w3.org/2000/svg">
<path d="M25.4412 17.1368V15.9297L24.5876 16.7833L19.5972 21.7737C18.9425 22.4284 17.881 22.4284 17.2263 21.7737C16.5716 21.119 16.5716 20.0575 17.2263 19.4028L25.9322 10.6969C26.5869 10.0422 27.6484 10.0422 28.3031 10.6969L37.009 19.4028C37.6637 20.0575 37.6637 21.119 37.009 21.7737C36.3543 22.4284 35.2928 22.4284 34.6381 21.7737L29.6477 16.7833L28.7941 15.9297V17.1368L28.7941 29.2941C28.7941 30.22 28.0435 30.9706 27.1176 30.9706C26.1918 30.9706 25.4412 30.22 25.4412 29.2941L25.4412 17.1368ZM53.7353 24.9412C53.7353 18.7064 49.5276 13.4557 43.7976 11.8714C41.1854 5.2145 34.7027 0.5 27.1176 0.5C20.3996 0.5 14.5461 4.19868 11.4812 9.66851C5.16612 11.296 0.5 17.029 0.5 23.8529C0.5 31.9423 7.05771 38.5 15.1471 38.5H40.1765C47.6648 38.5 53.7353 32.4295 53.7353 24.9412Z" fill="url(#paint0_linear_519_11625)" stroke="url(#paint1_linear_519_11625)"/>
<defs>
<linearGradient id="paint0_linear_519_11625" x1="27.1176" y1="1" x2="27.1176" y2="38" gradientUnits="userSpaceOnUse">
<stop stop-color="#666666"/>
<stop offset="1" stop-color="#666666" stop-opacity="0.2"/>
</linearGradient>
<linearGradient id="paint1_linear_519_11625" x1="27.1176" y1="1" x2="27.1176" y2="38" gradientUnits="userSpaceOnUse">
<stop stop-color="#7A7A7A"/>
<stop offset="0.759082" stop-color="#363636"/>
</linearGradient>
</defs>
</svg>
