<svg width="56" height="41" viewBox="0 0 56 41" fill="none" xmlns="http://www.w3.org/2000/svg">
<path d="M26.5763 18.1368L26.5763 16.6035L25.4921 17.6877L20.5017 22.6781C19.8997 23.2801 18.9238 23.2801 18.3219 22.6781C17.7199 22.0762 17.7199 21.1003 18.3219 20.4983L27.0278 11.7925C27.6297 11.1905 28.6056 11.1905 29.2075 11.7925L37.9134 20.4983C38.5153 21.1003 38.5153 22.0762 37.9134 22.6781C37.3115 23.2801 36.3356 23.2801 35.7336 22.6781L30.7432 17.6877L29.659 16.6035L29.659 18.1368L29.659 30.2941C29.659 31.1454 28.9689 31.8355 28.1176 31.8355C27.2664 31.8355 26.5763 31.1454 26.5763 30.2941V18.1368ZM54.8704 25.9412C54.8704 19.6677 50.6525 14.381 44.8987 12.7593C42.2508 6.08552 35.7363 1.36486 28.1176 1.36486C21.3693 1.36486 15.4871 5.06903 12.3916 10.5522C6.04662 12.2141 1.36486 17.986 1.36486 24.8529C1.36486 33.0169 7.98308 39.6351 16.1471 39.6351H41.1765C48.7394 39.6351 54.8704 33.5041 54.8704 25.9412Z" fill="url(#paint0_linear_520_11626)" stroke="url(#paint1_linear_520_11626)" stroke-width="1.27027"/>
<defs>
<linearGradient id="paint0_linear_520_11626" x1="28.1176" y1="2" x2="28.1176" y2="39" gradientUnits="userSpaceOnUse">
<stop stop-color="#B9EC1F"/>
<stop offset="1" stop-color="#B9EC1F" stop-opacity="0.2"/>
</linearGradient>
<linearGradient id="paint1_linear_520_11626" x1="28.1176" y1="2" x2="28.1176" y2="39" gradientUnits="userSpaceOnUse">
<stop stop-color="#E7FBAB"/>
<stop offset="0.759082" stop-color="#455122"/>
</linearGradient>
</defs>
</svg>
