<svg width="75" height="75" viewBox="0 0 75 75" fill="none" xmlns="http://www.w3.org/2000/svg">
<g filter="url(#filter0_d_489_8488)">
<path d="M45.3332 53V49.6667C45.3332 47.8986 44.6308 46.2029 43.3805 44.9526C42.1303 43.7024 40.4346 43 38.6665 43H25.3332C23.5651 43 21.8694 43.7024 20.6191 44.9526C19.3689 46.2029 18.6665 47.8986 18.6665 49.6667V53M55.3332 53V49.6667C55.3321 48.1895 54.8404 46.7546 53.9354 45.5872C53.0305 44.4198 51.7634 43.5859 50.3332 43.2167M43.6665 23.2167C45.1005 23.5838 46.3716 24.4178 47.2792 25.5872C48.1869 26.7565 48.6796 28.1947 48.6796 29.675C48.6796 31.1553 48.1869 32.5935 47.2792 33.7628C46.3716 34.9322 45.1005 35.7662 43.6665 36.1333M38.6665 29.6667C38.6665 33.3486 35.6817 36.3333 31.9998 36.3333C28.3179 36.3333 25.3332 33.3486 25.3332 29.6667C25.3332 25.9848 28.3179 23 31.9998 23C35.6817 23 38.6665 25.9848 38.6665 29.6667Z" stroke="white" stroke-width="2.5" stroke-linecap="round" stroke-linejoin="round" shape-rendering="crispEdges"/>
</g>
<defs>
<filter id="filter0_d_489_8488" x="-12.5835" y="-8.25" width="99.1665" height="92.5" filterUnits="userSpaceOnUse" color-interpolation-filters="sRGB">
<feFlood flood-opacity="0" result="BackgroundImageFix"/>
<feColorMatrix in="SourceAlpha" type="matrix" values="0 0 0 0 0 0 0 0 0 0 0 0 0 0 0 0 0 0 127 0" result="hardAlpha"/>
<feOffset/>
<feGaussianBlur stdDeviation="15"/>
<feComposite in2="hardAlpha" operator="out"/>
<feColorMatrix type="matrix" values="0 0 0 0 1 0 0 0 0 1 0 0 0 0 1 0 0 0 0.28 0"/>
<feBlend mode="normal" in2="BackgroundImageFix" result="effect1_dropShadow_489_8488"/>
<feBlend mode="normal" in="SourceGraphic" in2="effect1_dropShadow_489_8488" result="shape"/>
</filter>
</defs>
</svg>
