<svg width="30" height="24" viewBox="0 0 30 24" fill="none" xmlns="http://www.w3.org/2000/svg">
<g clip-path="url(#clip0_155_1122)">
<path d="M29.561 6.03124C29.561 6.03124 29.2694 3.97265 28.3713 3.06873C27.2341 1.87906 25.9628 1.87323 25.3796 1.80325C21.2041 1.5 14.935 1.5 14.935 1.5H14.9234C14.9234 1.5 8.65426 1.5 4.47876 1.80325C3.89558 1.87323 2.62427 1.87906 1.48709 3.06873C0.589003 3.97265 0.303249 6.03124 0.303249 6.03124C0.303249 6.03124 0 8.4514 0 10.8657V13.1284C0 15.5428 0.297417 17.9629 0.297417 17.9629C0.297417 17.9629 0.589003 20.0215 1.48126 20.9254C2.61844 22.1151 4.11136 22.0743 4.77617 22.2026C7.16718 22.43 14.9292 22.5 14.9292 22.5C14.9292 22.5 21.2041 22.4883 25.3796 22.1909C25.9628 22.1209 27.2341 22.1151 28.3713 20.9254C29.2694 20.0215 29.561 17.9629 29.561 17.9629C29.561 17.9629 29.8584 15.5486 29.8584 13.1284V10.8657C29.8584 8.4514 29.561 6.03124 29.561 6.03124ZM11.8442 15.8752V7.48334L19.9095 11.6938L11.8442 15.8752Z" fill="white"/>
</g>
<defs>
<clipPath id="clip0_155_1122">
<rect width="29.8584" height="24" fill="white"/>
</clipPath>
</defs>
</svg>
